<?xml version="1.0" encoding="UTF-8"?>
<svg id="_レイヤー_2" data-name="レイヤー 2" xmlns="http://www.w3.org/2000/svg" viewBox="0 0 122.55 139.24">
  <defs>
    <style>
      .cls-1 {
        stroke-width: 2.33px;
      }

      .cls-1, .cls-2, .cls-3, .cls-4, .cls-5, .cls-6 {
        fill: none;
        stroke: #548425;
        stroke-linecap: round;
        stroke-miterlimit: 10;
      }

      .cls-7 {
        fill: #252821;
        font-family: MuseoSlab-300, 'Museo Slab';
        font-size: 19.8px;
      }

      .cls-2 {
        stroke-width: 3.75px;
      }

      .cls-3 {
        stroke-width: 2.87px;
      }

      .cls-8 {
        fill: #1c1c1c;
        font-family: MuseoSlab-500, 'Museo Slab';
        font-size: 12.83px;
      }

      .cls-4 {
        stroke-width: 3.26px;
      }

      .cls-9 {
        letter-spacing: 0em;
      }

      .cls-5 {
        stroke-width: 2.65px;
      }

      .cls-6 {
        stroke-width: 2px;
      }

      .cls-10 {
        letter-spacing: -.04em;
      }
    </style>
  </defs>
  <g id="OBJECTS">
    <g>
      <path class="cls-6" d="M31.65,30.53c7-9.27,18.11-15.27,30.62-15.27s22.55,5.43,29.58,13.95"/>
      <line class="cls-6" x1="2.57" y1="91.96" x2="121.55" y2="91.96"/>
      <line class="cls-6" x1="6.44" y1="77.55" x2="28.23" y2="77.55"/>
      <line class="cls-6" x1="95.19" y1="78.76" x2="119.92" y2="78.76"/>
      <text class="cls-7" transform="translate(32.56 67.34)"><tspan class="cls-10" x="0" y="0">F</tspan><tspan x="10.35" y="0">ARM</tspan></text>
      <text class="cls-8" transform="translate(48.23 81.86)"><tspan class="cls-9" x="0" y="0">l</tspan><tspan x="3.71" y="0">o</tspan><tspan class="cls-9" x="11.74" y="0">g</tspan><tspan x="19.72" y="0">o</tspan></text>
      <g>
        <path class="cls-4" d="M17.15,52.81c0,1.5-.61,2.87-2.87,2.87s-2.87-1.36-2.87-2.87,1.77-3.89,2.98-3.89,2.77,2.38,2.77,3.89Z"/>
        <line class="cls-5" x1="14.28" y1="55.74" x2="14.28" y2="76.55"/>
        <g>
          <path class="cls-4" d="M25.37,64.64c-1.29,1.4-2.94,2.21-4.76.54-1.85-1.7-1.14-3.39.15-4.79,1.29-1.4,4.75-2.3,5.72-1.41.97.9.18,4.26-1.11,5.66Z"/>
          <line class="cls-4" x1="20.61" y1="65.18" x2="15" y2="70.5"/>
        </g>
        <g>
          <path class="cls-4" d="M3.18,64.64c1.29,1.4,2.94,2.21,4.76.54,1.85-1.7,1.14-3.39-.15-4.79-1.29-1.4-4.75-2.3-5.72-1.41-.97.9-.18,4.26,1.11,5.66Z"/>
          <line class="cls-4" x1="7.94" y1="65.18" x2="13.55" y2="70.5"/>
        </g>
      </g>
      <g>
        <path class="cls-4" d="M110.17,52.81c0,1.5-.61,2.87-2.87,2.87s-2.87-1.36-2.87-2.87,1.77-3.89,2.98-3.89,2.77,2.38,2.77,3.89Z"/>
        <line class="cls-5" x1="107.3" y1="55.74" x2="107.3" y2="76.55"/>
        <g>
          <path class="cls-4" d="M118.39,64.64c-1.29,1.4-2.94,2.21-4.76.54-1.85-1.7-1.14-3.39.15-4.79,1.29-1.4,4.75-2.3,5.72-1.41.97.9.18,4.26-1.11,5.66Z"/>
          <line class="cls-4" x1="113.63" y1="65.18" x2="108.01" y2="70.5"/>
        </g>
        <g>
          <path class="cls-4" d="M96.19,64.64c1.29,1.4,2.94,2.21,4.76.54,1.85-1.7,1.14-3.39-.15-4.79-1.29-1.4-4.75-2.3-5.72-1.41-.97.9-.18,4.26,1.11,5.66Z"/>
          <line class="cls-4" x1="100.95" y1="65.18" x2="106.57" y2="70.5"/>
        </g>
      </g>
      <g>
        <path class="cls-3" d="M59.01,35.9c0-1.33.53-2.53,2.53-2.53s2.53,1.2,2.53,2.53-1.56,3.43-2.63,3.43-2.44-2.1-2.44-3.43Z"/>
        <line class="cls-1" x1="61.54" y1="33.32" x2="61.54" y2="14.98"/>
        <g>
          <path class="cls-3" d="M51.77,25.48c1.14-1.23,2.59-1.95,4.19-.47,1.63,1.5,1,2.99-.13,4.22-1.14,1.23-4.18,2.03-5.04,1.24-.86-.79-.16-3.75.98-4.99Z"/>
          <line class="cls-3" x1="55.96" y1="25" x2="60.91" y2="20.32"/>
        </g>
        <g>
          <path class="cls-3" d="M71.33,25.48c-1.14-1.23-2.59-1.95-4.19-.47-1.63,1.5-1,2.99.13,4.22,1.14,1.23,4.18,2.03,5.04,1.24.86-.79.16-3.75-.98-4.99Z"/>
          <line class="cls-3" x1="67.13" y1="25" x2="62.19" y2="20.32"/>
        </g>
      </g>
      <path class="cls-2" d="M82.36,38.09h32.13c1.5,0,2.3-1.77,1.31-2.9l-13.77-15.59c-.75-.85-1.68-1.52-2.72-1.98L64.75,2.53c-1.99-.87-4.26-.87-6.25,0l-34.33,15.09c-1.03.45-1.95,1.13-2.7,1.97l-13.78,15.59c-1,1.13-.2,2.9,1.31,2.9h33.97"/>
      <g>
        <path class="cls-3" d="M65.05,101.77c0,1.33-.53,2.53-2.53,2.53s-2.53-1.2-2.53-2.53,1.56-3.43,2.63-3.43,2.44,2.1,2.44,3.43Z"/>
        <line class="cls-1" x1="62.52" y1="104.35" x2="62.52" y2="122.69"/>
        <g>
          <path class="cls-3" d="M72.3,112.2c-1.14,1.23-2.59,1.95-4.19.47-1.63-1.5-1-2.99.13-4.22,1.14-1.23,4.18-2.03,5.04-1.24.86.79.16,3.75-.98,4.99Z"/>
          <line class="cls-3" x1="68.1" y1="112.67" x2="63.15" y2="117.36"/>
        </g>
        <g>
          <path class="cls-3" d="M52.73,112.2c1.14,1.23,2.59,1.95,4.19.47,1.63-1.5,1-2.99-.13-4.22-1.14-1.23-4.18-2.03-5.04-1.24-.86.79-.16,3.75.98,4.99Z"/>
          <line class="cls-3" x1="56.93" y1="112.67" x2="61.88" y2="117.36"/>
        </g>
      </g>
      <path class="cls-2" d="M43.18,101.15H9.21c-1.5,0-2.3,1.77-1.31,2.9l13.78,15.59c.75.84,1.67,1.52,2.7,1.97l34.33,15.09c1.99.87,4.26.88,6.25,0l34.56-15.1c1.04-.45,1.97-1.13,2.72-1.98l13.77-15.59c1-1.13.2-2.9-1.31-2.9h-32.13"/>
      <g>
        <path class="cls-6" d="M28.81,108.17c0,1.12-.9,2.02-2.02,2.02s-2.02-.9-2.02-2.02.9-2.02,2.02-2.02,2.02.9,2.02,2.02Z"/>
        <path class="cls-6" d="M100.26,108.17c0,1.12-.9,2.02-2.02,2.02s-2.02-.9-2.02-2.02.9-2.02,2.02-2.02,2.02.9,2.02,2.02Z"/>
        <polyline class="cls-6" points="90.01 113.55 62.81 124.96 62.22 124.96 35.02 113.55"/>
      </g>
    </g>
  </g>
</svg>