<svg width="143" height="12" viewBox="0 0 143 12" fill="none" xmlns="http://www.w3.org/2000/svg">
<path id="Vector" d="M10.048 3.37C10.048 3.5007 9.992 3.56599 9.88 3.56599C9.8427 3.56599 9.81 3.56599 9.782 3.56599C9.754 3.55669 9.7307 3.53329 9.712 3.49599C9.7027 3.47729 9.6887 3.4353 9.67 3.37C9.6607 3.2953 9.656 3.244 9.656 3.216C9.6093 2.936 9.5393 2.62799 9.446 2.29199C9.362 1.94669 9.2267 1.6667 9.04 1.452C8.9467 1.34 8.788 1.26529 8.564 1.22799C8.34 1.19069 8.1113 1.17199 7.878 1.17199C7.6447 1.17199 7.4627 1.17199 7.332 1.17199C7.192 1.17199 7.0193 1.17199 6.814 1.17199C6.618 1.17199 6.4407 1.20929 6.282 1.28399C6.1327 1.35869 6.058 1.50799 6.058 1.73199C6.058 3.14129 6.0627 4.55529 6.072 5.97399C6.0907 7.38329 6.1 8.7973 6.1 10.216C6.1 10.3373 6.1513 10.4307 6.254 10.496C6.3567 10.552 6.4733 10.5893 6.604 10.608C6.7347 10.6267 6.842 10.636 6.926 10.636C7.0007 10.636 7.066 10.636 7.122 10.636C7.1873 10.6267 7.2527 10.622 7.318 10.622C7.4113 10.622 7.458 10.664 7.458 10.748C7.458 10.7853 7.458 10.8413 7.458 10.916C7.458 10.9813 7.4253 11.014 7.36 11.014C7.024 11.014 6.688 11.0093 6.352 11C6.0253 10.9813 5.694 10.972 5.358 10.972C4.91 10.972 4.4527 10.986 3.986 11.014C3.8833 11.014 3.776 11.0187 3.664 11.028C3.552 11.0373 3.4447 11.042 3.342 11.042C3.258 11.042 3.216 10.9907 3.216 10.888C3.216 10.776 3.23 10.706 3.258 10.678C3.286 10.65 3.3513 10.636 3.454 10.636C3.4727 10.636 3.4913 10.6407 3.51 10.65C3.538 10.65 3.5567 10.65 3.566 10.65C3.6687 10.65 3.7993 10.6407 3.958 10.622C4.1167 10.6033 4.2567 10.566 4.378 10.51C4.5087 10.4447 4.574 10.3467 4.574 10.216C4.5833 9.4973 4.588 8.77869 4.588 8.05999C4.5973 7.34129 4.602 6.62269 4.602 5.90399C4.602 5.19469 4.5973 4.48999 4.588 3.78999C4.5787 3.08069 4.574 2.37129 4.574 1.66199C4.574 1.54999 4.5273 1.44729 4.434 1.35399C4.35 1.26069 4.2567 1.20929 4.154 1.19999C4.07 1.18129 3.9813 1.17199 3.888 1.17199C3.804 1.17199 3.7153 1.17199 3.622 1.17199H2.376C2.04 1.17199 1.788 1.256 1.62 1.424C1.4613 1.5827 1.3493 1.79269 1.284 2.05399C1.2187 2.30599 1.158 2.56729 1.102 2.83799C1.102 2.85669 1.088 2.92199 1.06 3.03399C1.0413 3.13669 1.018 3.2393 0.989998 3.342C0.971298 3.4353 0.957298 3.48669 0.947998 3.49599C0.910698 3.54269 0.854699 3.56599 0.779999 3.56599C0.677299 3.56599 0.625999 3.51469 0.625999 3.41199C0.625999 3.37469 0.625999 3.328 0.625999 3.272C0.635299 3.2067 0.644699 3.13199 0.653999 3.04799C0.672699 2.83329 0.686699 2.57669 0.695999 2.27799C0.714699 1.96999 0.728699 1.6853 0.737999 1.424C0.747299 1.3307 0.751999 1.23729 0.751999 1.14399C0.751999 1.05069 0.756699 0.966691 0.765999 0.891991C0.765999 0.761291 0.845298 0.705291 1.004 0.723991C1.6853 0.789291 2.3713 0.821991 3.062 0.821991C3.762 0.812691 4.4527 0.807991 5.134 0.807991H6.324C6.7067 0.807991 7.0893 0.807991 7.472 0.807991C7.864 0.798691 8.256 0.789291 8.648 0.779991C8.816 0.770691 8.9887 0.765991 9.166 0.765991C9.3527 0.756691 9.5347 0.751991 9.712 0.751991C9.8333 0.751991 9.9033 0.798691 9.922 0.891991C9.9313 0.919991 9.9407 1.02269 9.95 1.19999C9.9593 1.36799 9.9687 1.56399 9.978 1.78799C9.9873 2.00269 9.992 2.20799 9.992 2.40399C10.0013 2.59069 10.006 2.72129 10.006 2.79599C10.0153 2.88929 10.0247 2.98269 10.034 3.07599C10.0433 3.16929 10.048 3.2673 10.048 3.37ZM15.234 9.36199C15.1967 8.94199 15.1733 8.52199 15.164 8.10199C15.164 7.67269 15.1593 7.2433 15.15 6.814H14.954C14.6647 6.814 14.3427 6.86069 13.988 6.95399C13.6427 7.03799 13.3113 7.16869 12.994 7.34599C12.6767 7.52329 12.4153 7.74729 12.21 8.01799C12.014 8.27929 11.916 8.58269 11.916 8.92799C11.916 9.37599 12.042 9.71669 12.294 9.94999C12.546 10.174 12.8867 10.286 13.316 10.286C13.5213 10.286 13.7453 10.2393 13.988 10.146C14.2307 10.0433 14.464 9.92199 14.688 9.78199C14.912 9.64199 15.094 9.50199 15.234 9.36199ZM17.684 10.258C17.684 10.2953 17.6793 10.3233 17.67 10.342C17.5767 10.5473 17.418 10.706 17.194 10.818C16.9793 10.9207 16.7647 10.972 16.55 10.972C16.158 10.972 15.8733 10.86 15.696 10.636C15.528 10.4027 15.3927 10.118 15.29 9.78199C14.9353 10.1087 14.5433 10.384 14.114 10.608C13.6847 10.8227 13.2227 10.93 12.728 10.93C12.3827 10.93 12.056 10.8647 11.748 10.734C11.4493 10.594 11.2067 10.3933 11.02 10.132C10.8333 9.8707 10.74 9.55329 10.74 9.17999C10.74 8.78799 10.838 8.45199 11.034 8.17199C11.2393 7.88269 11.496 7.63999 11.804 7.44399C12.1213 7.23869 12.4573 7.07529 12.812 6.95399C13.176 6.82329 13.5167 6.7253 13.834 6.66C14.0487 6.6133 14.268 6.57129 14.492 6.53399C14.716 6.49669 14.9353 6.45929 15.15 6.42199C15.15 6.16069 15.136 5.85729 15.108 5.51199C15.0893 5.16669 15.0193 4.88199 14.898 4.65799C14.7767 4.44329 14.6133 4.25199 14.408 4.08399C14.2027 3.91599 13.974 3.83199 13.722 3.83199C13.2927 3.83199 12.9567 3.94399 12.714 4.16799C12.4713 4.39199 12.2987 4.7093 12.196 5.12C12.1867 5.1667 12.1773 5.21799 12.168 5.27399C12.168 5.32069 12.1633 5.36729 12.154 5.41399C12.1447 5.46999 12.1073 5.52129 12.042 5.56799C11.986 5.60529 11.9253 5.62399 11.86 5.62399C11.6827 5.62399 11.5193 5.58199 11.37 5.49799C11.23 5.41399 11.16 5.274 11.16 5.078C11.16 4.966 11.1787 4.86799 11.216 4.78399C11.3373 4.49469 11.5333 4.25669 11.804 4.06999C12.0747 3.87399 12.3733 3.72469 12.7 3.62199C13.036 3.51929 13.3487 3.46799 13.638 3.46799C14.142 3.46799 14.5993 3.56129 15.01 3.74799C15.4207 3.93469 15.7473 4.20999 15.99 4.57399C16.242 4.92869 16.368 5.37669 16.368 5.91799C16.368 6.52469 16.3633 7.13599 16.354 7.75199C16.354 8.36799 16.3727 8.98399 16.41 9.59999C16.4193 9.80529 16.4613 9.9873 16.536 10.146C16.6107 10.2953 16.7647 10.37 16.998 10.37C17.1193 10.37 17.2453 10.342 17.376 10.286C17.516 10.2207 17.6047 10.188 17.642 10.188C17.67 10.188 17.684 10.2113 17.684 10.258ZM22.877 10.356C22.877 10.44 22.812 10.524 22.681 10.608C22.56 10.692 22.411 10.7667 22.233 10.832C22.056 10.8973 21.8833 10.9487 21.7153 10.986C21.5566 11.0233 21.4399 11.042 21.3653 11.042C20.8799 11.042 20.5019 10.9813 20.2313 10.86C19.9699 10.7387 19.7833 10.538 19.6713 10.258C19.5686 9.978 19.5173 9.59999 19.5173 9.12399C19.5173 8.34929 19.5173 7.5747 19.5173 6.8C19.5266 6.016 19.5359 5.23669 19.5453 4.46199H18.5373C18.4719 4.46199 18.4159 4.48069 18.3693 4.51799C18.3319 4.54599 18.2899 4.55999 18.2432 4.55999C18.1966 4.55999 18.1733 4.52729 18.1733 4.46199C18.1733 4.42469 18.1966 4.34999 18.2432 4.23799C18.2993 4.12599 18.3366 4.05129 18.3553 4.01399C18.3833 4.02329 18.4253 4.02799 18.4813 4.02799H19.5733L19.5873 2.24999C19.8019 2.10999 19.9979 1.95599 20.1753 1.78799C20.3526 1.61069 20.5299 1.43329 20.7073 1.25599C20.7259 1.23729 20.7446 1.22329 20.7633 1.21399C20.7819 1.19529 20.8006 1.18599 20.8193 1.18599C20.9033 1.18599 20.9453 1.21869 20.9453 1.28399L20.8613 4.01399C21.1599 4.01399 21.4539 4.00929 21.7433 3.99999C22.042 3.99069 22.336 3.98599 22.625 3.98599C22.747 3.98599 22.807 4.05599 22.807 4.19599C22.807 4.37329 22.728 4.46199 22.569 4.46199H20.8613C20.8613 5.17129 20.8566 5.88529 20.8473 6.60399C20.8473 7.31329 20.8473 8.02729 20.8473 8.74599V9.82399C20.8473 10.0573 20.9453 10.2207 21.1413 10.314C21.3373 10.398 21.5286 10.44 21.7153 10.44C21.9766 10.44 22.233 10.398 22.485 10.314C22.513 10.2953 22.555 10.2767 22.611 10.258C22.667 10.2393 22.709 10.23 22.737 10.23C22.831 10.23 22.877 10.272 22.877 10.356ZM28.702 6.08599C28.693 5.70329 28.66 5.3393 28.604 4.994C28.548 4.6393 28.413 4.34999 28.198 4.12599C27.984 3.89269 27.634 3.77599 27.148 3.77599C26.71 3.77599 26.35 3.89729 26.07 4.13999C25.8 4.37329 25.59 4.672 25.44 5.036C25.291 5.3907 25.179 5.75469 25.104 6.12799C25.338 6.13729 25.566 6.14669 25.79 6.15599C26.014 6.15599 26.238 6.15599 26.462 6.15599C26.836 6.15599 27.209 6.15129 27.582 6.14199C27.956 6.12329 28.329 6.10469 28.702 6.08599ZM30.312 9.29199C30.312 9.33869 30.303 9.36669 30.284 9.37599C30.256 9.46929 30.186 9.58129 30.074 9.71199C29.972 9.84269 29.855 9.96869 29.724 10.09C29.594 10.202 29.486 10.286 29.402 10.342C29.094 10.5567 28.744 10.7293 28.352 10.86C27.97 10.9907 27.587 11.056 27.204 11.056C26.887 11.056 26.532 11.0047 26.14 10.902C25.758 10.7993 25.431 10.6593 25.16 10.482C24.638 10.1367 24.255 9.68399 24.012 9.12399C23.77 8.56399 23.648 7.98069 23.648 7.37399C23.648 6.68329 23.784 6.04399 24.054 5.45599C24.325 4.86799 24.759 4.39199 25.356 4.02799C25.627 3.86929 25.93 3.73869 26.266 3.63599C26.602 3.52399 26.924 3.46799 27.232 3.46799C27.783 3.46799 28.268 3.57999 28.688 3.80399C29.108 4.02799 29.435 4.34529 29.668 4.75599C29.911 5.15729 30.032 5.63799 30.032 6.19799C30.032 6.35669 29.995 6.45929 29.92 6.50599C29.855 6.55269 29.752 6.57599 29.612 6.57599C29.426 6.57599 29.239 6.57129 29.052 6.56199C28.866 6.55269 28.679 6.54329 28.492 6.53399C28.231 6.51529 27.97 6.50599 27.708 6.50599C27.456 6.50599 27.2 6.50599 26.938 6.50599C26.621 6.50599 26.304 6.50599 25.986 6.50599C25.669 6.50599 25.352 6.51529 25.034 6.53399C25.025 6.68329 25.016 6.82799 25.006 6.96799C24.997 7.10799 24.992 7.25269 24.992 7.40199C24.992 7.74729 25.034 8.1067 25.118 8.48C25.202 8.844 25.338 9.18469 25.524 9.50199C25.711 9.80999 25.949 10.062 26.238 10.258C26.528 10.4447 26.878 10.538 27.288 10.538C27.708 10.538 28.11 10.4727 28.492 10.342C28.875 10.2113 29.225 10.0013 29.542 9.71199C29.626 9.62799 29.701 9.53929 29.766 9.44599C29.841 9.34329 29.92 9.25469 30.004 9.17999C30.051 9.13329 30.102 9.10999 30.158 9.10999C30.205 9.10999 30.242 9.12869 30.27 9.16599C30.298 9.20329 30.312 9.24529 30.312 9.29199ZM36.415 8.99799C36.415 9.41799 36.322 9.76329 36.135 10.034C35.948 10.2953 35.706 10.496 35.407 10.636C35.108 10.776 34.782 10.874 34.427 10.93C34.072 10.986 33.727 11.014 33.391 11.014C33.083 11.014 32.775 10.9813 32.467 10.916C32.168 10.8507 31.865 10.804 31.557 10.776C31.492 10.524 31.426 10.272 31.361 10.02C31.305 9.76799 31.24 9.52069 31.165 9.27799C31.156 9.24999 31.132 9.18469 31.095 9.08199C31.067 8.97929 31.053 8.92329 31.053 8.91399C31.053 8.83929 31.076 8.78799 31.123 8.75999C31.17 8.72269 31.226 8.70399 31.291 8.70399C31.356 8.70399 31.403 8.72729 31.431 8.77399C31.487 8.83929 31.534 8.92799 31.571 9.03999C31.618 9.15199 31.66 9.24999 31.697 9.33399C31.772 9.48329 31.837 9.59999 31.893 9.68399C31.949 9.75869 32.038 9.85669 32.159 9.97799C32.523 10.3607 32.976 10.552 33.517 10.552C33.816 10.552 34.086 10.5193 34.329 10.454C34.581 10.3887 34.782 10.2673 34.931 10.09C35.08 9.90329 35.155 9.63729 35.155 9.29199C35.155 8.99329 35.062 8.746 34.875 8.55C34.688 8.3447 34.446 8.16269 34.147 8.00399C33.858 7.84529 33.55 7.69129 33.223 7.54199C32.896 7.39269 32.584 7.22929 32.285 7.05199C31.996 6.86529 31.758 6.64129 31.571 6.37999C31.384 6.11869 31.291 5.80129 31.291 5.42799C31.291 4.97069 31.408 4.59729 31.641 4.30799C31.884 4.01869 32.192 3.80399 32.565 3.66399C32.938 3.51469 33.326 3.43999 33.727 3.43999C33.988 3.43999 34.222 3.47269 34.427 3.53799C34.642 3.60329 34.866 3.67799 35.099 3.76199C35.174 3.78999 35.248 3.80869 35.323 3.81799C35.398 3.82729 35.472 3.83199 35.547 3.83199C35.594 3.83199 35.636 3.83199 35.673 3.83199C35.71 3.83199 35.748 3.82729 35.785 3.81799C35.813 3.98599 35.836 4.15869 35.855 4.33599C35.883 4.50399 35.906 4.67669 35.925 4.85399C35.934 4.91929 35.944 4.9987 35.953 5.092C35.972 5.176 35.981 5.25529 35.981 5.32999C35.981 5.39529 35.967 5.46529 35.939 5.53999C35.911 5.60529 35.855 5.63799 35.771 5.63799C35.706 5.63799 35.65 5.63329 35.603 5.62399C35.566 5.60529 35.533 5.56329 35.505 5.49799C35.458 5.40469 35.416 5.30669 35.379 5.20399C35.351 5.09199 35.318 4.9893 35.281 4.896C35.16 4.5693 34.95 4.30799 34.651 4.11199C34.352 3.90669 34.03 3.80399 33.685 3.80399C33.246 3.80399 32.915 3.93469 32.691 4.19599C32.467 4.44799 32.355 4.78869 32.355 5.21799C32.355 5.36729 32.392 5.51199 32.467 5.65199C32.551 5.79199 32.644 5.91329 32.747 6.01599C32.943 6.20269 33.172 6.34729 33.433 6.44999C33.704 6.55269 33.96 6.6553 34.203 6.758C34.52 6.898 34.847 7.06599 35.183 7.26199C35.528 7.45799 35.818 7.69599 36.051 7.97599C36.294 8.25599 36.415 8.59669 36.415 8.99799ZM45.631 10.846C45.631 10.8927 45.608 10.93 45.561 10.958C45.515 10.9767 45.468 10.986 45.421 10.986C45.188 10.986 44.95 10.9813 44.707 10.972C44.474 10.9533 44.236 10.944 43.993 10.944C43.723 10.944 43.447 10.9533 43.167 10.972C42.897 10.9907 42.626 11 42.355 11C42.309 11 42.276 10.972 42.257 10.916C42.248 10.8507 42.243 10.7993 42.243 10.762C42.243 10.6967 42.276 10.664 42.341 10.664C42.444 10.664 42.542 10.6687 42.635 10.678C42.738 10.678 42.836 10.678 42.929 10.678C43.051 10.678 43.144 10.6407 43.209 10.566C43.284 10.482 43.326 10.384 43.335 10.272C43.354 10.0387 43.359 9.80529 43.349 9.57199C43.349 9.33869 43.349 9.10999 43.349 8.88599C43.349 8.60599 43.349 8.33069 43.349 8.05999C43.349 7.77999 43.349 7.49999 43.349 7.21999C43.349 6.93999 43.349 6.65999 43.349 6.37999C43.349 6.09999 43.34 5.81999 43.321 5.53999C43.312 5.41869 43.298 5.30199 43.279 5.18999C43.27 5.06869 43.247 4.95199 43.209 4.83999C43.116 4.58799 42.962 4.39669 42.747 4.26599C42.542 4.12599 42.304 4.05599 42.033 4.05599C41.716 4.05599 41.403 4.13999 41.095 4.30799C40.787 4.46669 40.531 4.6673 40.325 4.91C40.101 5.1713 39.938 5.39999 39.835 5.59599C39.733 5.79199 39.667 5.99729 39.639 6.21199C39.621 6.42669 39.611 6.70669 39.611 7.05199V9.51599C39.611 9.61869 39.607 9.76329 39.597 9.94999C39.597 10.1367 39.621 10.3047 39.667 10.454C39.723 10.6033 39.831 10.678 39.989 10.678C40.083 10.678 40.171 10.6733 40.255 10.664C40.339 10.6547 40.428 10.65 40.521 10.65C40.605 10.65 40.647 10.6967 40.647 10.79C40.647 10.8367 40.638 10.8833 40.619 10.93C40.61 10.9673 40.577 10.986 40.521 10.986C40.204 10.986 39.877 10.9813 39.541 10.972C39.215 10.9533 38.888 10.944 38.561 10.944C38.263 10.944 37.959 10.958 37.651 10.986C37.614 10.986 37.581 10.9907 37.553 11C37.525 11 37.493 11 37.455 11C37.409 11 37.371 10.9767 37.343 10.93C37.325 10.874 37.315 10.8273 37.315 10.79C37.315 10.6873 37.367 10.636 37.469 10.636C37.525 10.636 37.581 10.6407 37.637 10.65C37.693 10.65 37.754 10.65 37.819 10.65C37.95 10.65 38.085 10.6313 38.225 10.594C38.375 10.5473 38.454 10.44 38.463 10.272C38.482 9.964 38.487 9.65599 38.477 9.34799C38.477 9.03999 38.477 8.7367 38.477 8.438C38.477 7.8593 38.477 7.2853 38.477 6.716C38.487 6.1467 38.491 5.5773 38.491 5.008C38.491 4.4107 38.487 3.818 38.477 3.23C38.468 2.6327 38.459 2.0353 38.449 1.438C38.449 1.3353 38.431 1.22329 38.393 1.10199C38.356 0.97129 38.272 0.905991 38.141 0.905991C38.011 0.905991 37.875 0.91529 37.735 0.93399C37.595 0.95269 37.455 0.96199 37.315 0.96199C37.231 0.96199 37.189 0.924691 37.189 0.849991C37.189 0.765991 37.231 0.709992 37.315 0.681992C37.502 0.635292 37.684 0.597992 37.861 0.569992C38.048 0.541992 38.23 0.509292 38.407 0.471992C38.566 0.434692 38.753 0.383293 38.967 0.317993C39.191 0.243293 39.378 0.205994 39.527 0.205994C39.583 0.205994 39.616 0.224693 39.625 0.261993C39.635 0.289993 39.639 0.327293 39.639 0.373993C39.639 1.13929 39.639 1.90469 39.639 2.66999C39.639 3.43529 39.63 4.2007 39.611 4.966C39.817 4.7513 40.064 4.53669 40.353 4.32199C40.652 4.10729 40.969 3.92999 41.305 3.78999C41.641 3.64069 41.959 3.56599 42.257 3.56599C42.864 3.56599 43.34 3.65469 43.685 3.83199C44.031 4.00929 44.273 4.28469 44.413 4.65799C44.553 5.02199 44.623 5.49799 44.623 6.08599C44.623 6.78599 44.619 7.48599 44.609 8.18599C44.609 8.87669 44.609 9.572 44.609 10.272C44.609 10.4213 44.647 10.5287 44.721 10.594C44.805 10.65 44.922 10.678 45.071 10.678C45.137 10.678 45.197 10.6733 45.253 10.664C45.319 10.6547 45.384 10.65 45.449 10.65C45.496 10.65 45.538 10.6733 45.575 10.72C45.613 10.7573 45.631 10.7993 45.631 10.846ZM50.206 10.79C50.206 10.8367 50.192 10.8833 50.164 10.93C50.136 10.9673 50.098 10.986 50.052 10.986C49.79 10.986 49.529 10.9813 49.268 10.972C49.016 10.9533 48.754 10.944 48.484 10.944H48.106C47.826 10.944 47.546 10.9533 47.266 10.972C46.995 10.9813 46.724 10.986 46.454 10.986C46.416 10.986 46.388 10.9627 46.37 10.916C46.36 10.8693 46.356 10.832 46.356 10.804C46.356 10.7573 46.36 10.7247 46.37 10.706C46.379 10.678 46.407 10.6593 46.454 10.65C46.5 10.6313 46.552 10.6267 46.608 10.636C46.673 10.636 46.734 10.636 46.79 10.636C46.855 10.636 46.916 10.6407 46.972 10.65C47.028 10.65 47.088 10.65 47.154 10.65C47.284 10.65 47.401 10.622 47.504 10.566C47.616 10.5007 47.672 10.3933 47.672 10.244V4.64399C47.672 4.48529 47.644 4.36399 47.588 4.27999C47.532 4.18669 47.415 4.13999 47.238 4.13999C47.107 4.13999 46.972 4.14929 46.832 4.16799C46.701 4.17729 46.57 4.19129 46.44 4.20999C46.365 4.20999 46.328 4.16799 46.328 4.08399C46.328 3.99069 46.365 3.92999 46.44 3.90199C46.552 3.86469 46.668 3.84129 46.79 3.83199C46.92 3.81329 47.042 3.79469 47.154 3.77599C47.415 3.72929 47.676 3.67799 47.938 3.62199C48.199 3.56599 48.456 3.50529 48.708 3.43999C48.736 3.43069 48.773 3.42599 48.82 3.42599C48.922 3.42599 48.974 3.48199 48.974 3.59399C48.974 4.69529 48.969 5.80129 48.96 6.91199C48.96 8.0227 48.96 9.1333 48.96 10.244C48.96 10.3933 49.025 10.5007 49.156 10.566C49.296 10.622 49.426 10.65 49.548 10.65C49.641 10.65 49.734 10.6453 49.828 10.636C49.93 10.6267 50.028 10.622 50.122 10.622C50.159 10.622 50.182 10.6453 50.192 10.692C50.201 10.7387 50.206 10.7713 50.206 10.79ZM49.072 1.10199C49.072 1.33529 48.988 1.53599 48.82 1.70399C48.652 1.86269 48.451 1.94199 48.218 1.94199C47.984 1.94199 47.784 1.86269 47.616 1.70399C47.448 1.53599 47.364 1.33529 47.364 1.10199C47.364 0.86869 47.448 0.672692 47.616 0.513992C47.784 0.345992 47.984 0.261993 48.218 0.261993C48.451 0.261993 48.652 0.345992 48.82 0.513992C48.988 0.672692 49.072 0.86869 49.072 1.10199ZM59.218 10.79C59.218 10.9113 59.148 10.972 59.008 10.972C58.803 10.972 58.593 10.9673 58.378 10.958C58.163 10.9393 57.949 10.93 57.734 10.93C57.417 10.93 57.09 10.9393 56.754 10.958C56.427 10.9673 56.101 10.972 55.774 10.972C55.737 10.972 55.713 10.944 55.704 10.888C55.695 10.8227 55.69 10.7713 55.69 10.734C55.69 10.6593 55.737 10.622 55.83 10.622C55.923 10.622 55.998 10.622 56.054 10.622C56.101 10.622 56.147 10.6267 56.194 10.636C56.25 10.636 56.301 10.636 56.348 10.636C56.619 10.636 56.768 10.5007 56.796 10.23C56.824 9.6793 56.833 9.124 56.824 8.564C56.824 8.004 56.824 7.4487 56.824 6.89799C56.824 6.79529 56.824 6.69269 56.824 6.58999C56.824 6.47799 56.824 6.37069 56.824 6.26799C56.815 6.05329 56.801 5.79199 56.782 5.48399C56.763 5.16669 56.721 4.90999 56.656 4.71399C56.507 4.22869 56.18 3.98599 55.676 3.98599C55.219 3.98599 54.799 4.10269 54.416 4.33599C54.033 4.56929 53.702 4.86329 53.422 5.21799C53.413 5.89929 53.408 6.57599 53.408 7.24799C53.408 7.91999 53.408 8.59199 53.408 9.26399V10.23C53.408 10.37 53.469 10.4727 53.59 10.538C53.711 10.6033 53.833 10.636 53.954 10.636C54.029 10.636 54.099 10.6313 54.164 10.622C54.239 10.6033 54.309 10.594 54.374 10.594C54.411 10.594 54.435 10.6173 54.444 10.664C54.453 10.7107 54.458 10.748 54.458 10.776C54.458 10.8133 54.444 10.8553 54.416 10.902C54.397 10.9487 54.36 10.972 54.304 10.972C54.099 10.972 53.893 10.9673 53.688 10.958C53.492 10.9393 53.291 10.93 53.086 10.93C52.769 10.93 52.451 10.9393 52.134 10.958C51.817 10.9673 51.495 10.972 51.168 10.972C51.121 10.972 51.093 10.944 51.084 10.888C51.084 10.8227 51.084 10.7713 51.084 10.734C51.084 10.6593 51.126 10.622 51.21 10.622C51.294 10.622 51.359 10.622 51.406 10.622C51.453 10.622 51.499 10.6267 51.546 10.636C51.593 10.636 51.639 10.636 51.686 10.636C51.957 10.636 52.106 10.5007 52.134 10.23C52.143 10.0993 52.148 9.96869 52.148 9.83799C52.148 9.70729 52.148 9.57669 52.148 9.44599C52.148 8.64329 52.148 7.84069 52.148 7.03799C52.148 6.22599 52.143 5.41869 52.134 4.61599C52.134 4.48529 52.106 4.35469 52.05 4.22399C51.994 4.09329 51.887 4.02799 51.728 4.02799C51.607 4.02799 51.49 4.04669 51.378 4.08399C51.266 4.12129 51.149 4.13999 51.028 4.13999C50.963 4.13999 50.93 4.09329 50.93 3.99999C50.93 3.98129 50.93 3.96269 50.93 3.94399C50.939 3.91599 50.949 3.89729 50.958 3.88799C50.967 3.87869 50.981 3.87399 51 3.87399C51.019 3.86469 51.033 3.85529 51.042 3.84599C51.21 3.79929 51.383 3.76669 51.56 3.74799C51.747 3.72929 51.924 3.70129 52.092 3.66399C52.251 3.63599 52.405 3.59869 52.554 3.55199C52.703 3.49599 52.853 3.46799 53.002 3.46799C53.067 3.46799 53.119 3.50069 53.156 3.56599C53.203 3.64999 53.24 3.77129 53.268 3.92999C53.296 4.07929 53.315 4.23329 53.324 4.39199C53.343 4.55069 53.352 4.68129 53.352 4.78399C53.557 4.57869 53.8 4.37799 54.08 4.18199C54.369 3.97669 54.668 3.80869 54.976 3.67799C55.293 3.53799 55.601 3.46799 55.9 3.46799C56.759 3.46799 57.337 3.65929 57.636 4.04199C57.944 4.41529 58.098 5.00799 58.098 5.81999C58.098 6.54799 58.093 7.27599 58.084 8.00399C58.084 8.73199 58.084 9.46 58.084 10.188C58.084 10.3653 58.135 10.4867 58.238 10.552C58.35 10.608 58.481 10.636 58.63 10.636C58.705 10.636 58.779 10.6313 58.854 10.622C58.929 10.6033 58.999 10.594 59.064 10.594C59.12 10.594 59.157 10.6173 59.176 10.664C59.204 10.7013 59.218 10.7433 59.218 10.79ZM64.494 9.36199C64.456 8.94199 64.433 8.52199 64.424 8.10199C64.424 7.67269 64.419 7.2433 64.41 6.814H64.214C63.924 6.814 63.602 6.86069 63.248 6.95399C62.902 7.03799 62.571 7.16869 62.254 7.34599C61.936 7.52329 61.675 7.74729 61.47 8.01799C61.274 8.27929 61.176 8.58269 61.176 8.92799C61.176 9.37599 61.302 9.71669 61.554 9.94999C61.806 10.174 62.146 10.286 62.576 10.286C62.781 10.286 63.005 10.2393 63.248 10.146C63.49 10.0433 63.724 9.92199 63.948 9.78199C64.172 9.64199 64.354 9.50199 64.494 9.36199ZM66.944 10.258C66.944 10.2953 66.939 10.3233 66.93 10.342C66.836 10.5473 66.678 10.706 66.454 10.818C66.239 10.9207 66.024 10.972 65.81 10.972C65.418 10.972 65.133 10.86 64.956 10.636C64.788 10.4027 64.652 10.118 64.55 9.78199C64.195 10.1087 63.803 10.384 63.374 10.608C62.944 10.8227 62.482 10.93 61.988 10.93C61.642 10.93 61.316 10.8647 61.008 10.734C60.709 10.594 60.466 10.3933 60.28 10.132C60.093 9.8707 60 9.55329 60 9.17999C60 8.78799 60.098 8.45199 60.294 8.17199C60.499 7.88269 60.756 7.63999 61.064 7.44399C61.381 7.23869 61.717 7.07529 62.072 6.95399C62.436 6.82329 62.776 6.7253 63.094 6.66C63.308 6.6133 63.528 6.57129 63.752 6.53399C63.976 6.49669 64.195 6.45929 64.41 6.42199C64.41 6.16069 64.396 5.85729 64.368 5.51199C64.349 5.16669 64.279 4.88199 64.158 4.65799C64.036 4.44329 63.873 4.25199 63.668 4.08399C63.462 3.91599 63.234 3.83199 62.982 3.83199C62.552 3.83199 62.216 3.94399 61.974 4.16799C61.731 4.39199 61.558 4.7093 61.456 5.12C61.446 5.1667 61.437 5.21799 61.428 5.27399C61.428 5.32069 61.423 5.36729 61.414 5.41399C61.404 5.46999 61.367 5.52129 61.302 5.56799C61.246 5.60529 61.185 5.62399 61.12 5.62399C60.942 5.62399 60.779 5.58199 60.63 5.49799C60.49 5.41399 60.42 5.274 60.42 5.078C60.42 4.966 60.438 4.86799 60.476 4.78399C60.597 4.49469 60.793 4.25669 61.064 4.06999C61.334 3.87399 61.633 3.72469 61.96 3.62199C62.296 3.51929 62.608 3.46799 62.898 3.46799C63.402 3.46799 63.859 3.56129 64.27 3.74799C64.68 3.93469 65.007 4.20999 65.25 4.57399C65.502 4.92869 65.628 5.37669 65.628 5.91799C65.628 6.52469 65.623 7.13599 65.614 7.75199C65.614 8.36799 65.632 8.98399 65.67 9.59999C65.679 9.80529 65.721 9.9873 65.796 10.146C65.87 10.2953 66.024 10.37 66.258 10.37C66.379 10.37 66.505 10.342 66.636 10.286C66.776 10.2207 66.864 10.188 66.902 10.188C66.93 10.188 66.944 10.2113 66.944 10.258ZM81.223 6.688C81.223 6.744 81.209 6.7953 81.181 6.842C81.153 6.8887 81.106 6.91199 81.041 6.91199H80.173V9.90799C79.52 10.132 78.871 10.3793 78.227 10.65C77.919 10.7807 77.592 10.8647 77.247 10.902C76.911 10.9393 76.58 10.958 76.253 10.958C75.973 10.958 75.66 10.9253 75.315 10.86C74.97 10.7947 74.634 10.7013 74.307 10.58C73.99 10.4587 73.71 10.3187 73.467 10.16C72.758 9.684 72.23 9.06799 71.885 8.31199C71.549 7.55599 71.381 6.75329 71.381 5.90399C71.381 5.18529 71.493 4.50869 71.717 3.87399C71.95 3.23929 72.282 2.67929 72.711 2.19399C73.14 1.70869 73.654 1.33069 74.251 1.05999C74.858 0.77999 75.534 0.639992 76.281 0.639992C76.832 0.639992 77.359 0.714691 77.863 0.863991C77.947 0.891991 78.082 0.93399 78.269 0.98999C78.456 1.04599 78.642 1.10199 78.829 1.15799C79.016 1.20469 79.142 1.22799 79.207 1.22799C79.403 1.22799 79.538 1.20469 79.613 1.15799C79.688 1.10199 79.744 1.04129 79.781 0.97599C79.828 0.91069 79.893 0.859291 79.977 0.821991H80.089C80.164 0.821991 80.206 0.86399 80.215 0.94799C80.234 1.04129 80.238 1.13929 80.229 1.24199C80.229 1.34469 80.229 1.4473 80.229 1.55C80.229 1.8393 80.234 2.12869 80.243 2.41799C80.262 2.70729 80.271 3.0013 80.271 3.3C80.271 3.412 80.266 3.54269 80.257 3.69199C80.257 3.84129 80.173 3.91599 80.005 3.91599C79.949 3.91599 79.898 3.91129 79.851 3.90199C79.814 3.88329 79.776 3.85069 79.739 3.80399C79.73 3.78529 79.706 3.73399 79.669 3.64999C79.632 3.55669 79.594 3.4633 79.557 3.37C79.52 3.2673 79.492 3.1973 79.473 3.16C79.221 2.5907 78.852 2.11469 78.367 1.73199C78.115 1.52669 77.793 1.36329 77.401 1.24199C77.018 1.12069 76.664 1.05999 76.337 1.05999C75.712 1.05999 75.18 1.214 74.741 1.522C74.302 1.8207 73.948 2.21269 73.677 2.69799C73.406 3.18329 73.21 3.70599 73.089 4.26599C72.968 4.82599 72.907 5.36729 72.907 5.88999C72.907 6.44069 72.972 6.98199 73.103 7.51399C73.234 8.04599 73.434 8.52669 73.705 8.95599C73.985 9.38529 74.349 9.73069 74.797 9.99199C75.245 10.244 75.782 10.37 76.407 10.37C76.594 10.37 76.818 10.3513 77.079 10.314C77.34 10.2767 77.602 10.2113 77.863 10.118C78.124 10.0247 78.339 9.89869 78.507 9.73999C78.684 9.58129 78.773 9.38069 78.773 9.13799V7.28999C78.773 7.14069 78.698 7.04729 78.549 7.00999C78.409 6.96329 78.288 6.93999 78.185 6.93999C78.045 6.93999 77.905 6.94929 77.765 6.96799C77.625 6.97729 77.485 6.98199 77.345 6.98199C77.27 6.98199 77.219 6.95869 77.191 6.91199C77.172 6.86529 77.163 6.8093 77.163 6.744C77.163 6.688 77.172 6.63669 77.191 6.58999C77.21 6.53399 77.256 6.50599 77.331 6.50599C77.48 6.50599 77.625 6.51069 77.765 6.51999C77.905 6.51999 78.05 6.51999 78.199 6.51999H79.193C79.352 6.51999 79.51 6.51999 79.669 6.51999C79.828 6.51999 79.986 6.51529 80.145 6.50599C80.304 6.50599 80.458 6.50129 80.607 6.49199C80.756 6.47329 80.906 6.46399 81.055 6.46399C81.111 6.46399 81.153 6.49199 81.181 6.54799C81.209 6.59469 81.223 6.6413 81.223 6.688ZM88.073 7.30399C88.073 6.90269 88.04 6.50129 87.975 6.09999C87.919 5.68929 87.807 5.3113 87.639 4.966C87.48 4.6207 87.247 4.34529 86.939 4.13999C86.631 3.92529 86.229 3.81799 85.735 3.81799C85.268 3.81799 84.885 3.92999 84.587 4.15399C84.297 4.37799 84.069 4.6673 83.901 5.022C83.742 5.3767 83.63 5.75929 83.565 6.16999C83.509 6.58069 83.481 6.96799 83.481 7.33199C83.481 7.73329 83.509 8.1347 83.565 8.536C83.63 8.9373 83.747 9.30129 83.915 9.62799C84.083 9.94529 84.321 10.202 84.629 10.398C84.946 10.594 85.352 10.692 85.847 10.692C86.332 10.692 86.719 10.5893 87.009 10.384C87.307 10.1787 87.531 9.90799 87.681 9.57199C87.839 9.23599 87.942 8.872 87.989 8.48C88.045 8.0787 88.073 7.68669 88.073 7.30399ZM89.515 7.34599C89.515 8.04599 89.347 8.67599 89.011 9.23599C88.684 9.79599 88.236 10.2393 87.667 10.566C87.107 10.8927 86.477 11.056 85.777 11.056C85.095 11.056 84.479 10.8927 83.929 10.566C83.378 10.23 82.939 9.78669 82.613 9.23599C82.286 8.67599 82.123 8.05529 82.123 7.37399C82.123 6.67399 82.281 6.02999 82.599 5.44199C82.916 4.84469 83.35 4.36399 83.901 3.99999C84.461 3.63599 85.105 3.45399 85.833 3.45399C86.617 3.45399 87.284 3.62199 87.835 3.95799C88.385 4.28469 88.801 4.74199 89.081 5.32999C89.37 5.90869 89.515 6.58069 89.515 7.34599ZM95.256 10.356C95.256 10.44 95.191 10.524 95.06 10.608C94.939 10.692 94.789 10.7667 94.612 10.832C94.435 10.8973 94.262 10.9487 94.094 10.986C93.935 11.0233 93.819 11.042 93.744 11.042C93.259 11.042 92.881 10.9813 92.61 10.86C92.349 10.7387 92.162 10.538 92.05 10.258C91.947 9.978 91.896 9.59999 91.896 9.12399C91.896 8.34929 91.896 7.5747 91.896 6.8C91.905 6.016 91.915 5.23669 91.924 4.46199H90.916C90.851 4.46199 90.795 4.48069 90.748 4.51799C90.711 4.54599 90.669 4.55999 90.622 4.55999C90.575 4.55999 90.552 4.52729 90.552 4.46199C90.552 4.42469 90.575 4.34999 90.622 4.23799C90.678 4.12599 90.715 4.05129 90.734 4.01399C90.762 4.02329 90.804 4.02799 90.86 4.02799H91.952L91.966 2.24999C92.181 2.10999 92.377 1.95599 92.554 1.78799C92.731 1.61069 92.909 1.43329 93.086 1.25599C93.105 1.23729 93.123 1.22329 93.142 1.21399C93.161 1.19529 93.179 1.18599 93.198 1.18599C93.282 1.18599 93.324 1.21869 93.324 1.28399L93.24 4.01399C93.539 4.01399 93.833 4.00929 94.122 3.99999C94.421 3.99069 94.715 3.98599 95.004 3.98599C95.125 3.98599 95.186 4.05599 95.186 4.19599C95.186 4.37329 95.107 4.46199 94.948 4.46199H93.24C93.24 5.17129 93.235 5.88529 93.226 6.60399C93.226 7.31329 93.226 8.02729 93.226 8.74599V9.82399C93.226 10.0573 93.324 10.2207 93.52 10.314C93.716 10.398 93.907 10.44 94.094 10.44C94.355 10.44 94.612 10.398 94.864 10.314C94.892 10.2953 94.934 10.2767 94.99 10.258C95.046 10.2393 95.088 10.23 95.116 10.23C95.209 10.23 95.256 10.272 95.256 10.356ZM101.963 7.30399C101.963 6.90269 101.93 6.50129 101.865 6.09999C101.809 5.68929 101.697 5.3113 101.529 4.966C101.37 4.6207 101.137 4.34529 100.829 4.13999C100.521 3.92529 100.12 3.81799 99.625 3.81799C99.158 3.81799 98.776 3.92999 98.477 4.15399C98.188 4.37799 97.959 4.6673 97.791 5.022C97.632 5.3767 97.52 5.75929 97.455 6.16999C97.399 6.58069 97.371 6.96799 97.371 7.33199C97.371 7.73329 97.399 8.1347 97.455 8.536C97.52 8.9373 97.637 9.30129 97.805 9.62799C97.973 9.94529 98.211 10.202 98.519 10.398C98.836 10.594 99.242 10.692 99.737 10.692C100.222 10.692 100.61 10.5893 100.899 10.384C101.198 10.1787 101.422 9.90799 101.571 9.57199C101.73 9.23599 101.832 8.872 101.879 8.48C101.935 8.0787 101.963 7.68669 101.963 7.30399ZM103.405 7.34599C103.405 8.04599 103.237 8.67599 102.901 9.23599C102.574 9.79599 102.126 10.2393 101.557 10.566C100.997 10.8927 100.367 11.056 99.667 11.056C98.986 11.056 98.37 10.8927 97.819 10.566C97.268 10.23 96.83 9.78669 96.503 9.23599C96.176 8.67599 96.013 8.05529 96.013 7.37399C96.013 6.67399 96.172 6.02999 96.489 5.44199C96.806 4.84469 97.24 4.36399 97.791 3.99999C98.351 3.63599 98.995 3.45399 99.723 3.45399C100.507 3.45399 101.174 3.62199 101.725 3.95799C102.276 4.28469 102.691 4.74199 102.971 5.32999C103.26 5.90869 103.405 6.58069 103.405 7.34599ZM115.965 2.73999C115.965 2.82399 115.932 2.89399 115.867 2.94999C115.811 2.99669 115.745 3.01999 115.671 3.01999C115.577 3.01999 115.517 3.00129 115.489 2.96399C115.461 2.91729 115.433 2.85669 115.405 2.78199C115.246 2.27799 115.003 1.90469 114.677 1.66199C114.35 1.41929 113.916 1.29799 113.375 1.29799H110.827V5.51199C111.256 5.50269 111.685 5.49799 112.115 5.49799C112.544 5.48869 112.973 5.46529 113.403 5.42799C113.683 5.40929 113.958 5.37669 114.229 5.32999C114.499 5.28329 114.77 5.23669 115.041 5.18999H115.069C115.087 5.18999 115.106 5.19929 115.125 5.21799C115.153 5.22729 115.167 5.24129 115.167 5.25999C115.167 5.32529 115.134 5.44199 115.069 5.60999C115.003 5.76869 114.957 5.88069 114.929 5.94599C114.882 6.05799 114.812 6.11399 114.719 6.11399C114.653 6.11399 114.583 6.11399 114.509 6.11399C114.443 6.10469 114.373 6.09529 114.299 6.08599C113.972 6.04869 113.641 6.02999 113.305 6.02999C112.978 6.02069 112.651 6.01599 112.325 6.01599C112.203 6.01599 112.059 6.01599 111.891 6.01599C111.723 6.01599 111.555 6.02999 111.387 6.05799C111.228 6.08599 111.093 6.14669 110.981 6.23999C110.878 6.32399 110.827 6.4547 110.827 6.632V9.79599C110.827 9.89869 110.85 9.99669 110.897 10.09C110.953 10.174 111.018 10.2533 111.093 10.328C111.233 10.4493 111.405 10.524 111.611 10.552C111.825 10.5707 112.021 10.58 112.199 10.58C112.329 10.58 112.395 10.65 112.395 10.79C112.395 10.9393 112.311 11.014 112.143 11.014C111.993 11.014 111.839 11.0093 111.681 11C111.522 10.9813 111.363 10.972 111.205 10.972C111.018 10.972 110.827 10.972 110.631 10.972C110.444 10.9627 110.257 10.958 110.071 10.958C109.753 10.958 109.436 10.972 109.119 11C108.811 11.0187 108.493 11.028 108.167 11.028C108.129 11.028 108.087 11.014 108.041 10.986C108.003 10.9487 107.985 10.9067 107.985 10.86C107.985 10.7947 107.989 10.7433 107.999 10.706C108.017 10.6593 108.064 10.6313 108.139 10.622C108.213 10.6033 108.293 10.594 108.377 10.594C108.461 10.5847 108.54 10.5753 108.615 10.566C108.96 10.4913 109.175 10.356 109.259 10.16C109.352 9.9547 109.399 9.69329 109.399 9.37599V1.88599C109.399 1.67129 109.324 1.5313 109.175 1.466C109.025 1.4007 108.848 1.36799 108.643 1.36799C108.447 1.36799 108.279 1.36799 108.139 1.36799C107.961 1.36799 107.873 1.28869 107.873 1.12999C107.873 1.05529 107.882 0.98999 107.901 0.93399C107.929 0.87799 107.985 0.849991 108.069 0.849991C108.237 0.849991 108.405 0.854691 108.573 0.863991C108.75 0.873291 108.923 0.877991 109.091 0.877991H111.555C112.021 0.877991 112.488 0.873291 112.955 0.863991C113.431 0.845291 113.902 0.835991 114.369 0.835991C114.798 0.835991 115.227 0.821991 115.657 0.793991C115.703 1.07399 115.764 1.40069 115.839 1.77399C115.923 2.14729 115.965 2.46929 115.965 2.73999ZM121.164 9.36199C121.126 8.94199 121.103 8.52199 121.094 8.10199C121.094 7.67269 121.089 7.2433 121.08 6.814H120.884C120.594 6.814 120.272 6.86069 119.918 6.95399C119.572 7.03799 119.241 7.16869 118.924 7.34599C118.606 7.52329 118.345 7.74729 118.14 8.01799C117.944 8.27929 117.846 8.58269 117.846 8.92799C117.846 9.37599 117.972 9.71669 118.224 9.94999C118.476 10.174 118.816 10.286 119.246 10.286C119.451 10.286 119.675 10.2393 119.918 10.146C120.16 10.0433 120.394 9.92199 120.618 9.78199C120.842 9.64199 121.024 9.50199 121.164 9.36199ZM123.614 10.258C123.614 10.2953 123.609 10.3233 123.6 10.342C123.506 10.5473 123.348 10.706 123.124 10.818C122.909 10.9207 122.694 10.972 122.48 10.972C122.088 10.972 121.803 10.86 121.626 10.636C121.458 10.4027 121.322 10.118 121.22 9.78199C120.865 10.1087 120.473 10.384 120.044 10.608C119.614 10.8227 119.152 10.93 118.658 10.93C118.312 10.93 117.986 10.8647 117.678 10.734C117.379 10.594 117.136 10.3933 116.95 10.132C116.763 9.8707 116.67 9.55329 116.67 9.17999C116.67 8.78799 116.768 8.45199 116.964 8.17199C117.169 7.88269 117.426 7.63999 117.734 7.44399C118.051 7.23869 118.387 7.07529 118.742 6.95399C119.106 6.82329 119.446 6.7253 119.764 6.66C119.978 6.6133 120.198 6.57129 120.422 6.53399C120.646 6.49669 120.865 6.45929 121.08 6.42199C121.08 6.16069 121.066 5.85729 121.038 5.51199C121.019 5.16669 120.949 4.88199 120.828 4.65799C120.706 4.44329 120.543 4.25199 120.338 4.08399C120.132 3.91599 119.904 3.83199 119.652 3.83199C119.222 3.83199 118.886 3.94399 118.644 4.16799C118.401 4.39199 118.228 4.7093 118.126 5.12C118.116 5.1667 118.107 5.21799 118.098 5.27399C118.098 5.32069 118.093 5.36729 118.084 5.41399C118.074 5.46999 118.037 5.52129 117.972 5.56799C117.916 5.60529 117.855 5.62399 117.79 5.62399C117.612 5.62399 117.449 5.58199 117.3 5.49799C117.16 5.41399 117.09 5.274 117.09 5.078C117.09 4.966 117.108 4.86799 117.146 4.78399C117.267 4.49469 117.463 4.25669 117.734 4.06999C118.004 3.87399 118.303 3.72469 118.63 3.62199C118.966 3.51929 119.278 3.46799 119.568 3.46799C120.072 3.46799 120.529 3.56129 120.94 3.74799C121.35 3.93469 121.677 4.20999 121.92 4.57399C122.172 4.92869 122.298 5.37669 122.298 5.91799C122.298 6.52469 122.293 7.13599 122.284 7.75199C122.284 8.36799 122.302 8.98399 122.34 9.59999C122.349 9.80529 122.391 9.9873 122.466 10.146C122.54 10.2953 122.694 10.37 122.928 10.37C123.049 10.37 123.175 10.342 123.306 10.286C123.446 10.2207 123.534 10.188 123.572 10.188C123.6 10.188 123.614 10.2113 123.614 10.258ZM129.801 4.76999C129.801 4.86329 129.764 4.952 129.689 5.036C129.624 5.1107 129.54 5.14799 129.437 5.14799C129.297 5.14799 129.194 5.1013 129.129 5.008C129.073 4.9147 129.022 4.80729 128.975 4.68599C128.938 4.56469 128.877 4.45729 128.793 4.36399C128.709 4.27069 128.569 4.22399 128.373 4.22399C128.336 4.22399 128.298 4.22399 128.261 4.22399C128.233 4.22399 128.2 4.22869 128.163 4.23799C128.004 4.26599 127.832 4.36399 127.645 4.53199C127.458 4.69999 127.276 4.90069 127.099 5.134C126.931 5.358 126.791 5.58199 126.679 5.80599C126.567 6.02999 126.506 6.21669 126.497 6.36599C126.488 6.51529 126.483 6.6647 126.483 6.814C126.483 6.954 126.483 7.09399 126.483 7.23399C126.483 7.73799 126.483 8.24199 126.483 8.74599C126.492 9.24999 126.497 9.7493 126.497 10.244C126.497 10.384 126.553 10.4867 126.665 10.552C126.786 10.608 126.908 10.636 127.029 10.636C127.122 10.636 127.216 10.6313 127.309 10.622C127.402 10.6127 127.496 10.608 127.589 10.608C127.636 10.608 127.668 10.6313 127.687 10.678C127.706 10.7153 127.715 10.7527 127.715 10.79C127.715 10.9393 127.64 11.014 127.491 11.014C127.211 11.014 126.931 11.0093 126.651 11C126.371 10.9813 126.091 10.972 125.811 10.972C125.522 10.972 125.228 10.9813 124.929 11C124.64 11.0187 124.346 11.028 124.047 11.028C124.01 11.028 123.982 11 123.963 10.944C123.954 10.888 123.949 10.8413 123.949 10.804C123.949 10.7107 123.986 10.6593 124.061 10.65C124.164 10.6313 124.271 10.6267 124.383 10.636C124.495 10.6453 124.598 10.65 124.691 10.65C124.831 10.65 124.943 10.622 125.027 10.566C125.12 10.5007 125.172 10.3933 125.181 10.244C125.2 9.9453 125.209 9.64199 125.209 9.33399C125.218 9.02599 125.223 8.718 125.223 8.41V7.05199C125.214 6.65069 125.209 6.25399 125.209 5.86199C125.218 5.46069 125.204 5.06399 125.167 4.67199C125.158 4.48529 125.106 4.35469 125.013 4.27999C124.92 4.19599 124.78 4.15399 124.593 4.15399C124.518 4.15399 124.439 4.16329 124.355 4.18199C124.28 4.19129 124.201 4.19599 124.117 4.19599C124.042 4.19599 124.005 4.13999 124.005 4.02799C124.005 3.96269 124.038 3.91599 124.103 3.88799C124.196 3.85999 124.294 3.84129 124.397 3.83199C124.5 3.81329 124.598 3.79929 124.691 3.78999C124.943 3.74329 125.195 3.69669 125.447 3.64999C125.699 3.60329 125.951 3.54729 126.203 3.48199C126.287 3.50999 126.348 3.56129 126.385 3.63599C126.404 3.67329 126.418 3.77599 126.427 3.94399C126.436 4.11199 126.441 4.30799 126.441 4.53199C126.441 4.74669 126.441 4.95199 126.441 5.14799C126.441 5.33469 126.441 5.46529 126.441 5.53999C126.646 5.21329 126.88 4.88669 127.141 4.55999C127.402 4.23329 127.701 3.96269 128.037 3.74799C128.373 3.53329 128.751 3.42599 129.171 3.42599C129.395 3.42599 129.54 3.49599 129.605 3.63599C129.67 3.77599 129.712 3.93929 129.731 4.12599C129.75 4.22869 129.764 4.33599 129.773 4.44799C129.792 4.55999 129.801 4.66729 129.801 4.76999ZM142.686 10.818C142.686 10.9487 142.634 11.014 142.532 11.014C142.27 11.014 142.004 11.0047 141.734 10.986C141.463 10.9673 141.192 10.958 140.922 10.958C140.651 10.958 140.376 10.9673 140.096 10.986C139.825 11.0047 139.554 11.014 139.284 11.014C139.246 11.014 139.218 10.9907 139.2 10.944C139.19 10.8973 139.186 10.86 139.186 10.832C139.186 10.748 139.228 10.6967 139.312 10.678C139.405 10.6593 139.503 10.6547 139.606 10.664C139.718 10.6733 139.802 10.678 139.858 10.678C139.988 10.678 140.096 10.6453 140.18 10.58C140.264 10.5147 140.306 10.4167 140.306 10.286C140.306 9.6607 140.31 9.04 140.32 8.424C140.338 7.808 140.348 7.19199 140.348 6.57599C140.348 6.47329 140.348 6.37069 140.348 6.26799C140.348 6.16529 140.343 6.06269 140.334 5.95999C140.324 5.73599 140.31 5.50729 140.292 5.27399C140.282 5.03129 140.245 4.80729 140.18 4.60199C140.114 4.38729 140.002 4.21469 139.844 4.08399C139.685 3.95329 139.456 3.88799 139.158 3.88799C138.943 3.88799 138.705 3.95329 138.444 4.08399C138.192 4.20529 137.949 4.34999 137.716 4.51799C137.482 4.68599 137.286 4.8447 137.128 4.994C137.146 5.1247 137.156 5.25999 137.156 5.39999C137.156 5.53069 137.156 5.66129 137.156 5.79199C137.156 6.06269 137.156 6.33799 137.156 6.61799C137.165 6.88869 137.17 7.15929 137.17 7.42999C137.17 7.90599 137.165 8.38199 137.156 8.85799C137.156 9.33399 137.156 9.81 137.156 10.286C137.156 10.426 137.216 10.524 137.338 10.58C137.459 10.636 137.58 10.664 137.702 10.664C137.776 10.664 137.851 10.6593 137.926 10.65C138.01 10.6407 138.084 10.636 138.15 10.636C138.196 10.636 138.224 10.6593 138.234 10.706C138.252 10.7527 138.262 10.79 138.262 10.818C138.262 10.8647 138.248 10.9113 138.22 10.958C138.192 10.9953 138.15 11.014 138.094 11.014C137.832 11.014 137.566 11.0047 137.296 10.986C137.034 10.9673 136.768 10.958 136.498 10.958C136.236 10.958 135.97 10.9673 135.7 10.986C135.429 11.0047 135.158 11.014 134.888 11.014C134.85 11.014 134.822 10.9907 134.804 10.944C134.785 10.8973 134.776 10.86 134.776 10.832C134.776 10.7573 134.813 10.706 134.888 10.678C134.962 10.6593 135.051 10.6547 135.154 10.664C135.266 10.6733 135.359 10.678 135.434 10.678C135.564 10.678 135.672 10.65 135.756 10.594C135.849 10.5287 135.896 10.426 135.896 10.286V6.716C135.896 6.52 135.891 6.27729 135.882 5.98799C135.882 5.69869 135.863 5.414 135.826 5.134C135.798 4.8447 135.746 4.61599 135.672 4.44799C135.606 4.27999 135.494 4.14929 135.336 4.05599C135.186 3.96269 135.018 3.91599 134.832 3.91599C134.589 3.91599 134.342 3.97669 134.09 4.09799C133.838 4.21929 133.6 4.36869 133.376 4.54599C133.152 4.72329 132.96 4.9007 132.802 5.078V10.272C132.802 10.412 132.853 10.5147 132.956 10.58C133.058 10.636 133.17 10.664 133.292 10.664C133.366 10.664 133.441 10.6593 133.516 10.65C133.59 10.6313 133.66 10.622 133.726 10.622C133.763 10.622 133.786 10.65 133.796 10.706C133.805 10.7527 133.81 10.7853 133.81 10.804C133.81 10.8507 133.796 10.8973 133.768 10.944C133.749 10.9813 133.712 11 133.656 11C133.478 11 133.301 10.9953 133.124 10.986C132.946 10.9673 132.769 10.958 132.592 10.958C132.237 10.958 131.882 10.9673 131.528 10.986C131.173 10.9953 130.818 11 130.464 11C130.426 11 130.398 10.9767 130.38 10.93C130.361 10.8833 130.352 10.846 130.352 10.818C130.352 10.706 130.398 10.65 130.492 10.65C130.594 10.65 130.692 10.6547 130.786 10.664C130.879 10.664 130.972 10.664 131.066 10.664C131.196 10.664 131.308 10.636 131.402 10.58C131.495 10.5147 131.542 10.412 131.542 10.272C131.542 9.3293 131.537 8.38669 131.528 7.44399C131.528 6.49199 131.528 5.54469 131.528 4.60199C131.528 4.49929 131.518 4.39669 131.5 4.29399C131.481 4.19129 131.42 4.12129 131.318 4.08399C131.252 4.05599 131.182 4.04199 131.108 4.04199C130.986 4.04199 130.865 4.06069 130.744 4.09799C130.622 4.12599 130.496 4.13999 130.366 4.13999C130.282 4.13999 130.24 4.08399 130.24 3.97199C130.24 3.89729 130.268 3.85069 130.324 3.83199C130.37 3.81329 130.422 3.80399 130.478 3.80399C130.543 3.79469 130.604 3.78529 130.66 3.77599C130.874 3.74799 131.089 3.71529 131.304 3.67799C131.528 3.63129 131.742 3.58469 131.948 3.53799C132.022 3.51929 132.102 3.50069 132.186 3.48199C132.27 3.46329 132.354 3.45399 132.438 3.45399C132.55 3.45399 132.624 3.53799 132.662 3.70599C132.708 3.86469 132.732 4.03729 132.732 4.22399C132.741 4.41069 132.746 4.54599 132.746 4.62999C132.942 4.46199 133.161 4.28929 133.404 4.11199C133.646 3.92529 133.903 3.76669 134.174 3.63599C134.444 3.50529 134.715 3.43999 134.986 3.43999C135.462 3.43999 135.863 3.51929 136.19 3.67799C136.516 3.83669 136.796 4.13529 137.03 4.57399C137.235 4.39669 137.468 4.21929 137.73 4.04199C137.991 3.85529 138.262 3.70129 138.542 3.57999C138.831 3.44929 139.116 3.384 139.396 3.384C140.012 3.384 140.478 3.47269 140.796 3.64999C141.122 3.82729 141.342 4.10269 141.454 4.47599C141.575 4.83999 141.636 5.31129 141.636 5.88999C141.636 6.61799 141.631 7.35069 141.622 8.08799C141.612 8.81599 141.608 9.5487 141.608 10.286C141.608 10.426 141.668 10.524 141.79 10.58C141.92 10.636 142.046 10.664 142.168 10.664C142.242 10.664 142.312 10.6593 142.378 10.65C142.452 10.6407 142.522 10.636 142.588 10.636C142.625 10.636 142.648 10.6593 142.658 10.706C142.676 10.7527 142.686 10.79 142.686 10.818Z" fill="#4E301B"/>
</svg>
