<?xml version="1.0" encoding="utf-8"?>
<!-- Generator: Adobe Illustrator 27.5.0, SVG Export Plug-In . SVG Version: 6.00 Build 0)  -->
<svg version="1.1" id="Layer_1" xmlns="http://www.w3.org/2000/svg" xmlns:xlink="http://www.w3.org/1999/xlink" x="0px" y="0px"
	 viewBox="0 0 3000 3000" style="enable-background:new 0 0 3000 3000;" xml:space="preserve">
<g>
	<g>
		<g>
			<g>
				<path style="fill:#C18440;" d="M1387.972,1329.74l1399.037,0.617c0,0-4.83,24.551-20.709,29.421
					c-15.879,4.869-1.916-0.04-1.916-0.04l-1355.316-2.485C1409.068,1357.252,1388.445,1346.636,1387.972,1329.74z"/>
			</g>
			<g>
				<g>
					<path style="fill:#C18440;" d="M2766.3,1359.777l-1355.207-0.598c-12.756-0.006-23.128-13.213-23.121-29.44l0.001-3.488
						c0.004-9.208,3.289-17.706,9.013-23.321c4.167-4.089,9.164-6.17,14.453-6.096c166.582,3.157,1233.771,3.997,1354.909,4.081
						c12.744,0.01,23.106,13.218,23.098,29.442C2789.44,1346.585,2779.057,1359.783,2766.3,1359.777z M1411.09,1299.27
						c-4.506-0.002-8.787,1.86-12.397,5.402c-5.258,5.157-8.277,13.023-8.281,21.58l-0.002,3.488
						c-0.006,14.884,9.272,26.996,20.684,27.001l1355.207,0.598c11.412,0.005,20.701-12.099,20.708-26.982
						c0.006-14.879-9.262-26.993-20.662-27.003c-121.141-0.084-1188.351-0.924-1354.954-4.081
						C1411.292,1299.271,1411.191,1299.27,1411.09,1299.27z"/>
					<path style="fill:#191919;" d="M2766.308,1360.33c-0.003,0-0.004,0-0.008,0l-1355.207-0.598
						c-6.343-0.003-12.302-3.145-16.781-8.848c-4.448-5.664-6.896-13.173-6.892-21.145l0.002-3.488
						c0.004-9.354,3.349-17.997,9.178-23.714c4.248-4.168,9.383-6.312,14.847-6.254c166.901,3.163,1233.798,3.996,1354.902,4.081
						c13.048,0.011,23.657,13.466,23.651,29.994C2789.992,1346.886,2779.365,1360.33,2766.308,1360.33z M2766.301,1359.225
						c0.002,0,0.005,0,0.008,0c12.448,0,22.58-12.948,22.587-28.868c0.006-15.92-10.108-28.88-22.546-28.89
						c-121.105-0.085-1188.013-0.918-1354.921-4.081c-5.163-0.07-10.022,1.981-14.055,5.938c-5.619,5.511-8.844,13.867-8.847,22.927
						l-0.002,3.488c-0.003,7.725,2.361,14.992,6.657,20.462c4.265,5.431,9.916,8.423,15.913,8.426L2766.301,1359.225z
						 M2766.308,1357.892c-0.002,0-0.003,0-0.006,0l-1355.208-0.598c-5.696-0.003-11.045-2.892-15.062-8.137
						c-3.985-5.201-6.177-12.097-6.174-19.416l0.002-3.488c0.004-8.704,3.083-16.713,8.447-21.975
						c3.708-3.637,8.126-5.56,12.776-5.56c0.003,0,0.005,0,0.008,0l0.318,0.003c166.915,3.162,1233.834,3.996,1354.94,4.081
						c11.704,0.01,21.219,12.371,21.213,27.555C2787.555,1345.541,2778.021,1357.891,2766.308,1357.892z M1411.082,1299.823
						c-4.355,0-8.505,1.813-12.003,5.244c-5.154,5.055-8.112,12.777-8.115,21.187l-0.002,3.488
						c-0.003,7.078,2.109,13.734,5.946,18.744c3.804,4.966,8.843,7.702,14.187,7.704l1355.207,0.598c0.002,0,0.005,0,0.006,0
						c11.104,0.001,20.142-11.854,20.149-26.43c0.006-14.575-9.015-26.441-20.109-26.45
						c-121.108-0.085-1188.036-0.918-1354.965-4.081l-0.293-0.003C1411.087,1299.823,1411.084,1299.823,1411.082,1299.823z"/>
				</g>
			</g>
		</g>
		<g>
			<g>
				<path style="fill:#C18440;stroke:#191919;stroke-miterlimit:10;" d="M2646.034,1163.816c-8.216-0.784-16.507,1.651-22.166,6.476
					c-4.195,3.607-6.684,8.335-6.955,13.285l-22.675,385.76l-252.904,199.82l1.438,1.976l302.838-201.724l0.488-0.341
					l22.893-383.492C2669.655,1174.676,2659.565,1165.114,2646.034,1163.816z M2643.734,1567.725l-277.303,184.716l229.733-181.544
					l0.439-0.341l22.724-386.832c0.27-4.291,2.442-8.386,6.125-11.579c4.537-3.851,10.926-6.042,17.533-6.039
					c0.927,0,1.877,0.05,2.828,0.147c12.19,1.151,21.33,9.592,20.741,19.173L2643.734,1567.725z"/>
			</g>
			<g>
				<path style="fill:#C18440;" d="M2666.554,1185.427l-22.819,382.298l-277.303,184.716l229.733-181.544l0.439-0.341
					l22.724-386.832c0.27-4.291,2.442-8.386,6.125-11.579c4.537-3.851,10.926-6.042,17.533-6.039c0.927,0,1.877,0.05,2.828,0.147
					C2658.003,1167.406,2667.143,1175.846,2666.554,1185.427z"/>
				<path style="fill:#191919;" d="M2366.738,1752.901l-0.648-0.893l229.977-181.734l22.709-386.582
					c0.278-4.427,2.521-8.675,6.314-11.964c4.625-3.925,11.141-6.174,17.883-6.174c0.004,0,0.008,0,0.012,0
					c0.951,0,1.922,0.051,2.885,0.15c12.514,1.182,21.843,9.86,21.235,19.756l-22.835,382.572l-0.229,0.152L2366.738,1752.901z
					 M2642.973,1166.659c-6.484,0-12.74,2.153-17.164,5.908c-3.563,3.09-5.671,7.066-5.93,11.192l-22.738,387.08l-0.637,0.494
					l-219.054,173.106l265.751-177.022l22.803-382.024c0.573-9.298-8.318-17.463-20.241-18.589
					c-0.931-0.097-1.863-0.145-2.776-0.146C2642.98,1166.659,2642.976,1166.659,2642.973,1166.659z"/>
			</g>
		</g>
		<g>
			<g>
				<path style="fill:#C18440;stroke:#191919;stroke-miterlimit:10;" d="M2600.296,1156.603c-9.386-2.296-19.286-0.472-26.481,4.84
					c-5.268,3.899-8.367,9.237-8.687,15.016l-22.382,386.662l-201.778,206.45l1.633,1.805l252.027-202.38l24.92-390.416
					C2620.187,1168.559,2612.267,1159.51,2600.296,1156.603z M2617.11,1178.432l-24.846,389.319l-235.393,189.051l187.923-192.29
					l0.317-0.341l22.456-387.589c0.271-5.022,3.028-9.703,7.686-13.163c4.707-3.484,10.852-5.335,17.118-5.332
					c2.463,0.001,4.925,0.294,7.339,0.881C2610.535,1161.606,2617.675,1169.607,2617.11,1178.432z"/>
			</g>
			<g>
				<path style="fill:#C18440;" d="M2617.11,1178.432l-24.846,389.319l-235.393,189.051l187.923-192.29l0.317-0.341l22.456-387.589
					c0.271-5.022,3.028-9.703,7.686-13.163c4.707-3.484,10.852-5.335,17.118-5.332c2.463,0.001,4.925,0.294,7.339,0.881
					C2610.535,1161.606,2617.675,1169.607,2617.11,1178.432z"/>
				<path style="fill:#191919;" d="M2357.218,1757.232l-0.741-0.817l187.923-192.29l0.173-0.185l22.444-387.39
					c0.277-5.171,3.086-9.993,7.908-13.574c4.739-3.509,10.929-5.441,17.433-5.441c0.005,0,0.01,0,0.014,0
					c2.512,0.001,5.025,0.303,7.469,0.896c11.074,2.699,18.402,10.938,17.821,20.036l-24.861,389.562l-0.19,0.152L2357.218,1757.232
					z M2592.357,1158.64c-6.268,0-12.225,1.855-16.775,5.223c-4.553,3.381-7.204,7.91-7.464,12.749l-22.467,387.788l-0.453,0.488
					l-181.52,185.738l228.049-183.152l24.831-389.076c0.547-8.554-6.436-16.323-16.979-18.893c-2.359-0.573-4.785-0.864-7.208-0.865
					C2592.367,1158.64,2592.362,1158.64,2592.357,1158.64z"/>
			</g>
		</g>
		<g>
			<g>
				<path style="fill:#C18440;stroke:#191919;stroke-miterlimit:10;" d="M2578.685,956.175c-4.728-5.122-11.992-8.051-19.916-8.055
					c-13.264-0.006-24.117,8.304-24.756,18.909l-42.511,583.317l-150.411,219.078l1.877,1.537l202.095-206.766l0.317-0.341
					l38.103-594.632C2583.85,964.564,2582.146,959.907,2578.685,956.175z M2581.044,969.05l-38.054,593.755l-191.899,196.36
					l142.628-207.695l0.171-0.268l42.56-584.024c0.541-9.314,10.345-16.624,22.317-16.619c7.144,0.003,13.921,2.713,18.113,7.274
					C2579.926,961.101,2581.363,965.002,2581.044,969.05z"/>
			</g>
			<g>
				<path style="fill:#C18440;" d="M2581.044,969.05l-38.054,593.755l-191.899,196.36l142.628-207.695l0.171-0.268l42.56-584.024
					c0.541-9.314,10.345-16.624,22.317-16.619c7.144,0.003,13.921,2.713,18.113,7.274
					C2579.926,961.101,2581.363,965.002,2581.044,969.05z"/>
				<path style="fill:#191919;" d="M2351.487,1759.55l-0.85-0.699l142.628-207.694l0.085-0.134l42.549-583.886
					c0.558-9.604,10.596-17.131,22.855-17.131c0.005,0,0.008,0,0.013,0c7.311,0.003,14.234,2.789,18.52,7.452
					c3.148,3.379,4.639,7.401,4.309,11.628l-38.068,593.958l-0.144,0.147L2351.487,1759.55z M2558.754,951.11
					c-11.675,0-21.228,7.069-21.752,16.098l-42.571,584.171l-0.245,0.385L2355.17,1754.2l187.281-191.635l38.043-593.559
					c0.307-3.913-1.082-7.647-4.019-10.798c-4.083-4.442-10.701-7.095-17.709-7.098
					C2558.763,951.11,2558.757,951.11,2558.754,951.11z"/>
			</g>
		</g>
	</g>
	<g>
		<path style="fill:#0B3811;" d="M415.291,1404.266h200.881v54.37H508.261v62.672h94.63v59.766h-94.63v116.628h-92.97V1404.266z"/>
		<path style="fill:#0B3811;" d="M867.274,1697.702H756.457l-13.697-62.464h-72.84l-13.074,62.464h-74.915l74.708-293.436h129.909
			L867.274,1697.702z M707.274,1449.921l-28.431,136.757h59.351l-24.488-136.757H707.274z"/>
		<path style="fill:#0B3811;" d="M904.628,1404.266h131.984c20.889,0,39.29,2.734,55.201,8.197
			c15.907,5.467,29.157,12.659,39.741,21.582c10.583,8.924,18.573,19.025,23.969,30.298c5.396,11.278,8.093,22.656,8.093,34.138
			c0,8.995-0.901,17.882-2.698,26.666c-1.8,8.787-4.98,17.089-9.546,24.903c-4.565,7.818-10.827,14.873-18.78,21.167
			c-7.957,6.297-18.091,11.382-30.402,15.254c1.796,5.81,4.841,13.005,9.131,21.582c4.287,8.579,9.267,17.847,14.942,27.808
			c5.671,9.961,11.757,20.269,18.262,30.921c6.501,10.655,12.866,20.96,19.092,30.921h-106.251
			c-5.95-13.418-12.036-28.463-18.262-45.136c-6.225-16.67-11.206-34.828-14.942-54.474h-26.563v99.61h-92.97V1404.266z
			 M1013.369,1551.606c10.512,0,19.403-1.382,26.667-4.151c7.263-2.766,13.177-6.362,17.743-10.792
			c4.565-4.426,7.85-9.407,9.857-14.941c2.004-5.532,3.009-11.067,3.009-16.602c0-10.927-1.524-19.851-4.566-26.77
			c-3.044-6.916-7.195-12.347-12.451-16.29c-5.259-3.943-11.345-6.605-18.262-7.989c-6.919-1.382-14.319-2.075-22.205-2.075h-15.564
			v99.61H1013.369z"/>
		<path style="fill:#0B3811;" d="M1206.78,1404.266h86.329l73.048,114.138l73.048-114.138h88.404v293.436h-95.045v-159.377
			l-68.482,116.004h-20.13l-70.765-116.004v159.377h-66.407V1404.266z"/>
		<path style="fill:#0B3811;" d="M1598.582,1404.266h205.862v54.37h-112.892v62.05h99.611v53.125h-99.611v64.125h112.892v59.766
			h-205.862V1404.266z"/>
		<path style="fill:#0B3811;" d="M1872.095,1404.266h131.984c20.889,0,39.29,2.734,55.201,8.197
			c15.907,5.467,29.157,12.659,39.741,21.582c10.583,8.924,18.573,19.025,23.969,30.298c5.395,11.278,8.093,22.656,8.093,34.138
			c0,8.995-0.902,17.882-2.698,26.666c-1.8,8.787-4.981,17.089-9.546,24.903c-4.566,7.818-10.827,14.873-18.781,21.167
			c-7.957,6.297-18.091,11.382-30.402,15.254c1.796,5.81,4.841,13.005,9.13,21.582c4.286,8.579,9.268,17.847,14.942,27.808
			c5.67,9.961,11.757,20.269,18.262,30.921c6.501,10.655,12.866,20.96,19.092,30.921h-106.251
			c-5.95-13.418-12.036-28.463-18.262-45.136c-6.226-16.67-11.206-34.828-14.941-54.474h-26.563v99.61h-92.97V1404.266z
			 M1980.837,1551.606c10.512,0,19.403-1.382,26.667-4.151c7.263-2.766,13.177-6.362,17.743-10.792
			c4.566-4.426,7.85-9.407,9.858-14.941c2.004-5.532,3.008-11.067,3.008-16.602c0-10.927-1.523-19.851-4.565-26.77
			c-3.045-6.916-7.195-12.347-12.452-16.29c-5.259-3.943-11.346-6.605-18.262-7.989c-6.919-1.382-14.319-2.075-22.204-2.075h-15.564
			v99.61H1980.837z"/>
		<path style="fill:#0B3811;" d="M2383.637,1480.426c-5.675-2.491-12.279-5.013-19.818-7.574
			c-7.542-2.558-15.427-4.877-23.657-6.953c-8.232-2.075-16.569-3.768-25.007-5.083c-8.44-1.314-16.394-1.972-23.865-1.972
			c-13.006,0-23.174,1.66-30.505,4.98c-7.334,3.321-10.999,8.923-10.999,16.809c0,3.736,1.277,7.024,3.839,9.858
			c2.559,2.838,6.19,5.468,10.895,7.886c4.702,2.423,10.341,4.773,16.913,7.056c6.57,2.282,13.869,4.669,21.894,7.159l15.149,4.774
			c12.727,3.874,24.141,8.544,34.241,14.007c10.098,5.468,18.642,11.9,25.629,19.3c6.984,7.403,12.348,15.876,16.083,25.422
			c3.735,9.546,5.603,20.409,5.603,32.581c0,14.251-2.251,27.221-6.745,38.91c-4.498,11.693-11.517,21.687-21.064,29.988
			c-9.546,8.3-21.757,14.734-36.627,19.299c-14.874,4.566-32.756,6.848-53.645,6.848c-18.54,0-36.975-1.523-55.305-4.565
			c-18.333-3.042-36.835-8.369-55.512-15.98v-68.483c17.848,9.132,35.176,15.808,51.985,20.027
			c16.809,4.222,33.375,6.329,49.702,6.329c13.417,0,23.206-2.143,29.364-6.433c6.154-4.287,9.234-10.237,9.234-17.848
			c0-4.565-1.141-8.473-3.423-11.725c-2.283-3.249-5.951-6.258-10.999-9.027c-5.052-2.766-11.656-5.568-19.819-8.405
			c-8.165-2.835-18.055-6.051-29.676-9.65c-11.621-3.456-22.379-7.815-32.269-13.074c-9.893-5.256-18.438-11.585-25.629-18.988
			c-7.195-7.399-12.834-16.011-16.914-25.836c-4.081-9.822-6.121-21.028-6.121-33.618c0-13.003,2.282-24.903,6.848-35.695
			c4.566-10.791,11.55-20.026,20.96-27.704c9.406-7.678,21.339-13.661,35.797-17.951c14.456-4.286,31.648-6.433,51.57-6.433
			c7.886,0,16.255,0.347,25.11,1.038c8.852,0.694,17.879,1.731,27.081,3.113c9.199,1.384,18.294,3.184,27.289,5.395
			c8.992,2.215,17.501,4.845,25.526,7.886L2383.637,1480.426z"/>
	</g>
	<g>
		<path style="fill:#C18440;" d="M415.307,1350.635c-2.136-2.352-3.522-4.323-4.163-5.924c-0.641-1.601-0.696-3.523-0.16-5.764
			c0.531-2.242,1.331-5.394,2.402-9.447c1.706-6.83,3.573-12.539,5.604-17.133c2.026-4.588,4.053-9.392,6.084-14.41
			c2.026-5.013,3.788-11.473,5.284-19.374c3.413-7.896,6.455-15.371,9.127-22.416c2.667-7.045,5.494-15.051,8.486-24.018
			c0.21-0.851,1.171-3.092,2.882-6.725c1.706-3.628,3.893-8.056,6.565-13.29c2.667-5.229,5.174-10.513,7.526-15.852
			c3.627-10.247,6.564-19.054,8.806-26.419c2.241-7.365,4.533-14.036,6.885-20.015c2.347-5.974,5.444-11.849,9.287-17.613
			c2.562-4.483,5.549-7.365,8.967-8.646c3.413-1.281,6.67-1.226,9.767,0.16c3.092,1.391,5.284,4.218,6.564,8.486
			c1.066,2.137,1.972,4.698,2.722,7.686c0.746,2.992,1.441,7.315,2.082,12.969c0.641,5.66,1.066,13.61,1.281,23.857
			c0.426,12.169,0.531,24.178,0.32,36.026c-0.215,11.849-0.16,22.792,0.16,32.824c0.32,10.038,1.441,18.574,3.363,25.619
			c0.64,3.843,1.546,8.486,2.722,13.93c1.171,5.444,2.452,10.838,3.843,16.172c1.386,5.339,2.772,9.822,4.163,13.45
			c1.386,3.632,2.507,5.444,3.363,5.444c1.066,0,2.507-1.386,4.323-4.163c1.812-2.772,4.163-7.791,7.045-15.051
			c2.883-7.255,6.35-17.558,10.408-30.902c4.053-13.34,8.647-30.473,13.77-51.398c1.066-3.627,2.507-9.497,4.323-17.613
			c1.812-8.111,3.147-16.332,4.003-24.658c1.491-5.334,2.987-11.208,4.483-17.613c1.491-6.404,2.827-12.058,4.003-16.972
			c1.171-4.909,1.761-7.686,1.761-8.326c0-1.491,0.05-2.772,0.16-3.843c0.105-1.066,0.05-2.132-0.16-3.202
			c1.066,0,2.026-1.441,2.882-4.323c0.85-2.882,1.281-5.389,1.281-7.526c0-3.628,0.481-6.565,1.441-8.806
			c0.961-2.242,1.972-3.893,3.042-4.964c0.641-1.706,2.241-2.507,4.804-2.401c2.562,0.11,5.123,0.8,7.686,2.081
			c2.562,1.281,4.163,2.993,4.803,5.124c0.425,2.352-0.16,7.635-1.761,15.851c-1.601,8.221-4.003,19.269-7.206,33.144
			c0,2.352-0.64,6.195-1.921,11.528c-1.281,5.339-2.617,10.998-4.003,16.973c-1.391,5.979-2.402,11.103-3.042,15.371
			c-0.855,5.554-1.816,10.727-2.882,15.531c-1.07,4.804-2.136,7.1-3.202,6.885c-5.554,24.128-11.368,44.673-17.453,61.645
			c-6.084,16.973-11.478,30.798-16.172,41.471c-5.124,11.738-10.728,18.839-16.812,21.295c-6.084,2.452-12.544-0.695-19.374-9.447
			c-4.058-5.55-7.26-11.048-9.607-16.492c-2.352-5.444-4.273-11.849-5.764-19.214c-1.496-7.366-3.312-16.492-5.444-27.38
			c-3.202-8.751-4.963-17.613-5.284-26.579s-0.055-18.198,0.8-27.7c0.851-9.497,1.491-19.374,1.922-29.622
			c-0.215-10.247-0.641-17.077-1.281-20.495c-0.641-3.413-1.871-3.253-3.683,0.481c-1.816,3.737-4.753,11.263-8.806,22.576
			c-1.496,4.058-3.473,8.966-5.924,14.731c-2.457,5.764-4.859,11.478-7.205,17.132c-2.352,5.659-4.378,10.568-6.085,14.731
			c-1.711,4.163-2.777,6.78-3.202,7.846c-1.281,2.562-2.777,5.924-4.483,10.087c-1.711,4.163-3.097,8.597-4.163,13.29
			c-7.686,20.07-13.4,36.081-17.132,48.035c-3.738,11.959-6.46,20.28-8.166,24.978c-2.137,5.974-4.378,9.977-6.725,12.009
			C422.883,1356.344,419.576,1355.118,415.307,1350.635z"/>
		<path style="fill:#C18440;" d="M610.33,1319.252c-0.855-1.706-1.922-3.042-3.202-4.003c-1.281-0.961-1.922-1.866-1.922-2.722
			c0-0.85-0.055-1.761-0.16-2.722c-0.111-0.96-0.591-1.867-1.441-2.722c-1.071-1.281-0.961-4.213,0.32-8.806
			c1.281-4.589,3.413-10.247,6.405-16.973c2.987-6.725,6.51-13.82,10.568-21.296c1.706-1.706,3.412-3.948,5.123-6.725
			c1.706-2.772,2.987-4.589,3.843-5.444c0-0.851,0.32-1.651,0.961-2.402c0.641-0.745,1.386-1.121,2.242-1.121v-1.922
			c0-1.066,1.011-2.882,3.042-5.444c2.026-2.562,4.533-5.389,7.526-8.486c2.987-3.092,6.085-6.084,9.286-8.967
			c3.202-2.882,5.869-4.964,8.006-6.245c4.483-2.987,9.127-4.804,13.93-5.444c4.804-0.64,8.911,0.43,12.329,3.203
			c0.641,0.641,1.706,1.711,3.202,3.202c1.491,1.496,3.253,3.152,5.284,4.964c2.026,1.816,4.108,3.682,6.245,5.604l11.849,10.568
			l-5.764,16.011c-2.777,8.542-3.473,16.012-2.082,22.416c1.386,6.405,3.468,11.959,6.245,16.652
			c1.066,2.352,3.252,4.593,6.565,6.725c3.308,2.136,6.455,3.417,9.447,3.843c1.706,0.215,3.308,0.855,4.804,1.922
			c1.491,1.071,2.241,2.777,2.241,5.123c0,2.137-0.43,3.843-1.281,5.124c-0.855,1.281-2.351,2.136-4.483,2.562
			c-7.045,0.856-13.61-0.85-19.694-5.123c-6.084-4.269-11.688-11.314-16.812-21.135c-0.856-1.281-1.977-3.683-3.363-7.205
			c-1.391-3.523-2.192-5.814-2.402-6.885c-0.855,1.071-2.457,3.042-4.803,5.924c-2.352,2.882-4.163,4.964-5.444,6.245
			c-15.161,15.371-28.236,25.674-39.228,30.902C626.712,1323.685,617.585,1323.95,610.33,1319.252z M628.743,1301.159
			c4.588-1.601,9.552-4.533,14.891-8.806c7.255-6.19,14.571-13.02,21.936-20.495c7.365-7.47,13.29-14.411,17.773-20.816
			l7.045-11.528c-2.136-4.908-4.433-8.271-6.885-10.087c-2.457-1.812-4.538-2.722-6.245-2.722c-2.777,0-6.885,2.562-12.329,7.686
			c-5.444,5.124-11.263,11.959-17.453,20.495c-6.195,8.541-12.064,17.933-17.613,28.181c-2.137,4.273-4.804,10.357-8.006,18.253
			C621.858,1302.815,624.15,1302.76,628.743,1301.159z"/>
		<path style="fill:#C18440;" d="M773.328,1328.539c-2.352-0.426-4.753-1.651-7.206-3.683c-2.457-2.027-4.593-4.373-6.404-7.045
			c-1.816-2.667-3.042-5.069-3.683-7.205c0-0.426-0.536-1.281-1.601-2.562c-0.855-0.64-1.336-3.467-1.441-8.486
			c-0.11-5.014,0.16-10.618,0.801-16.812c0.64-6.19,1.386-11.098,2.241-14.731c1.066-3.412,2.667-8.056,4.804-13.93
			c2.131-5.869,3.948-11.153,5.444-15.851l8.646-18.573l-12.809-3.523c-1.496-0.426-2.722-1.281-3.682-2.562
			c-0.961-1.281-1.441-2.347-1.441-3.203c0-1.706,0.961-3.788,2.882-6.245c1.921-2.452,3.307-3.683,4.163-3.683
			c1.066,0.215,3.042,0.32,5.924,0.32c2.882,0,5.709-0.105,8.486-0.32c2.772-0.21,4.483-0.425,5.124-0.64
			c0.851-0.426,1.706-1.011,2.562-1.761c0.85-0.745,1.491-1.867,1.922-3.363c1.066-2.347,2.026-4.533,2.882-6.564
			c0.851-2.027,2.026-4.323,3.522-6.885c1.491-2.772,2.722-5.123,3.683-7.045c0.961-1.922,2.507-4.588,4.643-8.006
			c1.066-1.491,2.241-3.307,3.522-5.444c1.281-2.131,2.883-3.948,4.804-5.444c1.922-1.706,3.893-2.507,5.924-2.402
			c2.027,0.11,4.643,1.551,7.846,4.323c1.706,2.137,2.667,3.738,2.882,4.804c0.21,1.071-0.641,3.097-2.562,6.084
			c-1.711,3.633-3.683,7.26-5.924,10.888c-2.242,3.633-4.323,7.26-6.245,10.888c-3.418,4.698-4.058,7.366-1.922,8.006
			c2.132,0.641,8.111,0.215,17.933-1.281c6.19-1.066,10.673-0.8,13.45,0.8c2.772,1.601,4.373,4.219,4.804,7.846
			c0.641,5.124,0.105,8.221-1.601,9.287c-1.711,1.071-6.62,1.601-14.731,1.601c-5.124,0.855-9.502,1.336-13.129,1.441
			c-3.633,0.11-6.3,0.16-8.006,0.16c-2.777,0.215-4.593,0.32-5.444,0.32c-0.856,0-2.137,0.215-3.843,0.64
			c-1.711,0.43-2.937,1.121-3.682,2.082c-0.751,0.961-1.551,2.296-2.402,4.003c-0.855,0.856-2.136,3.097-3.843,6.725
			c-1.711,3.632-3.843,7.581-6.405,11.849c-2.992,8.967-5.554,17.883-7.686,26.74c-2.136,8.861-3.843,17.453-5.123,25.778
			c-0.856,5.339-0.751,9.021,0.32,11.048c1.066,2.032,3.843,3.257,8.326,3.683c2.347,0.215,6.135,0.16,11.368-0.16
			c5.229-0.32,9.337-0.906,12.329-1.761c2.346-1.066,4.804-2.187,7.365-3.363c2.562-1.171,4.909-2.401,7.046-3.682
			c1.921-1.066,4.803-2.772,8.646-5.124c1.066-1.706,2.241-2.242,3.522-1.601c1.281,0.641,2.347,2.242,3.202,4.804
			c0,2.562-0.536,5.234-1.601,8.005c-1.07,2.777-5.018,6.084-11.849,9.928c-9.607,5.979-18.413,9.557-26.419,10.728
			C785.656,1329.554,778.877,1329.609,773.328,1328.539z"/>
		<path style="fill:#C18440;" d="M870.036,1320.853c-3.202-0.426-5.924-2.722-8.166-6.885c-2.241-4.163-3.577-7.951-4.003-11.368
			c0.21-1.706,0.481-4.163,0.8-7.365c0.32-3.203,0.691-6.51,1.121-9.928c0.851-4.053,2.026-9.016,3.522-14.891
			c1.491-5.869,3.042-11.794,4.643-17.773c1.601-5.974,3.042-11.098,4.323-15.371c1.281-4.268,2.132-6.83,2.562-7.686
			c1.066-1.706,2.772-2.132,5.123-1.281c2.346,0.855,4.268,2.136,5.764,3.843c1.281,1.711,2.082,3.738,2.402,6.084
			c0.32,2.352,0,5.764-0.961,10.247c-0.961,4.483-2.722,11.103-5.284,19.855c-2.352,8.541-4.113,15.426-5.284,20.655
			c-1.176,5.234-1.656,10.728-1.441,16.492c-0.855,7.26-1.496,11.688-1.921,13.29
			C872.808,1320.372,871.742,1321.068,870.036,1320.853z M906.863,1193.079c-0.855,0.641-1.656,0.911-2.402,0.801
			c-0.751-0.105-1.977-0.691-3.683-1.761c-1.496-0.21-3.363-1.226-5.604-3.042c-2.242-1.812-4.163-3.733-5.764-5.764
			c-1.601-2.027-2.402-3.253-2.402-3.683c-0.215-2.131-0.055-4.853,0.481-8.166c0.531-3.307,1.651-6.295,3.363-8.966
			c1.706-2.667,4.163-4.108,7.365-4.323c0.851,0,1.601,0.11,2.241,0.32c0.641,0.215,2.562,0.96,5.765,2.241
			c1.706,3.202,3.412,6.78,5.123,10.728c1.706,3.953,2.452,7.796,2.242,11.528C913.373,1186.73,911.131,1190.092,906.863,1193.079z"
			/>
		<path style="fill:#C18440;" d="M946.251,1328.859c-2.777,0.215-5.019-0.05-6.725-0.8c-1.711-0.746-3.843-1.866-6.404-3.363
			c-4.698-3.627-8.166-7.31-10.408-11.048c-2.242-3.733-3.257-7.415-3.042-11.048c0.425-1.922,0.32-4.373-0.32-7.365
			c-1.281-1.066-1.711-1.761-1.281-2.082c0.425-0.32,0.745-0.906,0.961-1.761c1.706-0.425,1.922-1.601,0.641-3.522
			c-0.641-1.706-0.27-5.604,1.121-11.688c1.386-6.084,3.253-11.794,5.604-17.133c1.066-2.347,2.612-5.444,4.643-9.287
			c2.027-3.843,4.323-7.735,6.885-11.688c2.562-3.948,4.909-7.095,7.046-9.447c4.693-5.334,8.912-9.337,12.649-12.008
			c3.733-2.667,7.951-4.854,12.65-6.565c4.268-1.706,7.365-2.667,9.287-2.882c1.921-0.21,4.588,1.071,8.005,3.843
			c5.124,1.496,9.017,3.578,11.688,6.245c2.667,2.672,4.749,6.78,6.245,12.329c1.706,6.194,2.292,13.505,1.761,21.936
			c-0.536,8.437-4.218,19.269-11.048,32.504c-4.058,8.326-8.06,14.626-12.009,18.894c-3.953,4.273-8.701,8.756-14.25,13.45
			c-4.058,3.417-7.796,6.084-11.208,8.005C955.322,1326.297,951.159,1327.793,946.251,1328.859z M971.869,1290.751
			c4.268-6.405,7.63-12.329,10.087-17.773c2.452-5.444,4.428-12.329,5.924-20.655c0.425-2.347,0.53-5.284,0.32-8.806
			c-0.215-3.523-0.696-6.775-1.441-9.767c-0.751-2.987-1.761-4.589-3.042-4.804c-2.777-1.066-5.875-1.121-9.287-0.16
			c-3.418,0.961-7.155,3.578-11.208,7.846c-3.632,4.273-6.885,9.077-9.767,14.41c-2.882,5.339-5.499,11.208-7.846,17.613
			c-2.351,6.404-4.593,13.24-6.725,20.495c-2.137,8.116-1.977,14.305,0.48,18.573c2.452,4.273,6.565,5.284,12.329,3.042
			C957.458,1308.524,964.184,1301.854,971.869,1290.751z"/>
		<path style="fill:#C18440;" d="M1126.221,1326.938c-2.137,0-4.323-1.171-6.565-3.523c-2.241-2.346-4.163-5.284-5.764-8.806
			c-1.601-3.523-2.402-6.885-2.402-10.087c0-3.202,0.8-9.177,2.402-17.933c1.601-8.751,3.573-17.613,5.924-26.58
			c1.706-5.549,2.242-8.751,1.601-9.607c-0.64-0.85-3.522,0.32-8.646,3.523c-2.992,1.496-5.659,3.042-8.006,4.643
			c-2.351,1.601-4.378,3.363-6.084,5.284c-1.07,0.855-2.672,2.241-4.803,4.163c-2.137,1.922-4.378,3.738-6.725,5.444
			c-2.777,2.137-6.3,5.124-10.568,8.967c-4.273,3.843-8.486,7.686-12.649,11.529c-4.163,3.843-7.316,6.835-9.447,8.967
			c-0.43,0.855-1.071,1.601-1.922,2.241c-0.855,0.641-1.816,1.016-2.882,1.121c-1.071,0.11-2.241-0.05-3.522-0.48
			c-2.352-0.641-4.538-2.027-6.565-4.163c-2.031-2.132-3.042-4.588-3.042-7.366c0-2.131,0.85-5.814,2.562-11.048
			c1.706-5.229,4.003-11.578,6.885-19.054c2.882-7.47,6.245-15.371,10.087-23.697c0.641-1.066,1.171-2.402,1.601-4.003
			c0.426-1.601,0.8-3.363,1.121-5.284c0.32-1.922,0.48-3.733,0.48-5.444c0-1.066,0.16-2.186,0.481-3.362
			c0.32-1.171,0.745-2.347,1.281-3.523c0.53-1.171,1.011-1.971,1.441-2.402c0.85-1.706,2.346-2.187,4.483-1.441
			c2.131,0.75,3.948,2.296,5.444,4.644c3.202,2.992,4.854,6.725,4.964,11.208c0.105,4.483-1.016,10.037-3.363,16.652
			c-0.856,1.496-1.551,2.937-2.082,4.323c-0.535,1.391-1.016,2.562-1.441,3.523c-0.43,0.961-0.855,1.976-1.281,3.042
			c0.85,0,2.772-0.961,5.764-2.883c2.987-1.921,6.51-4.053,10.568-6.404c3.202-2.347,6.029-4.533,8.487-6.565
			c2.452-2.026,4.533-3.627,6.244-4.804c1.706-1.171,2.772-1.761,3.203-1.761c0.85,0,1.922-0.32,3.202-0.961
			c1.281-0.64,2.347-1.386,3.202-2.241c0.85-0.851,1.812-1.386,2.882-1.601c1.706-0.21,2.987-0.746,3.843-1.601
			c1.706-1.281,3.948-1.651,6.725-1.121c2.772,0.535,5.334,1.656,7.686,3.362c2.347,1.711,3.522,3.633,3.522,5.764
			c0,0.856,0.531,1.816,1.601,2.883c1.706,0,2.827,2.672,3.363,8.005c0.531,5.339-0.055,10.463-1.761,15.371
			c0,3.202-0.59,7.045-1.761,11.528c-1.176,4.483-2.191,8.756-3.042,12.81c-1.711,5.339-2.882,10.037-3.522,14.09
			c-0.641,4.058-0.751,7.475-0.32,10.247c0.426,2.777,1.171,5.019,2.242,6.725c0.851,1.496,0.851,3.152,0,4.963
			C1130.489,1326.031,1128.782,1326.938,1126.221,1326.938z"/>
		<path style="fill:#C18440;" d="M1173.294,1319.252c-0.855-1.706-1.922-3.042-3.202-4.003c-1.281-0.961-1.922-1.866-1.922-2.722
			c0-0.85-0.055-1.761-0.16-2.722c-0.111-0.96-0.591-1.867-1.441-2.722c-1.071-1.281-0.961-4.213,0.32-8.806
			c1.281-4.589,3.413-10.247,6.405-16.973c2.987-6.725,6.51-13.82,10.568-21.296c1.706-1.706,3.412-3.948,5.123-6.725
			c1.706-2.772,2.987-4.589,3.843-5.444c0-0.851,0.32-1.651,0.961-2.402c0.641-0.745,1.386-1.121,2.242-1.121v-1.922
			c0-1.066,1.011-2.882,3.042-5.444c2.026-2.562,4.533-5.389,7.526-8.486c2.987-3.092,6.084-6.084,9.286-8.967
			c3.202-2.882,5.869-4.964,8.006-6.245c4.483-2.987,9.127-4.804,13.93-5.444c4.804-0.64,8.912,0.43,12.329,3.203
			c0.641,0.641,1.706,1.711,3.202,3.202c1.491,1.496,3.253,3.152,5.284,4.964c2.026,1.816,4.108,3.682,6.245,5.604l11.849,10.568
			l-5.764,16.011c-2.777,8.542-3.473,16.012-2.082,22.416c1.386,6.405,3.468,11.959,6.245,16.652
			c1.066,2.352,3.252,4.593,6.564,6.725c3.308,2.136,6.455,3.417,9.447,3.843c1.706,0.215,3.307,0.855,4.804,1.922
			c1.491,1.071,2.241,2.777,2.241,5.123c0,2.137-0.43,3.843-1.281,5.124c-0.855,1.281-2.351,2.136-4.483,2.562
			c-7.045,0.856-13.61-0.85-19.695-5.123c-6.084-4.269-11.688-11.314-16.812-21.135c-0.856-1.281-1.977-3.683-3.363-7.205
			c-1.391-3.523-2.192-5.814-2.402-6.885c-0.855,1.071-2.457,3.042-4.803,5.924c-2.352,2.882-4.163,4.964-5.444,6.245
			c-15.161,15.371-28.236,25.674-39.228,30.902C1189.676,1323.685,1180.549,1323.95,1173.294,1319.252z M1191.708,1301.159
			c4.588-1.601,9.552-4.533,14.891-8.806c7.255-6.19,14.57-13.02,21.936-20.495c7.365-7.47,13.29-14.411,17.773-20.816l7.045-11.528
			c-2.136-4.908-4.433-8.271-6.885-10.087c-2.457-1.812-4.538-2.722-6.245-2.722c-2.777,0-6.885,2.562-12.329,7.686
			c-5.444,5.124-11.263,11.959-17.453,20.495c-6.194,8.541-12.064,17.933-17.613,28.181c-2.137,4.273-4.804,10.357-8.006,18.253
			C1184.822,1302.815,1187.115,1302.76,1191.708,1301.159z"/>
		<path style="fill:#C18440;" d="M1311.313,1333.662c-2.777-1.071-4.803-2.722-6.084-4.964c-1.281-2.241-2.031-5.494-2.241-9.767
			c0-2.562,0.426-5.974,1.281-10.247c0.85-4.268,1.812-9.177,2.882-14.731c0-0.426,0.05-0.906,0.16-1.441
			c0.105-0.531,0.16-0.906,0.16-1.121c0.21-0.85,0.48-2.131,0.8-3.843c0.32-1.706,0.586-3.042,0.801-4.003
			c0.21-0.961,0.32-0.906,0.32,0.16l2.241-8.647c1.066-3.843,2.131-7.685,3.203-11.528c1.066-3.843,2.027-7.205,2.882-10.087
			c0.851-2.882,1.386-4.533,1.601-4.964c1.706-4.908,2.987-8.536,3.843-10.888c3.628-10.032,6.936-18.518,9.928-25.458
			c2.987-6.936,5.654-12.009,8.005-15.211c0.21-0.641,0.531-1.441,0.961-2.402c0.425-0.961,0.745-1.761,0.96-2.402
			c0.21-1.706,0.481-3.042,0.801-4.003c0.32-0.961,0.8-1.867,1.441-2.723c0.425-0.85,1.066-1.971,1.921-3.362
			c0.851-1.386,1.812-3.147,2.882-5.284l1.281-3.522c1.281-2.772,2.883-5.869,4.804-9.287c1.922-3.413,3.308-5.869,4.163-7.365
			c0.851-1.922,2.132-4.213,3.843-6.885c1.706-2.667,2.987-4.428,3.843-5.284l-0.32-0.32c1.066-1.922,2.401-3.042,4.003-3.363
			c1.601-0.32,3.363-0.48,5.284-0.48c2.987,0,4.694,0.43,5.124,1.281c0.425,0.855,0.64,2.777,0.64,5.764
			c0,3.203-0.055,5.499-0.16,6.885c-0.111,1.391-1.016,2.938-2.722,4.643h0.32c0.426-0.425,0.32,0.055-0.32,1.441
			c-0.64,1.391-1.176,2.402-1.601,3.042c-0.43,1.071-0.91,2.242-1.441,3.523c-0.535,1.281-1.121,2.241-1.761,2.882
			c-0.641,0.856-2.192,3.683-4.643,8.486c-2.457,4.804-5.234,10.408-8.326,16.812c-3.097,6.405-6.034,12.599-8.806,18.574
			c-2.777,5.979-4.804,10.568-6.084,13.77l-1.601,4.804c-0.43,0.856-0.64,1.496-0.64,1.922c-0.641,1.496-1.281,2.992-1.922,4.483
			c-0.641,1.496-1.281,2.777-1.922,3.843l-5.444,18.574l-1.601,6.725l-2.882,7.046l-1.922,6.084c-0.43,1.281-0.75,2.457-0.96,3.522
			c-0.215,1.071-0.641,1.922-1.281,2.562c0,0.215-0.055,0.48-0.16,0.801c-0.11,0.32-0.16,0.59-0.16,0.8
			c-0.856,3.418-1.816,8.221-2.882,14.411c-1.071,6.194-1.816,12.704-2.242,19.534c0,0.215-0.055,0.43-0.16,0.64
			c-0.111,0.215-0.16,0.43-0.16,0.641c-0.641,4.483-1.711,7.47-3.202,8.967C1316.543,1334.193,1314.301,1334.513,1311.313,1333.662z
			"/>
	</g>
	<g>
		<path style="fill:#C18440;" d="M2043.368,1887.918c-3.213,0.507-6.174,0.8-8.876,0.888c-2.707,0.083-6.681-0.551-11.92-1.903
			c-2.706-0.848-4.609-1.862-5.706-3.043c-1.102-1.185-2.917-3.385-5.453-6.594c-1.862-2.707-3.17-5.199-3.93-7.482
			c-0.76-2.282-0.888-4.058-0.381-5.325c0.507-1.268,1.605-1.648,3.297-1.141c0.507,0.17,1.307,0.717,2.41,1.648
			c1.097,0.928,2.155,2.069,3.17,3.424c2.365,2.536,5.238,4.225,8.622,5.073c3.38,0.844,7.862,0.927,13.441,0.253
			c2.366-0.507,5.239-1.229,8.624-2.156c3.379-0.931,6.677-2.072,9.891-3.424c3.209-1.355,5.746-2.706,7.608-4.058
			c8.96-6.087,18.851-12.68,29.673-19.782c0.337-0.673,0.971-1.224,1.902-1.648c0.928-0.42,2.069-0.888,3.425-1.395
			c1.014-1.015,2.662-2.62,4.945-4.818c2.283-2.196,4.478-4.395,6.594-6.595c2.112-2.195,3.424-3.464,3.931-3.804
			c0.336-1.521,0.674-2.746,1.015-3.677c0.336-0.928,0.507-1.902,0.507-2.917c1.352-1.351,3.17-4.184,5.453-8.496
			c2.282-4.311,4.604-9.129,6.974-14.456c2.365-5.325,4.058-10.183,5.072-14.582c2.366-11.832,2.957-21.811,1.775-29.926
			c-1.184-8.115-3.594-15.09-7.228-20.923c-3.637-5.833-8.159-11.032-13.568-15.597c-1.863-1.522-4.438-3.17-7.735-4.945
			c-3.297-1.775-6.721-3.336-10.272-4.692c-3.55-1.352-6.637-2.448-9.257-3.296c-2.623-0.845-4.184-1.181-4.692-1.015
			c-0.677,0.17-2.072,2.834-4.184,7.989c-2.116,5.159-4.609,11.709-7.481,19.655c-2.878,7.948-5.96,16.401-9.257,25.36
			c-3.297,8.963-6.384,17.416-9.257,25.362c-1.015,3.213-2.116,6.594-3.297,10.144c-1.186,3.55-2.199,6.637-3.044,9.257
			c-0.848,2.623-1.267,4.354-1.267,5.199c-1.863,2.877-3.34,6.681-4.438,11.412c-1.101,4.736-2.326,12.598-3.677,23.586
			c-1.522,5.75-2.623,10.104-3.297,13.061c-0.677,2.96-1.355,4.354-2.029,4.185c-0.17,0.169-0.507,0.507-1.014,1.014
			c0,1.015-0.678,1.522-2.029,1.522c-1.356,0-2.917-0.381-4.692-1.141c-1.775-0.761-3.17-1.649-4.185-2.663
			c-0.507-1.858-0.803-3.634-0.888-5.326c-0.086-1.688,0.547-4.984,1.903-9.891c0.844-3.209,1.902-7.14,3.17-11.792
			c1.268-4.648,2.663-9.467,4.184-14.456c1.522-4.985,2.957-9.593,4.312-13.821c1.35-4.225,2.365-7.438,3.043-9.637
			c1.181-2.873,2.873-8.282,5.073-16.231c1.35-4.394,2.746-8.79,4.184-13.188c1.435-4.394,2.829-8.325,4.185-11.793
			c1.351-3.463,2.282-5.706,2.789-6.721c0.845-2.195,2.112-5.916,3.804-11.158c1.688-5.239,3.887-11.072,6.594-17.5l1.775-8.369
			l-2.789-1.267c-2.029,0.677-3.594,0.887-4.692,0.633c-1.101-0.254-1.819-0.464-2.156-0.633c-1.014,0.34-2.453,0.086-4.311-0.761
			c-1.863-0.844-3.511-1.942-4.945-3.296c-1.438-1.352-2.326-2.537-2.663-3.551c-0.34-0.674-0.594-2.112-0.76-4.311
			c0.166-1.015,1.435-1.986,3.804-2.917c2.365-0.928,5.452-1.732,9.257-2.41c3.804-0.674,7.945-1.141,12.427-1.395
			c4.478-0.254,8.833-0.21,13.061,0.126c4.395,0.341,8.535,1.268,12.427,2.79c3.887,1.522,8.116,3.13,12.68,4.818
			c5.409,2.029,11.115,5.54,17.119,10.525c5.999,4.989,11.496,10.865,16.485,17.626c4.985,6.764,8.326,13.866,10.018,21.303
			c0.507,2.029,1.014,4.907,1.522,8.624c0.507,3.72,0.8,7.315,0.888,10.779c0.083,3.467-0.298,5.706-1.142,6.72
			c-0.34,0.678-0.55,1.482-0.633,2.41c-0.087,0.931,0.209,1.565,0.888,1.902c-0.17,0.508-0.761,2.41-1.775,5.707
			c-1.015,3.296-1.946,6.13-2.79,8.495c-0.341,4.399-1.355,8.964-3.043,13.695c-1.692,4.735-3.551,9.174-5.58,13.314
			c-2.029,4.145-3.892,7.652-5.58,10.525c-0.677,0-1.312,0.126-1.901,0.381c-0.594,0.254-0.551,0.467,0.127,0.633
			c0,0.849-0.932,2.454-2.791,4.819c-0.677,0.507-1.735,1.735-3.17,3.677c-1.439,1.946-2.58,3.257-3.424,3.932
			c-0.17,1.184-0.677,2.155-1.522,2.916c-0.848,0.761-1.608,1.142-2.282,1.142c-0.507,0-0.76,0.34-0.76,1.014
			c-1.356,2.029-3.468,4.438-6.34,7.228c-2.878,2.789-6.131,5.667-9.765,8.623c-3.637,2.961-7.354,5.707-11.158,8.243
			c-3.804,2.536-7.398,4.477-10.779,5.833c-1.692,1.181-3.468,2.155-5.326,2.917c-1.862,0.76-3.637,1.561-5.325,2.409
			c-0.849,0.674-2.707,1.649-5.58,2.917c-2.877,1.268-5.959,2.493-9.257,3.678
			C2048.82,1886.563,2045.904,1887.411,2043.368,1887.918z"/>
		<path style="fill:#C18440;" d="M2160.025,1854.696c-0.677-1.352-1.521-2.41-2.536-3.171c-1.014-0.76-1.522-1.478-1.522-2.155
			c0-0.674-0.043-1.395-0.126-2.156c-0.087-0.76-0.468-1.478-1.141-2.155c-0.848-1.015-0.761-3.337,0.253-6.974
			c1.014-3.634,2.702-8.115,5.072-13.442c2.366-5.325,5.156-10.945,8.369-16.865c1.352-1.35,2.703-3.126,4.058-5.325
			c1.351-2.195,2.366-3.634,3.044-4.311c0-0.674,0.253-1.308,0.76-1.903c0.508-0.59,1.098-0.888,1.775-0.888v-1.521
			c0-0.844,0.8-2.283,2.41-4.312c1.605-2.029,3.59-4.267,5.959-6.72c2.366-2.449,4.819-4.819,7.355-7.102s4.648-3.931,6.34-4.945
			c3.551-2.365,7.228-3.804,11.032-4.311c3.804-0.507,7.057,0.341,9.764,2.536c0.508,0.508,1.352,1.356,2.537,2.537
			c1.18,1.184,2.576,2.496,4.184,3.93c1.605,1.439,3.253,2.917,4.946,4.439l9.384,8.369l-4.566,12.68
			c-2.199,6.764-2.75,12.68-1.648,17.753c1.098,5.072,2.746,9.47,4.946,13.187c0.844,1.863,2.576,3.638,5.199,5.326
			c2.619,1.692,5.112,2.706,7.481,3.043c1.352,0.17,2.62,0.678,3.804,1.522c1.181,0.848,1.775,2.199,1.775,4.058
			c0,1.692-0.341,3.044-1.014,4.058c-0.678,1.015-1.863,1.692-3.551,2.029c-5.58,0.677-10.779-0.673-15.597-4.058
			c-4.819-3.38-9.257-8.959-13.314-16.738c-0.678-1.015-1.566-2.917-2.663-5.706c-1.103-2.79-1.736-4.605-1.903-5.453
			c-0.677,0.849-1.946,2.41-3.804,4.692c-1.862,2.282-3.296,3.932-4.311,4.945c-12.006,12.173-22.361,20.333-31.066,24.474
			C2172.998,1858.207,2165.771,1858.416,2160.025,1854.696z M2174.608,1840.366c3.634-1.268,7.564-3.591,11.792-6.974
			c5.746-4.901,11.54-10.311,17.372-16.231c5.833-5.916,10.525-11.413,14.076-16.484l5.58-9.13
			c-1.692-3.887-3.511-6.549-5.453-7.988c-1.945-1.435-3.594-2.156-4.946-2.156c-2.199,0-5.452,2.029-9.764,6.087
			c-4.311,4.058-8.92,9.471-13.821,16.231c-4.906,6.765-9.554,14.202-13.949,22.318c-1.692,3.385-3.804,8.203-6.34,14.457
			C2169.155,1841.678,2170.969,1841.635,2174.608,1840.366z"/>
		<path style="fill:#C18440;" d="M2258.682,1914.294c-4.058,1.181-8.496,1.395-13.314,0.634c-4.819-0.761-9.043-2.243-12.68-4.438
			c-3.634-2.199-5.707-4.652-6.214-7.355c-0.166-1.014,0.127-2.115,0.888-3.296c0.76-1.185,1.692-1.99,2.789-2.41
			c1.102-0.424,2.073-0.127,2.917,0.888c1.356,0.843,3.804,1.902,7.355,3.17s7.521,1.478,11.92,0.634
			c3.887-0.848,7.735-3.13,11.539-6.848c3.804-3.72,6.887-7.188,9.257-10.398c1.352-2.029,3.634-5.666,6.847-10.905
			c3.21-5.242,6.55-11.032,10.018-17.372c3.464-6.34,6.38-12.213,8.75-17.626c0.507-1.352,1.097-2.957,1.774-4.819
			c0.674-1.859,1.522-3.379,2.537-4.565c1.014-2.029,1.902-3.93,2.663-5.706c0.76-1.775,1.224-3,1.395-3.677
			c0.166-0.845,0.927-2.537,2.282-5.073c1.352-2.536,2.619-5.072,3.804-7.609c0.843-2.536,2.112-6.253,3.804-11.158
			c1.688-4.902,3.379-8.877,5.072-11.92c2.029-3.887,3.677-7.057,4.946-9.51c1.269-2.449,2.663-3.932,4.185-4.438
			c1.521-1.181,2.576-1.775,3.17-1.775c0.59,0,1.814,0.507,3.677,1.522c2.029,2.029,3.297,4.018,3.804,5.959
			c0.507,1.946,0.293,4.312-0.634,7.102c-0.931,2.789-2.663,6.554-5.199,11.286c-1.356,4.058-2.833,7.735-4.438,11.032
			c-1.608,3.296-2.833,5.452-3.677,6.467c-0.848,2.029-1.819,4.271-2.917,6.72c-1.101,2.453-2.072,4.692-2.917,6.721
			c-3.043,6.764-5.667,12.261-7.862,16.484c-2.199,4.228-4.145,8.116-5.833,11.666c-1.691,3.551-3.467,7.696-5.325,12.427
			c-3.892,6.253-7.652,12.213-11.286,17.879c-3.638,5.663-7.482,10.946-11.54,15.851c-1.691,1.521-3.803,3.296-6.34,5.325
			c-2.536,2.029-5.116,3.887-7.735,5.58C2263.54,1912.431,2261.047,1913.616,2258.682,1914.294z M2292.919,1853.427
			c-2.537-0.336-5.033-1.858-7.481-4.565c-2.454-2.703-4.355-5.58-5.707-8.624c-1.355-3.043-1.862-5.238-1.522-6.594
			c0-0.844,0-1.776,0-2.789c-1.014,0-1.902-1.269-2.662-3.804c-0.761-2.536-1.312-5.833-1.649-9.891
			c-0.341-4.058-0.55-8.369-0.633-12.934c-0.087-4.566,0.039-8.877,0.38-12.935c0.674-2.872,1.015-6.042,1.015-9.51
			c0-3.463,0.083-6.213,0.253-8.242c-0.17-2.703,0.083-4.521,0.76-5.453c0.674-0.927,1.352-1.648,2.029-2.155
			c4.732-2.029,7.902-0.8,9.51,3.677c1.605,4.482,1.986,12.807,1.141,24.981c-0.34,6.764-0.34,13.528,0,20.289
			c0.338,6.764,1.308,12.68,2.917,17.753c1.605,5.072,3.844,8.539,6.721,10.398c1.181,0.677,1.775,1.608,1.775,2.789
			c0,1.185-0.341,2.41-1.014,3.677c-0.678,1.268-1.566,2.283-2.663,3.044C2294.987,1853.3,2293.933,1853.598,2292.919,1853.427z"/>
	</g>
	<g>
		<g>
			<path style="fill:#0B3811;" d="M248.822,1687.968c5.509,4.177,11.046,9.091,16.532,13.852
				c5.481,4.767,10.865,9.428,15.765,13.414c4.917,3.962,9.203,7.4,12.359,9.77c1.558,1.205,2.807,2.172,3.668,2.838
				c0.869,0.655,1.346,1.014,1.346,1.014s-0.644,1.081-1.998,2.644c-1.357,1.561-3.42,3.609-6.331,5.481
				c-2.927,1.89-6.648,3.518-11.442,4.179c-1.198,0.165-2.463,0.267-3.798,0.295c-1.325,0.011-2.707-0.078-4.168-0.246
				c-1.459-0.172-2.99-0.435-4.596-0.805c-1.603-0.373-3.241-0.923-4.974-1.561c-3.485-1.247-6.979-3.133-10.541-5.306
				c-1.74-1.145-3.488-2.378-5.23-3.681c-1.751-1.292-3.406-2.771-5.092-4.241c-6.668-5.978-12.648-13.29-17.274-20.482
				c-4.648-7.183-7.986-14.176-10.022-19.322c-1.072-2.56-1.781-4.674-2.278-6.13c-0.484-1.462-0.749-2.263-0.749-2.263
				s1.117-0.611,3.121-1.122c2.004-0.516,4.897-0.924,8.419-0.652c3.545,0.257,7.607,1.223,12.222,3.183
				c2.286,0.986,4.658,2.232,7.195,3.738C243.435,1684.094,246.102,1685.864,248.822,1687.968z"/>
		</g>
		<g>
			<path style="fill:#0B3811;" d="M268.081,1633.961c0.115,7.218-0.018,14.084-0.017,20.551c-0.034,6.46,0.002,12.53,0.143,17.841
				c0.019,2.673,0.189,5.096,0.218,7.32c0.137,2.175,0.183,4.134,0.265,5.737c0.2,3.19,0.215,5.095,0.215,5.095
				s-1.554-1.009-4.187-3.089c-1.294-1.053-2.79-2.417-4.515-4.061c-1.62-1.693-3.522-3.65-5.328-6.01
				c-3.701-4.669-7.507-10.791-10.382-18.186c-2.908-7.37-4.767-16.015-4.88-25.092c-0.085-9.08,1.588-17.618,4.156-24.942
				c2.546-7.347,5.955-13.505,9.282-18.333c3.329-4.837,6.596-8.356,8.995-10.641c2.407-2.287,3.952-3.349,3.952-3.349
				s0.051,1.879,0.139,5.099c0.123,3.208,0.297,7.749,0.503,13.139c0.237,5.332,0.512,11.5,0.808,18.139
				C267.718,1619.77,268.011,1626.74,268.081,1633.961z"/>
		</g>
		<g>
			<path style="fill:#0B3811;" d="M314.576,1758.142c1.646,0.044,3.315,0.155,4.997,0.323c1.693,0.141,3.413,0.306,5.129,0.537
				c3.421,0.492,6.918,1.028,10.359,1.699c0.858,0.177,1.714,0.354,2.567,0.53c0.859,0.168,1.716,0.335,2.568,0.502
				c1.701,0.348,3.38,0.721,5.026,1.113c3.302,0.755,6.52,1.473,9.505,2.273c3.011,0.732,5.833,1.437,8.355,2.139
				c2.523,0.697,4.797,1.251,6.668,1.795c3.744,1.091,6.011,1.752,6.011,1.752s-0.86,4.961-4.868,10.565
				c-2.015,2.817-4.819,5.715-8.798,8.181c-1.99,1.231-4.273,2.35-6.898,3.281c-2.622,0.91-5.58,1.56-8.931,1.967
				c-3.352,0.436-6.921,0.418-10.619,0.192c-3.7-0.184-7.509-0.807-11.337-1.549c-1.915-0.354-3.827-0.82-5.727-1.34
				c-1.901-0.51-3.79-1.054-5.654-1.623c-3.72-1.227-7.339-2.559-10.733-3.983c-6.788-2.886-12.679-6.053-16.839-8.539
				c-2.077-1.268-3.731-2.322-4.865-3.057c-1.136-0.727-1.745-1.167-1.745-1.167s0.536-1.154,1.801-2.79
				c1.264-1.646,3.25-3.737,6.109-5.762C292.378,1761.101,301.441,1757.735,314.576,1758.142z"/>
		</g>
		<g>
			<path style="fill:#0B3811;" d="M399.477,1793.398c12.33-3.387,27.576-3.487,39.862-3.052c6.153,0.19,11.534,0.647,15.354,1.056
				c3.834,0.41,6.15,0.776,6.15,0.776s-0.137,5.037-3.156,11.178c-1.508,3.071-3.734,6.419-7.005,9.556
				c-1.636,1.568-3.533,3.083-5.732,4.484c-2.259,1.391-4.968,2.641-8.016,3.716c-6.119,2.2-13.263,3.219-20.541,3.654
				c-3.643,0.143-7.32,0.129-10.916,0.005c-3.596-0.117-7.122-0.488-10.449-0.838c-3.326-0.339-6.466-0.851-9.298-1.351
				c-2.833-0.509-5.354-0.965-7.465-1.461c-4.22-0.983-6.761-1.701-6.761-1.701s0.683-4.997,4.622-10.679
				c1.963-2.843,4.724-5.863,8.53-8.547C388.464,1797.498,393.326,1795.017,399.477,1793.398z"/>
		</g>
		<g>
			<path style="fill:#0B3811;" d="M486.103,1811.84c2.899-1.095,6.025-1.99,9.256-2.641c3.221-0.615,6.561-1.036,9.922-1.307
				c6.72-0.542,13.519-0.481,19.593-0.161c6.07,0.337,11.434,0.865,15.244,1.438c3.806,0.594,6.1,1.071,6.1,1.071
				s-0.373,5.026-3.666,11.019c-1.644,2.997-4.014,6.237-7.406,9.218c-3.388,2.973-7.857,5.836-13.636,7.904
				c-5.786,2.084-12.36,3.243-18.964,3.81c-3.302,0.283-6.612,0.419-9.835,0.447c-1.612,0.014-3.202,0.002-4.759-0.032
				c-1.567-0.011-3.109-0.025-4.6-0.067c-11.941-0.315-20.997-1.738-20.997-1.738s0.169-5.03,3.201-11.17
				C468.591,1823.494,474.498,1816.248,486.103,1811.84z"/>
		</g>
		<g>
			<path style="fill:#0B3811;" d="M570.417,1831.079c5.882-1.889,12.532-2.61,19.274-2.821c6.727-0.171,13.532,0.193,19.558,0.91
				c11.994,1.63,21.054,4.067,21.054,4.067s-0.746,4.97-4.473,10.734c-3.719,5.766-10.403,12.336-21.99,15.613
				c-5.746,1.562-12.396,2.512-18.935,2.716c-6.559,0.237-13.1-0.116-18.912-0.695c-5.855-0.504-11.05-1.123-14.732-1.704
				c-3.691-0.565-5.91-1.024-5.91-1.024s0.42-5.014,3.733-11.003C552.402,1841.884,558.625,1834.924,570.417,1831.079z"/>
		</g>
		<g>
			<path style="fill:#0B3811;" d="M280.175,1673.696c-1.11,5.44-0.677,11.686,0.972,17.78c1.638,6.094,4.434,12.028,7.567,16.997
				c3.153,4.955,6.468,9.077,9.061,11.829c1.294,1.38,2.331,2.503,3.098,3.221c0.772,0.714,1.194,1.106,1.194,1.106
				s0.955-0.822,2.268-2.419c1.316-1.595,2.986-3.972,4.488-7.019c1.486-3.027,2.886-6.796,3.716-11.038
				c0.208-1.06,0.381-2.151,0.512-3.267c0.147-1.126,0.278-2.294,0.353-3.476c0.077-1.184,0.11-2.391,0.09-3.615
				c-0.016-1.227-0.013-2.51-0.102-3.788c-0.211-2.54-0.423-5.12-0.858-7.557c-0.152-1.248-0.343-2.469-0.569-3.657
				c-0.24-1.183-0.379-2.389-0.624-3.528c-0.827-4.336-1.642-8.611-2.369-12.423c-0.674-3.605-1.236-6.613-1.579-8.787
				c-0.22-1.068-0.336-1.942-0.448-2.532c-0.122-0.588-0.188-0.91-0.188-0.91s-1.231,0.222-3.221,0.785
				c-1.989,0.568-4.737,1.466-7.739,2.954c-2.976,1.486-6.315,3.602-9.143,6.679c-1.435,1.547-2.793,3.354-3.883,5.441
				C281.621,1668.579,280.764,1670.957,280.175,1673.696z"/>
		</g>
		<g>
			<path style="fill:#0B3811;" d="M332.585,1728.776c0.612,1.331,1.311,2.662,2.084,3.988c0.791,1.304,1.679,2.573,2.617,3.847
				c1.857,2.574,4.052,4.972,6.379,7.286l1.767,1.722c0.618,0.542,1.234,1.082,1.847,1.619c1.243,1.066,2.505,2.106,3.773,3.114
				c2.55,1.991,5.175,3.753,7.675,5.419c2.531,1.602,4.989,3.004,7.223,4.26c2.237,1.25,4.309,2.216,6.03,3.057
				c1.729,0.821,3.124,1.478,4.104,1.884c0.984,0.397,1.524,0.615,1.524,0.615s2.391-4.432,2.932-11.234
				c0.269-3.382,0.128-7.419-0.894-11.76c-0.511-2.172-1.239-4.422-2.238-6.716c-0.988-2.31-2.202-4.719-3.753-7.111
				c-6.19-9.624-15.658-18.145-22.711-24.704c-3.548-3.271-6.616-5.974-8.779-7.878c-1.059-0.965-1.928-1.709-2.533-2.213
				c-0.612-0.5-0.932-0.776-0.932-0.776s-0.857,0.907-2.079,2.576c-1.213,1.667-2.824,4.112-4.18,7.189
				C329.751,1709.094,327.718,1718.063,332.585,1728.776z"/>
		</g>
		<g>
			<path style="fill:#0B3811;" d="M408.658,1760.195c8.062,9.024,21.378,15.912,32.685,20.182
				c5.655,2.107,10.783,3.696,14.519,4.764c3.723,1.065,6.012,1.599,6.012,1.599s1.727-4.726,1.145-11.571
				c-0.292-3.423-1.165-7.376-3.136-11.536c-0.986-2.08-2.247-4.212-3.848-6.355c-1.541-2.132-3.275-4.246-5.418-6.331
				c-4.285-4.115-9.465-7.882-14.882-11.061c-2.672-1.655-5.399-3.175-8.09-4.556c-2.695-1.376-5.275-2.735-7.773-3.885
				c-2.505-1.142-4.817-2.237-6.923-3.172c-2.1-0.943-4.021-1.694-5.578-2.369c-3.12-1.341-5.053-2.038-5.053-2.038
				s-2.227,4.508-2.669,11.297c-0.214,3.397,0.034,7.37,1.321,11.665C402.265,1751.113,404.656,1755.614,408.658,1760.195z"/>
		</g>
		<g>
			<path style="fill:#0B3811;" d="M492.968,1778.083c2.288,2.123,4.865,4.083,7.61,5.968c2.739,1.922,5.653,3.715,8.637,5.378
				c5.966,3.325,12.209,6.125,17.884,8.382c5.671,2.273,10.791,3.933,14.467,5.157c3.671,1.245,5.933,1.889,5.933,1.889
				s1.946-4.639,1.676-11.509c-0.137-3.435-0.832-7.429-2.628-11.686c-1.796-4.265-4.705-8.634-9.25-13.002
				c-4.545-4.35-10.304-8.215-16.386-11.565c-3.041-1.675-6.163-3.221-9.254-4.635c-1.546-0.707-3.083-1.38-4.6-2.021
				c-1.516-0.615-3.011-1.176-4.469-1.716c-11.671-4.296-21.036-6.47-21.036-6.47s-1.759,4.72-1.19,11.562
				C480.927,1760.658,483.81,1769.621,492.968,1778.083z"/>
		</g>
		<g>
			<path style="fill:#0B3811;" d="M579.054,1797.731c4.371,4.484,9.853,8.712,15.645,12.324c5.784,3.654,11.884,6.725,17.41,9.354
				c10.997,5.458,19.872,8.55,19.872,8.55s2.294-4.493,2.515-11.338c0.213-6.847-1.663-16.055-10.291-25.565
				c-1.079-1.188-2.237-2.354-3.462-3.494c-1.225-1.136-2.516-2.174-3.858-3.223c-2.684-2.079-5.574-4.046-8.555-5.888
				c-5.963-3.686-12.293-6.878-18.079-9.493c-5.784-2.529-11.016-4.352-14.802-5.644c-3.786-1.274-6.123-1.936-6.123-1.936
				s-1.993,4.627-1.743,11.493C567.829,1779.735,570.304,1788.834,579.054,1797.731z"/>
		</g>
		<g>
			<path style="fill:#0B3811;" d="M268.6,1688.873c2.726,4.853,5.729,9.555,9.085,13.998c3.381,4.419,6.938,8.714,10.833,12.692
				c7.701,8.043,16.379,15.103,25.508,21.454c9.143,6.35,18.866,11.831,28.846,16.745c9.996,4.889,20.271,9.209,30.748,12.963
				c10.473,3.768,21.114,7.051,31.847,9.991c10.741,2.919,21.6,5.379,32.494,7.657l32.812,6.318l16.413,3.164
				c5.471,1.054,10.949,2.074,16.384,3.307l32.674,7.086c2.729,0.563,5.435,1.229,8.141,1.894l8.122,1.977l16.245,3.954
				c21.619,5.435,43.111,11.404,64.388,18.099c5.358,1.55,10.598,3.472,15.883,5.252l7.915,2.711l3.958,1.355l1.978,0.681
				l1.953,0.75l15.628,6.003c1.298,0.512,2.616,0.973,3.897,1.528l3.845,1.659l7.691,3.318c5.172,2.112,10.15,4.667,15.186,7.09
				l3.771,1.832c1.26,0.604,2.463,1.327,3.697,1.985l7.36,4.041c1.243,0.643,2.41,1.426,3.605,2.158l3.57,2.224
				c1.181,0.757,2.401,1.449,3.549,2.26l3.438,2.446c1.132,0.836,2.322,1.585,3.408,2.493l3.282,2.685l0.82,0.672l0.777,0.735
				l1.552,1.474l0.775,0.739l0.731,0.813c0.486,0.545,0.974,1.053,1.461,1.736l-2.671,1.788c-0.021-0.031-0.153-0.318-0.826-1.068
				c-0.326-0.358-0.678-0.823-1.193-1.334c-0.523-0.508-1.129-1.096-1.813-1.76c-0.659-0.685-1.501-1.366-2.416-2.124
				c-0.914-0.759-1.91-1.587-2.987-2.482c-1.143-0.825-2.372-1.711-3.682-2.655c-1.324-0.928-2.666-1.997-4.236-2.929
				c-12.146-8.021-30.794-17.615-54.062-26.981c-46.518-18.945-111.396-36.397-176.804-50.288c-2.043-0.441-4.078-0.923-6.128-1.331
				l-6.15-1.21c-4.098-0.807-8.192-1.612-12.278-2.416c-8.171-1.609-16.309-3.212-24.382-4.802
				c-8.074-1.601-16.132-3.104-24.011-4.902c-7.893-1.749-15.644-3.68-23.223-5.741c-30.326-8.182-57.715-19.323-79.331-32.112
				c-10.783-6.428-20.111-13.22-27.798-19.884c-7.712-6.644-13.697-13.222-18.227-18.887c-4.553-5.662-7.542-10.505-9.486-13.785
				c-0.936-1.665-1.644-2.926-2.073-3.777C268.686,1689.269,268.517,1688.84,268.6,1688.873z"/>
		</g>
	</g>
	<g>
		<g>
			<path style="fill:#0B3811;" d="M579.317,2022.39c2.386-0.179,4.889-0.312,7.381-0.276c0.627-0.004,1.243,0.039,1.88,0.017
				c0.641-0.02,1.279-0.04,1.913-0.06c1.274-0.028,2.546-0.033,3.807-0.017c2.505,0.121,5.051-0.105,7.472-0.09
				c1.215-0.024,2.401,0.023,3.568-0.018c1.172-0.064,2.313-0.126,3.416-0.186c1.105-0.038,2.172-0.075,3.194-0.111
				c0.511-0.011,1.012-0.021,1.5-0.031c0.489-0.022,0.967-0.084,1.431-0.12c1.858-0.163,3.509-0.278,4.887-0.359
				c1.377-0.094,2.484-0.093,3.243-0.183c0.76-0.079,1.176-0.123,1.176-0.123s0.17,0.82,0.194,2.199
				c0.022,1.379-0.096,3.318-0.734,5.558c-0.635,2.274-1.811,4.709-3.995,7.136c-1.092,1.213-2.438,2.418-4.1,3.575
				c-0.831,0.578-1.741,1.144-2.738,1.692c-0.997,0.543-2.104,0.956-3.296,1.396c-9.451,3.86-23.797,3.26-35.195,0.011
				c-2.881-0.676-5.493-1.725-7.877-2.626c-1.19-0.475-2.313-0.922-3.358-1.339c-1.042-0.437-1.963-0.94-2.823-1.359
				c-3.418-1.728-5.448-2.895-5.448-2.895s0.273-0.802,1.04-1.949c0.764-1.149,2.025-2.64,3.926-4.07
				C563.593,2025.236,569.838,2022.891,579.317,2022.39z"/>
		</g>
		<g>
			<path style="fill:#0B3811;" d="M563.427,1986.036c3.382,3.727,6.63,7.304,9.745,10.736c1.579,1.614,2.975,3.379,4.473,4.811
				c1.467,1.476,2.765,3.071,4.118,4.298c1.317,1.293,2.516,2.541,3.586,3.67c1.117,1.021,2.09,1.95,2.891,2.733
				c1.605,1.567,2.508,2.546,2.508,2.546s-1.266,0.151-3.583,0.218c-1.159,0.031-2.585,0.044-4.251-0.006
				c-1.619-0.164-3.474-0.4-5.536-0.742c-0.52-0.091-1.048-0.183-1.584-0.276c-0.537-0.105-1.059-0.269-1.608-0.414
				c-1.089-0.302-2.224-0.637-3.397-1.008c-2.394-0.67-4.716-1.834-7.232-3.017c-1.274-0.573-2.443-1.349-3.677-2.106
				c-1.21-0.783-2.49-1.552-3.67-2.472c-1.175-0.926-2.352-1.898-3.523-2.913l-0.876-0.77l-0.821-0.831
				c-0.539-0.567-1.082-1.137-1.627-1.71c-4.291-4.662-7.473-9.835-9.571-14.836c-2.126-4.995-3.343-9.735-3.905-13.792
				c-0.573-4.058-0.598-7.39-0.462-9.691c0.144-2.308,0.414-3.577,0.414-3.577s0.899,0.985,2.394,2.621
				c1.567,1.67,3.757,4.002,6.284,6.696c2.562,2.745,5.626,5.848,8.821,9.197C556.521,1978.772,559.96,1982.302,563.427,1986.036z"
				/>
		</g>
		<g>
			<path style="fill:#0B3811;" d="M646.212,2028.054c1.752-1.472,3.677-2.859,5.698-4.156c1.004-0.668,2.061-1.232,3.083-1.922
				c1.027-0.674,2.072-1.326,3.124-1.957c2.104-1.261,4.24-2.434,6.342-3.512c2.086-1.119,4.082-2.297,6.012-3.285
				c1.922-1.008,3.745-1.91,5.401-2.697c1.655-0.787,3.081-1.611,4.311-2.207c2.442-1.234,3.955-1.911,3.955-1.911
				s1.814,2.838,2.256,7.414c0.216,2.29,0.077,5.02-0.871,8.072c-0.474,1.526-1.151,3.133-2.089,4.805
				c-0.953,1.65-2.229,3.282-3.809,4.992c-3.197,3.369-7.293,6.738-12.098,9.307c-2.364,1.336-4.814,2.59-7.256,3.749
				c-2.499,1.078-5.053,1.975-7.464,2.819c-1.21,0.416-2.392,0.807-3.535,1.173c-0.574,0.18-1.135,0.357-1.683,0.529
				c-0.557,0.159-1.124,0.278-1.666,0.41c-2.179,0.51-4.143,0.927-5.791,1.256c-1.648,0.329-2.981,0.569-3.9,0.729
				c-0.46,0.077-0.816,0.137-1.057,0.178c-0.249,0.026-0.378,0.04-0.378,0.04s-0.257-0.813-0.359-2.188
				c-0.108-1.384-0.039-3.287,0.498-5.585c0.54-2.288,1.576-4.916,3.379-7.646c0.901-1.365,1.993-2.756,3.307-4.142
				c0.657-0.693,1.37-1.385,2.142-2.072C644.532,2029.555,645.332,2028.779,646.212,2028.054z"/>
		</g>
		<g>
			<path style="fill:#0B3811;" d="M706.914,2006.671c2.417-3.743,5.64-7.365,9.112-10.687c1.802-1.675,3.558-3.308,5.245-4.876
				c1.742-1.577,3.481-3.057,5.149-4.417c3.341-2.719,6.393-4.957,8.577-6.539c2.199-1.576,3.581-2.47,3.581-2.47
				s2.203,2.542,3.39,6.965c0.595,2.211,0.937,4.891,0.634,7.953c-0.151,1.531-0.464,3.156-0.988,4.867
				c-0.561,1.726-1.43,3.579-2.553,5.505c-2.265,3.861-5.493,7.717-9.068,11.326c-3.721,3.463-7.799,6.676-11.576,9.412
				c-1.86,1.397-3.759,2.562-5.485,3.599c-1.723,1.04-3.283,1.94-4.597,2.679c-2.628,1.477-4.266,2.304-4.266,2.304
				s-1.91-2.763-2.443-7.376C701.08,2020.307,701.887,2013.861,706.914,2006.671z"/>
		</g>
		<g>
			<path style="fill:#0B3811;" d="M760.729,1975.641c1.028-1.883,2.265-3.774,3.669-5.591c1.415-1.794,2.981-3.548,4.624-5.237
				c3.287-3.378,6.887-6.496,10.224-9.151c3.343-2.644,6.398-4.87,8.662-6.349c2.27-1.467,3.693-2.292,3.693-2.292
				s2.082,2.643,3.066,7.112c0.986,4.469,0.871,10.708-3.312,18.157c-2.1,3.705-5.033,7.321-8.252,10.66
				c-1.609,1.669-3.29,3.27-4.973,4.778c-1.688,1.495-3.369,2.927-4.969,4.291c-6.421,5.387-11.826,8.89-11.826,8.89
				s-2.184-2.554-3.364-6.981C756.793,1989.498,756.624,1983.191,760.729,1975.641z"/>
		</g>
		<g>
			<path style="fill:#0B3811;" d="M813.776,1946.078c4.506-7.207,12.599-13.936,19.564-18.852
				c7.054-4.719,12.931-7.691,12.931-7.691s1.873,2.784,2.538,7.329c0.67,4.543,0.144,10.846-4.474,17.793
				c-2.321,3.412-5.389,6.952-8.744,10.07c-3.349,3.145-6.958,5.992-10.285,8.392c-3.314,2.458-6.329,4.559-8.533,5.976
				c-2.201,1.43-3.578,2.231-3.578,2.231s-2.053-2.659-3.025-7.134C809.2,1959.716,809.319,1953.418,813.776,1946.078z"/>
		</g>
		<g>
			<path style="fill:#0B3811;" d="M588.489,2001.335c1.034,1.613,2.373,3.108,3.874,4.62c0.38,0.365,0.757,0.767,1.171,1.096
				c0.427,0.324,0.853,0.646,1.276,0.966c0.869,0.637,1.775,1.26,2.706,1.868c1.837,1.303,3.896,2.121,5.913,3.037
				c1.016,0.427,2.025,0.89,3.044,1.233c1.025,0.308,2.041,0.597,3.036,0.868c1.007,0.261,1.98,0.514,2.912,0.756
				c0.474,0.115,0.937,0.227,1.388,0.336c0.455,0.093,0.906,0.14,1.343,0.207c1.75,0.244,3.328,0.432,4.651,0.573
				c1.323,0.126,2.392,0.267,3.129,0.262c0.739-0.006,1.143-0.01,1.143-0.01s0.114-0.836,0.052-2.213
				c-0.06-1.377-0.3-3.295-0.948-5.461c-0.649-2.13-1.688-4.654-3.253-7.164c-0.782-1.255-1.694-2.511-2.749-3.728
				c-0.527-0.609-1.091-1.208-1.691-1.792c-0.6-0.588-1.2-1.27-1.856-1.878c-1.302-1.244-2.688-2.362-4.114-3.352
				c-1.352-1.162-2.732-2.202-4.114-3.113c-2.676-2.004-5.232-3.713-7.35-5.316c-1.125-0.684-2.032-1.542-2.915-2.169
				c-0.437-0.323-0.855-0.613-1.248-0.875c-0.39-0.268-0.708-0.59-1.025-0.831c-1.244-1.006-2.054-1.506-2.054-1.506
				s-0.519,0.658-1.253,1.824c-0.731,1.168-1.683,2.841-2.473,4.923C585.549,1988.612,584.444,1994.669,588.489,2001.335z"/>
		</g>
		<g>
			<path style="fill:#0B3811;" d="M642.05,2005.469c1.883,0.723,3.946,1.287,6.119,1.72c1.083,0.196,2.206,0.445,3.325,0.509
				c1.121,0.081,2.258,0.131,3.403,0.155c2.289,0.048,4.608-0.009,6.881-0.137c2.263-0.171,4.438-0.57,6.513-0.911
				c2.071-0.362,4.021-0.755,5.779-1.139c1.758-0.385,3.272-0.917,4.56-1.298c2.562-0.806,4.099-1.37,4.099-1.37
				s-0.761-3.267-3.587-6.872c-1.408-1.804-3.321-3.698-5.845-5.335c-1.262-0.819-2.676-1.573-4.255-2.22
				c-1.582-0.673-3.337-1.343-5.26-1.827c-3.846-1.029-8.033-1.206-12.088-1.581c-2.03-0.123-4.034-0.148-5.967-0.1
				c-1.918-0.052-3.745-0.13-5.462-0.097c-0.857,0.01-1.685,0.033-2.478,0.066c-0.396,0.02-0.784,0.039-1.162,0.057
				c-0.375,0.01-0.731-0.019-1.082-0.022c-1.399-0.034-2.636-0.024-3.666,0.004c-1.03,0.028-1.853,0.075-2.42,0.114
				c-0.283,0.022-0.502,0.038-0.651,0.05c-0.144,0-0.219,0-0.219,0s-0.027,0.829,0.113,2.202c0.144,1.362,0.44,3.313,1.177,5.42
				c0.736,2.118,1.897,4.454,3.81,6.689c0.957,1.118,2.104,2.21,3.483,3.237c0.69,0.514,1.438,1.011,2.25,1.487
				C640.233,2004.74,641.108,2005.095,642.05,2005.469z"/>
		</g>
		<g>
			<path style="fill:#0B3811;" d="M696.656,1986.124c4.146,0.274,8.755-0.249,13.341-1.188c1.145-0.239,2.295-0.487,3.422-0.785
				c1.113-0.326,2.217-0.672,3.303-1.031c2.172-0.718,4.275-1.49,6.248-2.265c3.946-1.545,7.376-3.109,9.813-4.327
				c2.436-1.202,3.879-2.001,3.879-2.001s-1.227-3.127-4.624-6.226c-1.699-1.549-3.942-3.09-6.855-4.224
				c-1.456-0.567-3.081-1.032-4.888-1.345c-1.777-0.339-3.653-0.594-5.73-0.641c-4.139-0.106-8.555,0.52-12.844,1.521
				c-4.337,0.8-8.542,1.968-12.227,3.18c-1.837,0.646-3.565,1.143-5.11,1.632c-1.544,0.494-2.907,0.966-4.04,1.376
				c-2.264,0.82-3.606,1.392-3.606,1.392s0.881,3.246,3.745,6.765C683.359,1981.469,688.243,1985.244,696.656,1986.124z"/>
		</g>
		<g>
			<path style="fill:#0B3811;" d="M749.077,1955.851c2.161-0.016,4.399-0.248,6.693-0.591c2.308-0.322,4.65-0.789,6.969-1.352
				c4.638-1.126,9.184-2.638,13.187-4.155c4.008-1.507,7.448-3.062,9.935-4.159c2.494-1.084,3.974-1.813,3.974-1.813
				s-1.079-3.18-4.333-6.434c-3.255-3.252-8.73-6.61-17.415-6.649c-4.354-0.037-9.124,0.726-13.831,1.891
				c-2.353,0.583-4.691,1.266-6.952,2c-2.27,0.724-4.443,1.522-6.446,2.359c-8.062,3.293-13.956,6.562-13.956,6.562
				s1.209,3.138,4.597,6.242C734.885,1952.858,740.446,1955.933,749.077,1955.851z"/>
		</g>
		<g>
			<path style="fill:#0B3811;" d="M803.184,1925.7c8.712,0.448,19.054-2.016,27.221-4.585c8.267-2.377,14.344-4.942,14.344-4.942
				s-0.841-3.261-3.842-6.725c-3.006-3.461-8.185-7.121-17.04-7.829c-4.468-0.401-9.24,0.2-14.06,1.113
				c-4.803,0.935-9.573,2.281-13.796,3.66c-4.182,1.423-7.753,2.944-10.325,4.055c-2.563,1.121-4.089,1.874-4.089,1.874
				s1.051,3.196,4.293,6.456C789.129,1922.039,794.552,1925.369,803.184,1925.7z"/>
		</g>
		<g>
			<path style="fill:#0B3811;" d="M589.824,2014.119c0.903,0.379,1.853,0.615,2.793,0.882l2.821,0.795
				c0.943,0.252,1.874,0.559,2.827,0.766l2.879,0.548l2.878,0.548l1.439,0.274c0.483,0.07,0.971,0.106,1.456,0.16l5.829,0.602
				c0.969,0.135,1.948,0.121,2.924,0.145l2.929,0.059c1.952,0.018,3.906,0.154,5.855-0.032l5.848-0.347l1.462-0.087
				c0.486-0.039,0.968-0.124,1.453-0.183l2.903-0.394c15.501-2.031,30.565-6.62,45.026-12.478c7.29-2.816,14.291-6.304,21.334-9.675
				l10.345-5.502l2.586-1.375c0.855-0.471,1.687-0.985,2.531-1.475l5.048-2.975c13.49-7.877,26.762-16.188,40.28-24.048
				l20.374-11.641c6.829-3.813,13.759-7.445,20.634-11.177c13.831-7.312,27.846-14.287,42.089-20.781
				c3.523-1.707,7.159-3.163,10.752-4.715c3.611-1.511,7.182-3.12,10.826-4.551l10.971-4.204c1.818-0.73,3.676-1.352,5.535-1.971
				l5.57-1.879c3.689-1.326,7.485-2.329,11.25-3.429c3.744-1.173,7.61-1.923,11.423-2.86c1.913-0.445,3.867-0.715,5.799-1.081
				c0.971-0.159,1.932-0.371,2.912-0.487l2.94-0.338c0.983-0.095,1.955-0.263,2.947-0.299l2.971-0.14
				c2.006-0.035,3.938-0.026,6.074,0.345l-0.526,2.077c-0.024-0.006-0.237-0.094-0.94-0.168c-0.339-0.034-0.743-0.111-1.253-0.135
				c-0.512-0.019-1.105-0.041-1.776-0.067c-1.338-0.07-3.025,0.084-4.987,0.136c-0.984,0.107-2.042,0.222-3.17,0.344
				c-1.127,0.138-2.33,0.21-3.587,0.462c-10.108,1.52-24.343,5.272-40.882,11.312c-33.167,11.96-75.208,33.317-115.853,56.783
				c-2.566,1.424-5.086,2.928-7.598,4.44c-2.517,1.504-5.031,3.006-7.54,4.505c-5.018,2.997-10.016,5.983-14.974,8.944
				c-4.994,2.926-9.947,5.828-14.84,8.694c-2.421,1.48-4.966,2.706-7.429,4.034c-2.477,1.304-4.936,2.598-7.375,3.881
				c-19.636,10.02-39.191,16.983-56.465,20.433c-1.079,0.218-2.147,0.433-3.203,0.646c-1.055,0.218-2.097,0.437-3.148,0.542
				c-2.09,0.268-4.13,0.53-6.119,0.785c-0.995,0.118-1.973,0.273-2.945,0.355c-0.975,0.05-1.937,0.1-2.885,0.149
				c-1.895,0.097-3.735,0.191-5.518,0.282c-1.782,0.068-3.511-0.068-5.175-0.091c-1.664-0.064-3.271-0.064-4.806-0.178
				c-3.061-0.37-5.878-0.623-8.392-1.014c-2.494-0.514-4.716-0.971-6.643-1.368c-1.903-0.489-3.483-1.03-4.766-1.41
				c-1.278-0.402-2.249-0.697-2.873-0.934C590.054,2014.287,589.766,2014.138,589.824,2014.119z"/>
		</g>
	</g>
	<g>
		<g>
			<path style="fill:#0B3811;" d="M1901.071,1790.094c-2.384-0.208-4.875-0.48-7.329-0.917c-0.619-0.098-1.221-0.239-1.853-0.32
				c-0.636-0.083-1.268-0.167-1.898-0.249c-1.262-0.178-2.518-0.378-3.76-0.596c-2.453-0.524-5.002-0.711-7.389-1.116
				c-1.203-0.173-2.366-0.41-3.524-0.558c-1.167-0.126-2.303-0.248-3.401-0.367c-1.097-0.14-2.155-0.276-3.17-0.406
				c-0.506-0.072-1.002-0.143-1.485-0.211c-0.486-0.056-0.968-0.073-1.432-0.113c-1.86-0.138-3.508-0.291-4.881-0.434
				c-1.375-0.129-2.467-0.308-3.23-0.342c-0.763-0.044-1.18-0.068-1.18-0.068s-0.035-0.836,0.163-2.202
				c0.2-1.365,0.63-3.259,1.62-5.366c0.994-2.142,2.547-4.355,5.093-6.399c1.273-1.021,2.796-1.994,4.622-2.867
				c0.913-0.437,1.903-0.848,2.975-1.228c1.072-0.376,2.23-0.604,3.477-0.847c9.949-2.286,24.011,0.619,34.736,5.663
				c2.735,1.132,5.143,2.588,7.351,3.861c1.098,0.66,2.134,1.283,3.098,1.863c0.958,0.599,1.786,1.244,2.567,1.797
				c3.094,2.256,4.91,3.735,4.91,3.735s-0.399,0.747-1.34,1.756c-0.939,1.011-2.424,2.279-4.531,3.384
				C1917.049,1789.819,1910.508,1791.127,1901.071,1790.094z"/>
		</g>
		<g>
			<path style="fill:#0B3811;" d="M1910.893,1828.534c-2.737-4.223-5.366-8.278-7.887-12.167c-1.298-1.847-2.391-3.815-3.639-5.469
				c-1.21-1.693-2.234-3.476-3.371-4.905c-1.091-1.488-2.073-2.914-2.947-4.2c-0.938-1.188-1.748-2.261-2.413-3.164
				c-1.331-1.805-2.065-2.917-2.065-2.917s1.274,0.055,3.572,0.362c1.149,0.156,2.558,0.374,4.195,0.692
				c1.571,0.422,3.364,0.955,5.344,1.625c0.498,0.173,1.005,0.349,1.519,0.528c0.513,0.191,1.002,0.437,1.52,0.668
				c1.026,0.474,2.092,0.987,3.19,1.543c2.254,1.047,4.359,2.57,6.651,4.143c1.165,0.771,2.194,1.726,3.29,2.671
				c1.068,0.968,2.208,1.933,3.224,3.032c1.01,1.104,2.016,2.252,3.007,3.443l0.741,0.901l0.676,0.953
				c0.441,0.647,0.884,1.296,1.33,1.95c3.484,5.293,5.79,10.911,7.054,16.185c1.293,5.273,1.729,10.146,1.63,14.241
				c-0.088,4.097-0.601,7.389-1.106,9.639c-0.514,2.255-0.985,3.463-0.985,3.463s-0.729-1.117-1.94-2.973
				c-1.278-1.901-3.062-4.556-5.123-7.621c-2.086-3.122-4.61-6.678-7.223-10.498
				C1916.538,1836.816,1913.713,1832.778,1910.893,1828.534z"/>
		</g>
		<g>
			<path style="fill:#0B3811;" d="M1835.965,1773.72c-1.967,1.171-4.089,2.229-6.294,3.183c-1.099,0.497-2.233,0.884-3.353,1.399
				c-1.123,0.499-2.258,0.975-3.398,1.427c-2.28,0.905-4.577,1.718-6.825,2.444c-2.239,0.768-4.399,1.609-6.462,2.273
				c-2.059,0.685-4.004,1.281-5.765,1.791c-1.76,0.51-3.301,1.094-4.611,1.484c-2.609,0.824-4.212,1.249-4.212,1.249
				s-1.332-3.093-1.031-7.681c0.156-2.295,0.734-4.967,2.161-7.826c0.714-1.43,1.641-2.906,2.836-4.406
				c1.206-1.475,2.729-2.88,4.564-4.313c3.698-2.81,8.284-5.475,13.44-7.235c2.548-0.938,5.169-1.78,7.765-2.531
				c2.64-0.66,5.305-1.135,7.821-1.579c1.261-0.216,2.491-0.411,3.678-0.588c0.595-0.085,1.178-0.169,1.746-0.251
				c0.575-0.068,1.155-0.093,1.711-0.136c2.233-0.152,4.238-0.247,5.918-0.306c1.68-0.059,3.033-0.081,3.966-0.09
				c0.467-0.002,0.828-0.004,1.072-0.005c0.249,0.014,0.38,0.022,0.38,0.022s0.123,0.844,0.002,2.217
				c-0.116,1.383-0.491,3.25-1.392,5.432c-0.902,2.171-2.347,4.598-4.567,7.002c-1.109,1.202-2.411,2.398-3.931,3.554
				c-0.76,0.578-1.575,1.146-2.448,1.7C1837.865,1772.509,1836.95,1773.146,1835.965,1773.72z"/>
		</g>
		<g>
			<path style="fill:#0B3811;" d="M1772.609,1785.037c-2.989,3.304-6.754,6.359-10.716,9.079c-2.048,1.363-4.044,2.691-5.962,3.967
				c-1.973,1.275-3.928,2.456-5.794,3.529c-3.736,2.144-7.108,3.861-9.519,5.071c-2.424,1.201-3.932,1.86-3.932,1.86
				s-1.764-2.864-2.223-7.421c-0.23-2.278-0.136-4.978,0.656-7.951c0.396-1.486,0.967-3.041,1.759-4.644
				c0.832-1.613,1.988-3.302,3.407-5.022c2.858-3.445,6.665-6.73,10.775-9.716c4.23-2.818,8.773-5.331,12.942-7.422
				c2.06-1.079,4.123-1.923,5.994-2.667c1.868-0.748,3.553-1.386,4.969-1.903c2.831-1.034,4.582-1.586,4.582-1.586
				s1.44,3.035,1.222,7.673C1780.565,1772.52,1778.73,1778.752,1772.609,1785.037z"/>
		</g>
		<g>
			<path style="fill:#0B3811;" d="M1714.497,1806.986c-1.319,1.692-2.844,3.36-4.522,4.926c-1.686,1.542-3.514,3.021-5.408,4.423
				c-3.789,2.804-7.844,5.301-11.566,7.383c-3.725,2.071-7.1,3.774-9.572,4.87c-2.477,1.082-4.014,1.667-4.014,1.667
				s-1.628-2.944-1.879-7.514c-0.253-4.569,0.866-10.709,6.195-17.385c2.67-3.318,6.148-6.414,9.862-9.19
				c1.857-1.388,3.774-2.697,5.678-3.913c1.907-1.203,3.797-2.345,5.595-3.434c7.205-4.281,13.104-6.867,13.104-6.867
				s1.744,2.872,2.195,7.432C1720.615,1793.945,1719.764,1800.196,1714.497,1806.986z"/>
		</g>
		<g>
			<path style="fill:#0B3811;" d="M1657.378,1827.611c-5.609,6.386-14.68,11.722-22.347,15.452
				c-7.723,3.52-14.001,5.505-14.001,5.505s-1.4-3.049-1.323-7.643c0.071-4.592,1.606-10.727,7.284-16.839
				c2.841-2.993,6.439-5.992,10.252-8.529c3.812-2.564,7.833-4.792,11.504-6.624c3.667-1.892,6.981-3.479,9.385-4.522
				c2.402-1.056,3.891-1.625,3.891-1.625s1.597,2.955,1.836,7.529C1664.092,1814.889,1662.959,1821.086,1657.378,1827.611z"/>
		</g>
		<g>
			<path style="fill:#0B3811;" d="M1888.626,1809.395c-0.76-1.759-1.841-3.45-3.078-5.183c-0.316-0.422-0.623-0.879-0.979-1.271
				c-0.37-0.388-0.737-0.775-1.103-1.159c-0.755-0.769-1.548-1.53-2.369-2.28c-1.603-1.582-3.503-2.722-5.346-3.951
				c-0.934-0.586-1.855-1.204-2.805-1.708c-0.962-0.469-1.918-0.918-2.856-1.346c-0.952-0.42-1.871-0.826-2.752-1.215
				c-0.449-0.189-0.888-0.375-1.316-0.556c-0.435-0.165-0.871-0.284-1.292-0.42c-1.688-0.524-3.215-0.963-4.498-1.315
				c-1.286-0.338-2.318-0.649-3.046-0.763c-0.73-0.113-1.129-0.175-1.129-0.175s-0.247,0.807-0.408,2.176
				c-0.163,1.369-0.235,3.301,0.055,5.543c0.297,2.207,0.916,4.866,2.056,7.595c0.57,1.365,1.267,2.751,2.112,4.123
				c0.422,0.686,0.881,1.368,1.38,2.041c0.497,0.677,0.98,1.447,1.529,2.153c1.085,1.437,2.272,2.764,3.519,3.971
				c1.147,1.365,2.342,2.614,3.559,3.736c2.318,2.409,4.565,4.508,6.397,6.431c1,0.856,1.757,1.849,2.528,2.611
				c0.38,0.389,0.745,0.743,1.091,1.065c0.341,0.328,0.604,0.696,0.878,0.985c1.065,1.194,1.784,1.817,1.784,1.817
				s0.618-0.566,1.53-1.599c0.91-1.035,2.119-2.533,3.234-4.46C1889.476,1822.425,1891.542,1816.626,1888.626,1809.395z"/>
		</g>
		<g>
			<path style="fill:#0B3811;" d="M1836.432,1796.681c-1.742-1.017-3.687-1.907-5.761-2.684c-1.038-0.368-2.105-0.794-3.199-1.038
				c-1.093-0.26-2.208-0.493-3.333-0.702c-2.252-0.417-4.549-0.734-6.813-0.974c-2.26-0.196-4.471-0.153-6.575-0.15
				c-2.102,0.024-4.09,0.097-5.887,0.193c-1.797,0.096-3.377,0.377-4.709,0.546c-2.659,0.382-4.266,0.692-4.266,0.692
				s0.224,3.347,2.433,7.36c1.099,2.008,2.681,4.185,4.909,6.208c1.114,1.011,2.388,1.984,3.841,2.877
				c1.453,0.92,3.077,1.863,4.896,2.651c3.63,1.635,7.734,2.485,11.675,3.509c1.984,0.449,3.958,0.796,5.873,1.06
				c1.885,0.36,3.675,0.732,5.375,0.976c0.848,0.129,1.669,0.239,2.456,0.334c0.394,0.045,0.78,0.088,1.156,0.131
				c0.372,0.051,0.718,0.136,1.064,0.196c1.375,0.259,2.598,0.449,3.619,0.587c1.021,0.138,1.841,0.225,2.406,0.278
				c0.283,0.024,0.502,0.043,0.65,0.056c0.142,0.023,0.216,0.035,0.216,0.035s0.16-0.814,0.243-2.191
				c0.077-1.368,0.1-3.341-0.288-5.539c-0.385-2.209-1.154-4.701-2.682-7.215c-0.765-1.257-1.72-2.52-2.916-3.756
				c-0.598-0.618-1.256-1.229-1.981-1.83C1838.107,1797.692,1837.301,1797.201,1836.432,1796.681z"/>
		</g>
		<g>
			<path style="fill:#0B3811;" d="M1779.421,1806.969c-4.048-0.939-8.681-1.166-13.358-0.978c-1.168,0.051-2.344,0.111-3.504,0.223
				c-1.151,0.142-2.296,0.305-3.426,0.485c-2.26,0.359-4.459,0.782-6.532,1.228c-4.143,0.888-7.781,1.879-10.382,2.689
				c-2.598,0.794-4.151,1.349-4.151,1.349s0.707,3.284,3.56,6.89c1.427,1.803,3.392,3.685,6.084,5.274
				c1.346,0.794,2.874,1.515,4.607,2.115c1.699,0.621,3.51,1.176,5.552,1.557c4.068,0.772,8.527,0.866,12.921,0.569
				c4.409-0.09,8.747-0.565,12.58-1.167c1.917-0.342,3.703-0.553,5.307-0.787c1.604-0.239,3.025-0.484,4.209-0.706
				c2.366-0.444,3.784-0.792,3.784-0.792s-0.346-3.346-2.605-7.28C1791.794,1813.707,1787.583,1809.195,1779.421,1806.969z"/>
		</g>
		<g>
			<path style="fill:#0B3811;" d="M1722.806,1828.396c-2.135-0.332-4.381-0.465-6.7-0.495c-2.33-0.054-4.716,0.029-7.095,0.211
				c-4.759,0.364-9.49,1.123-13.684,1.975c-4.199,0.841-7.845,1.821-10.476,2.503c-2.636,0.668-4.215,1.149-4.215,1.149
				s0.552,3.313,3.24,7.048c2.688,3.734,7.551,7.931,16.115,9.369c4.291,0.738,9.122,0.755,13.955,0.363
				c2.417-0.196,4.833-0.493,7.183-0.854c2.357-0.349,4.63-0.786,6.742-1.289c8.487-1.951,14.831-4.227,14.831-4.227
				s-0.687-3.292-3.531-6.901C1736.33,1833.637,1731.337,1829.706,1722.806,1828.396z"/>
		</g>
		<g>
			<path style="fill:#0B3811;" d="M1664.546,1849.43c-8.525-1.847-19.129-1.082-27.604,0.137
				c-8.542,1.014-14.953,2.565-14.953,2.565s0.304,3.354,2.708,7.257c2.409,3.901,6.93,8.348,15.555,10.474
				c4.345,1.116,9.151,1.293,14.055,1.168c4.891-0.148,9.816-0.708,14.205-1.388c4.357-0.73,8.126-1.656,10.844-2.338
				c2.71-0.693,4.338-1.19,4.338-1.19s-0.522-3.323-3.196-7.063C1677.827,1855.309,1673.011,1851.148,1664.546,1849.43z"/>
		</g>
		<g>
			<path style="fill:#0B3811;" d="M1889.369,1796.563c-0.83-0.519-1.729-0.906-2.614-1.321l-2.656-1.239
				c-0.89-0.401-1.759-0.853-2.667-1.211l-2.753-1.005l-2.753-1.005l-1.376-0.503c-0.465-0.146-0.941-0.261-1.411-0.393
				l-5.655-1.534c-0.934-0.29-1.903-0.433-2.862-0.615l-2.881-0.531c-1.924-0.332-3.83-0.781-5.783-0.912l-5.828-0.6l-1.457-0.15
				c-0.486-0.04-0.976-0.034-1.463-0.053l-2.928-0.08c-15.626-0.494-31.233,1.606-46.449,5.056
				c-7.649,1.604-15.121,3.917-22.614,6.109l-11.097,3.763l-2.774,0.941c-0.92,0.327-1.823,0.7-2.736,1.048l-5.461,2.122
				c-14.583,5.6-29.022,11.662-43.63,17.24l-21.984,8.204c-7.354,2.662-14.779,5.13-22.166,7.704
				c-14.829,4.987-29.785,9.611-44.889,13.725c-3.752,1.116-7.575,1.968-11.372,2.92c-3.807,0.909-7.59,1.921-11.418,2.746
				l-11.505,2.381c-1.911,0.427-3.845,0.742-5.78,1.053l-5.8,0.957c-3.855,0.714-7.763,1.092-11.656,1.57
				c-3.885,0.554-7.82,0.671-11.734,0.981c-1.96,0.131-3.932,0.083-5.898,0.132c-0.984,0.001-1.967,0.054-2.952,0.011l-2.956-0.141
				c-0.985-0.064-1.972-0.055-2.956-0.18l-2.955-0.341c-1.986-0.289-3.891-0.609-5.939-1.32l0.854-1.965
				c0.023,0.01,0.218,0.131,0.901,0.318c0.329,0.088,0.715,0.229,1.215,0.335c0.503,0.101,1.084,0.219,1.742,0.352
				c1.31,0.285,2.999,0.405,4.944,0.67c0.989,0.053,2.051,0.11,3.184,0.171c1.134,0.046,2.333,0.168,3.615,0.123
				c10.221,0.129,24.875-1.279,42.17-4.574c34.662-6.457,79.596-20.757,123.492-37.363c2.762-0.992,5.492-2.07,8.215-3.157
				c2.726-1.078,5.449-2.156,8.167-3.23c5.436-2.149,10.85-4.29,16.22-6.413c5.4-2.082,10.757-4.148,16.048-6.188
				c2.628-1.071,5.337-1.87,7.983-2.784c2.655-0.887,5.29-1.768,7.904-2.642c20.995-6.724,41.416-10.443,59.02-11.063
				c1.1-0.041,2.189-0.081,3.265-0.121c1.076-0.045,2.141-0.093,3.194-0.027c2.105,0.072,4.162,0.143,6.166,0.212
				c1.001,0.044,1.992,0.048,2.964,0.124c0.97,0.108,1.928,0.214,2.871,0.318c1.886,0.21,3.717,0.414,5.491,0.611
				c1.77,0.22,3.454,0.633,5.093,0.924c1.632,0.332,3.218,0.591,4.714,0.951c2.961,0.858,5.701,1.563,8.119,2.354
				c2.379,0.909,4.497,1.719,6.335,2.421c1.799,0.789,3.271,1.578,4.476,2.16c1.196,0.603,2.107,1.05,2.685,1.385
				C1889.169,1796.36,1889.429,1796.553,1889.369,1796.563z"/>
		</g>
	</g>
	<g>
		<path style="fill:#0B3811;" d="M942.895,1899.981c-0.358-0.178-0.87-0.512-1.54-1.004c-0.669-0.49-1.339-1.071-2.008-1.741
			c-0.669-0.669-1.138-1.272-1.405-1.808c-0.268-0.445-0.247-1.249,0.067-2.41c0.312-1.16,0.646-1.741,1.004-1.741
			c0.268,0.18,0.713-0.134,1.339-0.937c0.623-0.802,1.249-1.673,1.875-2.61c0.623-0.937,0.937-1.494,0.937-1.674
			c0.088-0.356,0.335-0.646,0.736-0.87c0.402-0.221,0.78-0.468,1.138-0.737c0.445-0.713,1.048-1.45,1.807-2.209
			c0.758-0.757,1.36-1.406,1.808-1.942c0.714-0.891,2.008-2.229,3.883-4.017c1.874-1.784,3.703-3.614,5.49-5.489
			c1.874-2.053,3.525-3.86,4.954-5.423c1.427-1.56,2.186-2.654,2.276-3.28c0.623-0.623,1.159-1.071,1.607-1.339
			c0.445-0.267,1.048-0.714,1.808-1.339c0.757-0.623,1.406-1.206,1.941-1.741c0.177-0.714,0.69-1.718,1.54-3.013
			c0.847-1.293,1.717-2.387,2.611-3.28c0.714-1.072,1.383-2.253,2.008-3.549c0.623-1.293,1.025-2.253,1.205-2.879
			c0.268-0.982,0.268-1.583,0-1.808c-0.267-0.221-1.385-0.646-3.347-1.272c-2.143-0.713-4.485-1.004-7.029-0.87
			c-2.544,0.134-5.379,1.318-8.502,3.549c-1.251,0.267-2.389,0.626-3.414,1.071c-1.027,0.448-1.898,0.626-2.611,0.535
			c-0.358-0.178-0.759-0.579-1.205-1.205c-0.448-0.623-0.937-1.205-1.473-1.741l-1.339-2.811l4.151-2.277
			c3.659-2.32,6.984-3.926,9.975-4.819c2.989-0.892,5.734-0.937,8.234-0.135c0.981,0,2.276,0.224,3.883,0.67
			c0.714-0.087,1.607,0.291,2.678,1.138c1.071,0.85,2.12,1.897,3.146,3.146c1.025,1.251,1.808,2.5,2.343,3.749
			c1.427,2.142,1.896,4.398,1.406,6.762c-0.492,2.365-1.854,5.201-4.084,8.502c-0.448,0.536-1.429,1.654-2.946,3.348
			c-1.519,1.697-3.236,3.594-5.155,5.69c-1.92,2.099-3.661,3.95-5.222,5.557c-1.562,1.606-2.567,2.634-3.013,3.079
			c-0.626,0.268-1.673,1.184-3.146,2.745c-1.473,1.562-3.036,3.259-4.686,5.088c-1.653,1.83-3.036,3.437-4.151,4.819
			c-1.117,1.385-1.586,2.076-1.405,2.076c-0.09,0.357,0.044,0.515,0.401,0.468c0.356-0.044,0.937-0.201,1.741-0.468
			c1.339-0.447,3.101-0.892,5.288-1.34c2.186-0.445,4.44-0.824,6.762-1.138c2.32-0.312,4.352-0.512,6.092-0.603
			c1.74-0.087,2.745,0,3.013,0.269c0.178,0.448,0.402,0.535,0.669,0.267c0.178-0.623,1.316-0.804,3.414-0.536
			c2.096,0.269,3.994,0.67,5.69,1.206c0.982,0.268,1.762,0.491,2.343,0.669c0.58,0.18,0.87,0.448,0.87,0.803
			c0.445,0.804,0.937,1.519,1.473,2.142c1.426,1.162,1.607,1.921,0.536,2.277c-1.071,0.357-3.393,0.223-6.962-0.402
			c-2.322,0-4.241,0.134-5.757,0.402c-0.358,0.179-1.117,0.267-2.276,0.267c-1.161,0-2.276,0.045-3.348,0.134
			c-1.607-0.178-3.213-0.111-4.82,0.201c-1.607,0.314-3.528,0.826-5.758,1.54c-0.803,0.267-2.054,0.669-3.749,1.205
			c-1.697,0.535-3.527,1.071-5.49,1.606c-1.965,0.536-3.728,0.937-5.289,1.206C944.345,1899.981,943.341,1900.07,942.895,1899.981z"
			/>
		<path style="fill:#0B3811;" d="M1014.393,1900.918c-2.232,0-4.398-0.245-6.494-0.737c-2.098-0.49-3.772-1.158-5.021-2.008
			c-1.251-0.847-1.83-1.808-1.741-2.879c0.088-1.427,0.402-2.209,0.937-2.343c0.536-0.134,1.785-0.067,3.749,0.201
			c3.034,0.626,6.293,0.67,9.774,0.134c3.481-0.535,6.739-1.472,9.774-2.812c3.033-1.339,5.4-2.855,7.096-4.552
			c2.41-2.32,3.502-4.64,3.28-6.963c-0.224-2.32-1.63-4.328-4.217-6.025c-1.161-0.804-2.768-1.561-4.82-2.276
			c-2.054-0.714-4.084-1.273-6.092-1.674c-2.008-0.401-3.638-0.557-4.887-0.468c-0.803,0.089-1.452,0.089-1.941,0
			c-0.492-0.089-1.318-0.447-2.477-1.071c-0.536-0.624-1.027-1.316-1.473-2.076c-0.448-0.757-0.759-1.316-0.937-1.673
			c-0.09-0.446,0.155-0.891,0.736-1.34c0.58-0.445,1.852-1.225,3.816-2.343c1.963-1.115,4.998-2.788,9.105-5.021
			c3.749-2.053,6.715-3.726,8.904-5.021c2.186-1.293,3.927-2.364,5.222-3.213c1.293-0.848,2.343-1.628,3.146-2.343
			c1.607-2.143,2.41-3.526,2.41-4.152c0-0.623-1.161-1.158-3.481-1.606c-2.232-0.178-4.374-0.312-6.427-0.402
			c-2.054-0.087-3.079,0.046-3.079,0.402c-0.089,0-0.267,0-0.536,0c-0.448-0.178-1.429-0.134-2.946,0.134
			c-1.519,0.268-2.968,0.581-4.351,0.937c-1.385,0.358-2.122,0.67-2.21,0.937c-0.09,0.18-0.602,0.468-1.54,0.87
			c-0.937,0.401-1.874,0.736-2.811,1.004c-0.937,0.268-1.54,0.401-1.808,0.401c-0.448-0.178-0.96-0.646-1.54-1.405
			c-0.581-0.757-1.05-1.561-1.406-2.411c-0.358-0.847-0.448-1.494-0.268-1.941c0.177-0.355,0.736-0.824,1.673-1.406
			c0.937-0.579,2.029-1.205,3.281-1.875c1.249-0.67,2.364-1.225,3.347-1.674c1.249-0.355,3.013-0.624,5.289-0.802
			c2.276-0.178,4.573-0.289,6.896-0.335c2.319-0.043,4.016-0.021,5.088,0.067c4.105,0.448,7.274,1.52,9.506,3.214
			c2.23,1.697,3.615,3.973,4.151,6.828c0.267,1.251,0.355,2.277,0.267,3.079c-0.089,0.804-0.491,1.63-1.205,2.478
			c-0.716,0.849-1.965,2.075-3.749,3.682c-2.232,1.428-4.063,2.634-5.489,3.615c-1.429,0.984-3.571,2.233-6.427,3.749
			c-0.626,0.448-1.473,1.027-2.544,1.741c-1.071,0.715-2.055,1.361-2.946,1.942c-0.894,0.581-1.339,0.96-1.339,1.138
			c0.714,0.448,1.339,0.849,1.875,1.205c0.536,0.358,1.025,0.759,1.473,1.205c2.588,0.893,4.954,2.322,7.096,4.284
			c2.142,1.965,3.659,3.571,4.552,4.82c1.249,2.768,1.761,5.446,1.54,8.034c-0.224,2.59-1.138,5.021-2.745,7.297
			c-1.607,2.277-3.973,4.352-7.097,6.227c-2.5,1.428-5.402,2.61-8.703,3.548C1020.328,1900.181,1017.249,1900.74,1014.393,1900.918z
			"/>
		<path style="fill:#0B3811;" d="M1104.635,1915.78c-1.697,0.267-3.26,0.422-4.686,0.468c-1.429,0.044-3.528-0.29-6.293-1.004
			c-1.429-0.448-2.433-0.983-3.013-1.606c-0.581-0.626-1.54-1.787-2.879-3.482c-0.983-1.429-1.673-2.745-2.075-3.95
			c-0.402-1.205-0.469-2.142-0.201-2.812c0.268-0.669,0.847-0.87,1.74-0.602c0.268,0.09,0.69,0.379,1.272,0.87
			c0.579,0.489,1.138,1.092,1.673,1.807c1.249,1.34,2.766,2.231,4.552,2.678c1.785,0.445,4.151,0.49,7.096,0.134
			c1.249-0.267,2.766-0.648,4.552-1.138c1.785-0.492,3.525-1.094,5.222-1.808c1.695-0.715,3.034-1.428,4.017-2.142
			c4.73-3.213,9.952-6.695,15.665-10.443c0.178-0.356,0.512-0.647,1.004-0.87c0.49-0.222,1.092-0.469,1.808-0.737
			c0.536-0.535,1.406-1.383,2.611-2.543c1.205-1.16,2.364-2.32,3.481-3.482c1.115-1.158,1.807-1.828,2.075-2.008
			c0.178-0.804,0.355-1.45,0.536-1.942c0.178-0.49,0.267-1.004,0.267-1.539c0.714-0.714,1.674-2.21,2.879-4.486
			c1.205-2.276,2.431-4.82,3.682-7.631c1.249-2.812,2.142-5.377,2.678-7.699c1.249-6.247,1.561-11.515,0.937-15.8
			c-0.626-4.284-1.898-7.967-3.816-11.046c-1.921-3.079-4.307-5.825-7.163-8.234c-0.983-0.803-2.343-1.674-4.084-2.611
			c-1.741-0.937-3.548-1.761-5.423-2.476c-1.875-0.713-3.504-1.293-4.887-1.741c-1.385-0.445-2.209-0.623-2.477-0.535
			c-0.358,0.089-1.094,1.495-2.209,4.217c-1.117,2.724-2.433,6.182-3.95,10.376c-1.519,4.197-3.146,8.659-4.887,13.39
			c-1.74,4.732-3.37,9.194-4.887,13.389c-0.536,1.697-1.117,3.481-1.741,5.355c-0.626,1.875-1.161,3.504-1.607,4.887
			c-0.448,1.385-0.669,2.3-0.669,2.745c-0.984,1.519-1.764,3.527-2.343,6.025c-0.581,2.5-1.228,6.651-1.942,12.452
			c-0.803,3.036-1.385,5.335-1.74,6.896c-0.358,1.563-0.716,2.3-1.072,2.209c-0.09,0.091-0.268,0.269-0.536,0.536
			c0,0.535-0.358,0.804-1.071,0.804c-0.715,0-1.54-0.202-2.477-0.603c-0.937-0.401-1.674-0.87-2.209-1.406
			c-0.268-0.982-0.425-1.919-0.469-2.812c-0.046-0.891,0.289-2.632,1.004-5.222c0.446-1.694,1.004-3.771,1.674-6.227
			c0.67-2.454,1.406-4.997,2.209-7.631c0.803-2.632,1.561-5.065,2.276-7.297c0.714-2.231,1.249-3.927,1.607-5.089
			c0.623-1.517,1.517-4.372,2.678-8.569c0.714-2.32,1.45-4.64,2.209-6.962c0.757-2.32,1.494-4.395,2.209-6.226
			c0.713-1.828,1.205-3.013,1.473-3.549c0.445-1.158,1.115-3.124,2.008-5.891c0.891-2.766,2.052-5.845,3.481-9.238l0.937-4.418
			l-1.473-0.67c-1.071,0.358-1.897,0.469-2.477,0.334c-0.581-0.134-0.96-0.244-1.138-0.334c-0.536,0.18-1.295,0.046-2.276-0.401
			c-0.984-0.445-1.854-1.026-2.611-1.741c-0.759-0.713-1.228-1.339-1.405-1.875c-0.18-0.356-0.314-1.115-0.402-2.276
			c0.088-0.536,0.757-1.048,2.008-1.54c1.249-0.49,2.879-0.914,4.887-1.272c2.008-0.356,4.194-0.603,6.561-0.737
			c2.364-0.134,4.663-0.11,6.895,0.067c2.32,0.18,4.506,0.67,6.561,1.473c2.053,0.804,4.285,1.652,6.695,2.543
			c2.856,1.071,5.868,2.925,9.038,5.557c3.167,2.634,6.069,5.736,8.703,9.305c2.632,3.571,4.395,7.321,5.289,11.247
			c0.268,1.071,0.536,2.591,0.803,4.553c0.268,1.964,0.423,3.861,0.469,5.691c0.044,1.83-0.157,3.013-0.602,3.548
			c-0.18,0.358-0.291,0.783-0.335,1.272c-0.046,0.492,0.111,0.827,0.469,1.004c-0.09,0.269-0.402,1.273-0.937,3.013
			c-0.536,1.741-1.027,3.237-1.473,4.486c-0.18,2.322-0.715,4.732-1.607,7.23c-0.893,2.5-1.875,4.843-2.946,7.029
			c-1.071,2.189-2.054,4.039-2.946,5.557c-0.358,0-0.693,0.067-1.004,0.201c-0.313,0.134-0.291,0.247,0.067,0.334
			c0,0.448-0.492,1.295-1.473,2.545c-0.358,0.267-0.916,0.916-1.674,1.941c-0.759,1.027-1.362,1.719-1.807,2.075
			c-0.09,0.626-0.358,1.138-0.804,1.539c-0.448,0.402-0.849,0.603-1.205,0.603c-0.268,0-0.402,0.18-0.402,0.535
			c-0.716,1.071-1.83,2.344-3.348,3.816c-1.519,1.473-3.236,2.992-5.155,4.553c-1.921,1.563-3.883,3.013-5.891,4.351
			c-2.008,1.339-3.906,2.364-5.69,3.079c-0.893,0.623-1.83,1.138-2.812,1.54c-0.983,0.401-1.92,0.824-2.811,1.272
			c-0.448,0.356-1.429,0.87-2.946,1.539c-1.519,0.67-3.146,1.316-4.887,1.942C1107.514,1915.064,1105.974,1915.512,1104.635,1915.78
			z"/>
		<path style="fill:#0B3811;" d="M1190.19,1898.373c-1.875,1.607-4.04,2.544-6.494,2.812c-2.456,0.267-4.844-0.111-7.164-1.138
			c-2.322-1.025-4.241-2.611-5.757-4.754c-1.519-1.962-2.5-4.217-2.946-6.761c-0.448-2.544-0.492-5.869-0.134-9.975
			c0.268-3.482,1.383-6.984,3.347-10.511c1.963-3.525,4.352-6.671,7.164-9.439c2.811-2.766,5.6-4.687,8.368-5.758
			c1.339-0.891,2.477-1.316,3.414-1.272c0.937,0.045,2.387,0.156,4.352,0.334c2.052,0.267,3.592,0.67,4.619,1.205
			c1.025,0.536,1.851,1.251,2.477,2.142c1.339,1.34,2.23,2.658,2.678,3.95c0.446,1.296,0.67,2.567,0.67,3.816
			c-0.358,1.964-1.674,4.351-3.95,7.163c-2.276,2.812-5.245,5.112-8.904,6.896c-1.964,0.626-4.107,0.893-6.427,0.804
			c-2.322-0.089-4.241-0.67-5.757-1.741c-1.697-0.713-2.812-0.602-3.348,0.335c-0.536,0.936-1.027,3.192-1.473,6.761
			c-0.358,3.393-0.09,5.871,0.804,7.432c0.891,1.563,2.096,2.477,3.615,2.744c1.785,0.358,3.191,0.603,4.217,0.737
			c1.025,0.134,2.297-0.245,3.816-1.138c1.427-0.891,2.32-1.405,2.678-1.54c0.356-0.134,0.647-0.312,0.87-0.535
			c0.222-0.222,0.78-0.781,1.673-1.674c0.623-0.623,1.115-1.092,1.473-1.405c0.356-0.312,0.758-0.469,1.205-0.469
			c0.445,0,0.847,0.202,1.205,0.603c0.356,0.401,0.714,0.693,1.071,0.87c0.891,0,1.092,0.535,0.602,1.606
			c-0.491,1.072-1.452,2.344-2.878,3.816C1193.849,1895.763,1192.152,1897.124,1190.19,1898.373z M1190.056,1869.989
			c0.982-0.445,2.008-1.092,3.079-1.942c1.072-0.847,1.986-1.784,2.745-2.812c0.757-1.025,1.138-1.895,1.138-2.61
			c0-1.249-0.581-2.297-1.74-3.146c-1.161-0.848-2.902-0.959-5.222-0.335c-0.983,0.269-2.098,0.917-3.347,1.941
			c-1.251,1.028-2.433,2.166-3.548,3.415c-1.117,1.25-2.008,2.365-2.678,3.347c-0.669,0.984-0.916,1.563-0.736,1.741
			c0.267,0.448,1.025,0.782,2.276,1.004c1.249,0.223,2.655,0.29,4.218,0.201C1187.801,1870.704,1189.073,1870.436,1190.056,1869.989
			z"/>
		<path style="fill:#0B3811;" d="M1224.733,1901.588c-2.59,0.448-4.954,0.29-7.096-0.469c-2.143-0.757-3.862-2.053-5.155-3.883
			c-1.295-1.828-1.942-4.171-1.942-7.029c-0.267-2.677,0.044-5.778,0.937-9.305c0.891-3.525,2.209-7.074,3.95-10.645
			c1.741-3.569,3.636-6.649,5.691-9.238c1.784-2.142,3.569-4.104,5.355-5.891c1.785-1.784,3.391-2.989,4.82-3.614
			c1.249-0.536,2.431-0.87,3.548-1.004c1.115-0.134,2.029-0.202,2.745-0.202c1.427,0.358,2.967,1.004,4.62,1.942
			c1.65,0.937,2.477,1.942,2.477,3.013l0.67,0.67c0.536,0,1.004,0.581,1.406,1.741c0.401,1.161,0.646,2.477,0.736,3.95
			c0.088,1.472-0.134,2.701-0.669,3.681c-0.358,1.697-0.984,3.17-1.875,4.419c-0.893,1.251-1.697,1.875-2.41,1.875
			c-0.358,0-0.692,0.023-1.004,0.067c-0.314,0.045-0.469,0.29-0.469,0.736c0,0.449-0.247,0.626-0.736,0.536
			c-0.492-0.087-1.004-0.379-1.54-0.87c-0.536-0.49-0.937-1.092-1.205-1.808c0-0.445,0.178-1.205,0.536-2.276
			c0.356-1.071,0.714-2.454,1.072-4.151c0.536-2.498,0.489-4.128-0.134-4.887c-0.626-0.757-1.83-0.78-3.615-0.067
			c-2.232,1.251-4.352,2.992-6.36,5.222c-2.008,2.233-3.862,5.111-5.557,8.636c-1.697,3.527-3.213,7.922-4.552,13.188
			c-0.536,2.055-0.736,3.839-0.602,5.355c0.134,1.519,0.335,2.322,0.602,2.411c1.249,0.357,2.946,0.424,5.088,0.201
			c2.143-0.222,3.703-0.603,4.687-1.138c1.427-0.714,3.034-1.674,4.82-2.879c1.785-1.205,3.348-2.297,4.687-3.28
			c0.445-0.269,0.981-0.714,1.607-1.34c0.623-0.624,1.293-1.115,2.008-1.472c0.714-1.071,1.339-1.694,1.875-1.875
			c0.536-0.178,1.339-0.267,2.41-0.267c0.714,0.179,1.383,0.448,2.008,0.802c0.623,0.358,1.048,0.716,1.272,1.072
			c0.222,0.357,0.067,0.669-0.469,0.936c-0.358,0-0.581,0.224-0.669,0.67c0.177,0.358-0.201,1.095-1.138,2.209
			c-0.937,1.117-2.121,2.344-3.548,3.682c-1.429,1.339-2.791,2.477-4.084,3.414c-1.295,0.937-2.209,1.407-2.745,1.407
			c-0.894,0-1.339,0.267-1.339,0.804c0,0.179-0.649,0.625-1.942,1.339c-1.295,0.715-2.768,1.429-4.418,2.142
			C1227.432,1900.829,1225.982,1901.319,1224.733,1901.588z"/>
		<path style="fill:#0B3811;" d="M1270.524,1903.461c-3.929,0-7.142-1.493-9.64-4.485c-2.5-2.99-3.705-6.715-3.615-11.18
			c0.178-3.213,0.824-6.672,1.942-10.377c1.115-3.703,2.611-7.273,4.485-10.711c1.874-3.435,3.927-6.448,6.159-9.038
			c2.23-2.588,4.552-4.419,6.963-5.49c0.891-0.445,1.851-0.802,2.879-1.071c1.025-0.268,2.075-0.401,3.146-0.401
			c0.981,0,2.008,0.156,3.079,0.468c1.071,0.314,1.963,0.649,2.678,1.004c1.517,0.626,2.678,1.385,3.481,2.277
			c0.804,0.893,1.517,2.276,2.142,4.151c0.268,1.697,0.402,2.901,0.402,3.614c0,0.716-0.224,1.787-0.669,3.214
			c-1.071,3.213-2.456,5.981-4.151,8.301c-1.697,2.322-3.973,4.284-6.829,5.891c-0.716,0.448-1.54,0.782-2.477,1.004
			c-0.937,0.223-1.897,0.334-2.879,0.334c-1.786,0-3.504-0.334-5.155-1.004c-1.652-0.67-2.968-1.674-3.95-3.013l-0.937-1.071
			l-0.401,1.071c-0.894,2.41-1.586,4.642-2.076,6.695c-0.491,2.054-0.736,3.928-0.736,5.623c0,1.071,0.111,2.099,0.335,3.079
			c0.222,0.984,0.557,1.83,1.004,2.544c0.355,0.535,0.958,0.916,1.807,1.138c0.847,0.224,1.762,0.334,2.745,0.334
			c0.623,0,1.272-0.021,1.942-0.067c0.669-0.043,1.316-0.201,1.941-0.468c1.517-0.536,2.745-1.115,3.682-1.741
			c0.937-0.623,1.895-1.293,2.879-2.008l0.536-0.268h-0.134c1.071-0.536,2.454-1.34,4.151-2.411c0.355,0,0.713-0.221,1.071-0.669
			c0.713-0.356,1.628-0.222,2.745,0.401c1.115,0.626,1.674,1.429,1.674,2.411c-0.09,0.448-0.492,1.138-1.205,2.075
			c-0.716,0.937-1.496,1.807-2.343,2.61c-0.849,0.804-1.54,1.251-2.075,1.34c-0.089,0.089-0.401,0.246-0.937,0.468
			c-0.536,0.224-0.893,0.425-1.071,0.603h0.134c-0.804,1.071-1.607,1.606-2.41,1.606h-1.071c-0.358,0.626-1.519,1.318-3.481,2.075
			C1274.317,1903.08,1272.399,1903.461,1270.524,1903.461z M1276.549,1874.005c1.607,0,3.013-0.468,4.218-1.405
			c1.205-0.937,2.253-1.986,3.146-3.146c1.785-2.411,2.833-4.753,3.146-7.029c0.312-2.277,0.021-3.86-0.87-4.754
			c-0.536-0.267-1.004-0.423-1.405-0.469c-0.402-0.043-1.184,0.113-2.343,0.469c-0.804,0.18-1.921,0.849-3.348,2.008
			c-1.429,1.161-2.835,2.456-4.217,3.883c-1.385,1.428-2.433,2.634-3.146,3.614l-1.741,2.812c0.714-0.267,1.406-0.423,2.075-0.468
			c0.67-0.044,1.048,0.023,1.138,0.201c0,0.803,0.155,1.539,0.469,2.209c0.312,0.67,0.713,1.184,1.205,1.54
			C1275.365,1873.827,1275.923,1874.005,1276.549,1874.005z"/>
		<path style="fill:#0B3811;" d="M1304.934,1898.106c-0.267-0.356-0.514-0.804-0.736-1.339c-0.224-0.536-0.335-0.982-0.335-1.34
			c0-0.177-0.023-0.401-0.067-0.669c-0.046-0.269-0.247-0.402-0.602-0.402c-0.268-0.268-0.067-1.316,0.602-3.146
			c0.669-1.828,1.561-3.95,2.678-6.359c1.115-2.411,2.276-4.754,3.481-7.029c1.205-2.276,2.21-4.084,3.013-5.423
			c0.445-0.268,0.737-0.646,0.87-1.138c0.134-0.49,0.111-0.736-0.067-0.736c0.981-1.694,1.607-2.678,1.874-2.946
			c0.714-1.249,1.249-2.522,1.607-3.816c0.355-1.293,0.446-2.387,0.268-3.28c-0.358-0.447-0.983-0.49-1.875-0.135
			c-0.358,0.091-0.87,0.247-1.54,0.469c-0.669,0.223-1.272,0.515-1.807,0.87c-2.055,1.429-3.438,2.075-4.151,1.942
			c-0.716-0.134-1.519-1.273-2.41-3.415c-0.358-0.98-0.492-1.695-0.402-2.142c0.088-0.445,0.445-0.937,1.071-1.472
			c0.714-0.623,1.383-1.048,2.008-1.273c0.623-0.221,1.115-0.468,1.473-0.736c0.981-0.624,1.808-1.071,2.477-1.34
			c0.669-0.267,1.182-0.445,1.54-0.535c2.32-0.714,4.285-0.848,5.891-0.402c1.607,0.449,2.811,1.607,3.615,3.482
			c1.249,1.519,1.875,3.236,1.875,5.155c0,1.921-0.626,4.13-1.875,6.628l-1.339,2.008c-0.448,0.893-0.515,1.339-0.201,1.339
			c0.312,0,0.69-0.312,1.138-0.937c0.268-0.356,0.803-0.891,1.607-1.607c0.804-0.713,1.339-1.071,1.607-1.071
			c0.445-0.177,0.669-0.579,0.669-1.205c0.268-0.267,0.714-0.669,1.339-1.205c0.355,0,1.048-0.423,2.075-1.272
			c1.025-0.848,2.253-1.852,3.682-3.013c0.981-0.714,1.875-1.071,2.678-1.071c2.053-0.623,3.726,0.045,5.021,2.008
			c1.293,1.964,1.942,4.508,1.942,7.631l-2.811,7.23l4.82-5.89c0.536-0.714,1.092-1.34,1.673-1.875
			c0.58-0.536,1.092-0.981,1.54-1.34c0.177-0.623,0.624-1.025,1.339-1.205c0.356-0.087,0.536-0.267,0.536-0.535
			c0.446-0.356,0.937-0.69,1.473-1.004c0.536-0.312,0.891-0.647,1.071-1.004c1.517-0.623,2.9-0.737,4.151-0.335
			c1.249,0.402,2.32,1.54,3.213,3.415c0.623,1.071,0.981,2.008,1.071,2.812c0.088,0.802,0.134,2.008,0.134,3.615
			c-0.18,1.339-0.334,2.389-0.469,3.146c-0.134,0.759-0.246,1.54-0.334,2.344c-0.09,0.802-0.224,1.92-0.402,3.347
			c-0.358,0.715-0.559,1.472-0.602,2.276c-0.046,0.804-0.067,1.563-0.067,2.276c0,1.162,0.044,1.941,0.134,2.344
			c0.088,0.401,0.445,0.602,1.071,0.602c1.249-0.268,2.967-0.914,5.155-1.942c2.186-1.025,3.816-2.029,4.887-3.013
			c1.339-1.248,2.521-1.895,3.548-1.94c1.025-0.044,1.674,0.468,1.942,1.539c0.178,0.358-0.113,1.162-0.87,2.41
			c-0.759,1.251-1.607,2.457-2.544,3.615c-0.937,1.162-1.63,1.741-2.075,1.741c-0.267,0-0.581,0.247-0.937,0.737
			c-0.358,0.491-0.759,0.869-1.205,1.138c-0.626,0.626-1.228,1.205-1.808,1.74c-0.581,0.536-1.228,0.804-1.942,0.804
			c-0.358,0-0.782,0.113-1.272,0.335c-0.492,0.223-1.051,0.334-1.674,0.334c-0.893,0.267-2.255,0.134-4.084-0.402
			c-1.83-0.535-3.013-1.784-3.548-3.748c-0.358-0.982-0.669-2.565-0.937-4.754c-0.267-2.186-0.224-4.395,0.134-6.628
			c0.355-1.606,0.579-3.079,0.669-4.418c0.088-1.339,0.268-2.276,0.536-2.812c0-0.267,0-0.914,0-1.942
			c0-1.025-0.134-1.539-0.402-1.539c-0.358,0-1.184,0.648-2.477,1.942c-1.295,1.294-2.811,2.924-4.552,4.887
			c-1.74,1.964-3.46,4.017-5.155,6.159c-1.697,2.142-3.079,4.062-4.151,5.757c-0.803,0.984-1.519,2.188-2.142,3.615
			c-0.626,1.429-1.072,2.233-1.339,2.41c-0.626,0.716-1.362,0.804-2.209,0.269c-0.849-0.536-1.629-1.383-2.343-2.544
			c-0.268-0.535-0.448-1.004-0.536-1.406c-0.09-0.402-0.067-0.981,0.067-1.741c0.134-0.757,0.446-1.895,0.937-3.414
			c0.489-1.518,1.182-3.66,2.075-6.427c0.981-3.033,2.23-7.006,3.749-11.917c0-0.355-0.669-0.021-2.008,1.004
			c-1.339,1.028-2.901,2.3-4.686,3.816c-0.804,0.984-2.142,2.456-4.017,4.419c-1.875,1.964-3.929,4.196-6.159,6.694
			c-2.232,2.5-4.375,5.134-6.427,7.9c-2.59,3.661-4.398,5.891-5.423,6.695C1306.919,1899.579,1305.915,1899.357,1304.934,1898.106z"
			/>
		<path style="fill:#0B3811;" d="M1389.822,1896.231c0-0.713-0.09-1.383-0.268-2.008c-0.18-0.623-0.089-1.115,0.268-1.472
			l1.071,0.267c-0.358,0.09-0.893,0.113-1.607,0.067c-0.716-0.044-1.362-0.178-1.942-0.401c-0.581-0.222-0.916-0.423-1.004-0.603
			c0.088-1.517,0.201-2.678,0.335-3.481c0.134-0.804,0.334-1.473,0.602-2.008c0-0.804,0.267-1.829,0.804-3.079
			c0.536-1.249,0.981-2.544,1.339-3.883c0.356-1.518,0.825-3.793,1.406-6.829c0.58-3.034,1.45-5.936,2.611-8.703
			c0.714-2.32,1.607-5.242,2.678-8.77c1.071-3.525,2.096-6.447,3.079-8.769c1.071-4.105,2.075-7.432,3.013-9.975
			c0.937-2.544,1.918-4.865,2.946-6.963c1.025-2.097,2.163-4.486,3.414-7.163c0.356-0.714,0.714-1.628,1.071-2.745
			c0.356-1.115,0.67-2.075,0.937-2.879c0.178-0.713,0.87-1.225,2.075-1.539c1.205-0.312,2.343,0.067,3.414,1.138
			c0.982,0.983,1.517,1.83,1.607,2.543c0.088,0.716-0.201,1.897-0.87,3.549c-0.67,1.652-1.763,4.351-3.281,8.1
			c-0.626,0.893-1.318,2.389-2.075,4.485c-0.759,2.099-1.452,3.95-2.075,5.557c-1.339,3.126-2.41,5.803-3.213,8.034
			c-0.804,2.232-1.563,4.509-2.276,6.829c-0.626,2.499-1.362,5.311-2.209,8.435c-0.849,3.126-1.72,6.072-2.611,8.837l-2.142,0.67
			c0.623-0.804,1.406-1.741,2.343-2.812c0.937-1.071,1.828-2.053,2.678-2.946c0.847-0.891,1.406-1.473,1.673-1.741
			c2.41-2.053,5.088-3.95,8.034-5.691c2.946-1.74,5.734-3.056,8.368-3.95c2.632-0.891,4.619-1.071,5.958-0.535
			c1.071,0.358,2.41,1.295,4.017,2.812c1.607,1.519,2.544,2.946,2.812,4.284c0.713,1.429,0.847,3.102,0.401,5.021
			c-0.448,1.921-1.519,4.442-3.213,7.565c-1.519,2.768-3.26,5.422-5.222,7.966c-1.965,2.545-3.839,4.666-5.624,6.361
			c-0.626,0.357-1.405,0.96-2.343,1.808c-0.937,0.849-1.763,1.673-2.477,2.476c-1.875,1.697-4.084,3.035-6.628,4.017
			c-2.544,0.984-5.067,1.586-7.565,1.808c-2.5,0.223-4.687,0.023-6.561-0.603C1391.696,1898.687,1390.445,1897.66,1389.822,1896.231
			z M1391.83,1892.617c0.446,0.09,0.891,0.156,1.339,0.201c0.446,0.045,0.937,0.067,1.473,0.067c1.962-0.267,3.636-0.557,5.021-0.87
			c1.383-0.312,2.745-0.757,4.084-1.339c1.339-0.58,2.811-1.36,4.419-2.344c2.32-1.784,4.439-3.548,6.359-5.289
			c1.918-1.741,3.726-3.682,5.423-5.824c1.517-1.962,2.879-4.284,4.084-6.963c1.205-2.677,1.808-4.774,1.808-6.293
			c0-0.804-0.224-1.205-0.67-1.205c-0.18,0-0.983,0.247-2.41,0.737c-1.429,0.491-2.879,1.071-4.352,1.74
			c-1.473,0.67-2.433,1.229-2.879,1.674c0,0.358-0.536,0.759-1.607,1.205c-2.768,2.055-4.954,3.816-6.561,5.288
			c-1.607,1.473-2.946,2.879-4.017,4.219c-0.626,0.893-1.161,1.63-1.607,2.209c-0.448,0.581-0.87,1.184-1.272,1.808
			c-0.402,0.626-0.937,1.428-1.607,2.41c-0.669,0.984-1.54,2.322-2.611,4.017c-0.626,1.162-1.406,2.276-2.343,3.347
			c-0.937,1.071-1.63,1.697-2.075,1.875V1892.617z"/>
		<path style="fill:#0B3811;" d="M1450.742,1899.847c-3.481-1.427-5.736-3.415-6.761-5.958c-1.027-2.544-1.228-6.494-0.602-11.85
			c0.177-2.766,0.268-4.596,0.268-5.489c0-0.892-0.491-1.785-1.473-2.678c-0.267-0.356-0.736-0.848-1.406-1.473
			c-0.669-0.624-0.96-1.158-0.87-1.606c-0.09-0.623-0.046-1.316,0.134-2.075c0.178-0.757,0.445-1.138,0.804-1.138
			c0.355,0,0.736-0.088,1.138-0.269c0.402-0.177,0.78-0.177,1.138,0c0.356,0,0.757,0.046,1.205,0.135
			c0.445,0.089,0.669,0.313,0.669,0.669c0.355,0.626,0.937,0.693,1.74,0.201c0.803-0.489,1.651-1.628,2.544-3.414
			c0.891-1.427,2.076-2.856,3.548-4.284c1.473-1.427,2.946-2.745,4.418-3.95c1.473-1.205,2.699-2.075,3.682-2.611
			c0.445-0.178,1.115-0.401,2.008-0.669c0.891-0.269,1.851-0.49,2.878-0.67c1.025-0.178,1.896-0.222,2.611-0.134
			c1.607,0.089,2.966,0.535,4.084,1.339c1.115,0.804,2.163,1.741,3.146,2.812c1.159,0.804,1.895,1.875,2.209,3.213
			c0.312,1.339,0.379,2.768,0.201,4.284c-0.18,1.519-0.582,2.903-1.205,4.151c-0.267,0.894-1.027,1.965-2.276,3.214
			c-1.251,1.251-2.678,2.456-4.285,3.614c-1.607,1.162-3.079,2.008-4.419,2.544c-1.161,0.268-2.657,0.492-4.485,0.669
			c-1.831,0.18-3.528,0.247-5.088,0.202c-1.562-0.044-2.611-0.202-3.146-0.469c-0.626-0.356-1.117,0.134-1.473,1.473
			c-0.358,1.339-0.625,3.26-0.803,5.757c-0.18,1.965-0.18,3.393,0,4.285c0.177,0.893,0.355,1.519,0.536,1.875
			c0.623,0.625,1.493,1.405,2.611,2.343c1.115,0.937,2.699,1.094,4.753,0.468c1.694-0.446,3.369-1.606,5.021-3.481
			c1.651-1.875,3.191-3.391,4.62-4.553c0.355-0.623,0.958-1.004,1.807-1.138c0.847-0.134,1.761-0.067,2.745,0.201
			c0.981,0.626,1.405,1.362,1.272,2.21c-0.134,0.849-0.602,2.121-1.406,3.815c-0.268,0.626-0.87,1.407-1.807,2.344
			c-0.937,0.937-1.965,1.875-3.079,2.812c-1.117,0.936-2.122,1.673-3.013,2.209c-2.678,1.428-5.178,2.165-7.498,2.209
			C1455.115,1901.031,1452.885,1900.65,1450.742,1899.847z M1458.642,1872.667c1.963-0.445,3.525-0.757,4.686-0.937
			c1.159-0.178,2.276-0.69,3.348-1.54c1.071-0.847,2.41-2.476,4.017-4.887c0.355-0.98,0.469-1.962,0.335-2.946
			c-0.134-0.98-0.381-1.65-0.737-2.008c-0.803-0.891-1.764-1.181-2.878-0.869c-1.117,0.314-2.165,0.826-3.147,1.539
			c-0.626,0.267-1.54,0.917-2.745,1.941c-1.205,1.027-2.389,2.189-3.548,3.482c-1.161,1.294-2.098,2.477-2.812,3.548
			c-0.716,1.071-0.893,1.697-0.536,1.875c-0.18,0.358,0.335,0.581,1.54,0.67C1457.37,1872.623,1458.194,1872.667,1458.642,1872.667z
			"/>
		<path style="fill:#0B3811;" d="M1487.429,1898.373c-0.804-0.623-1.362-1.249-1.674-1.875c-0.313-0.623-0.334-1.828-0.067-3.615
			c0.268-2.498,0.623-4.707,1.071-6.628c0.446-1.918,0.982-4.128,1.607-6.627c0.177-1.071,0.69-2.9,1.54-5.49
			c0.847-2.588,1.895-5.4,3.146-8.435c1.249-3.034,2.498-5.912,3.749-8.636c1.249-2.721,2.32-4.753,3.214-6.092
			c0.714-0.535,1.583-0.757,2.611-0.67c1.025,0.091,1.896,0.492,2.611,1.206c0.982,0.802,1.138,2.209,0.469,4.217
			c-0.669,2.008-2.031,5.155-4.084,9.439c-1.071,2.411-1.875,4.217-2.41,5.423c-0.536,1.205-0.759,1.92-0.669,2.142
			c0.088,0.223,0.49,0.113,1.205-0.335c0.536-0.98,1.517-2.118,2.946-3.414c1.427-1.293,2.946-2.565,4.552-3.816
			c1.607-1.249,3.124-2.363,4.552-3.347c1.427-0.981,2.41-1.607,2.946-1.875c0.714-0.445,1.54-0.824,2.477-1.138
			c0.937-0.312,1.584-0.557,1.942-0.737c2.052-0.98,4.151-1.339,6.293-1.071c2.143,0.268,3.481,1.071,4.017,2.411
			c0.088,0.715,0.623,1.428,1.607,2.142c0.355,0,0.579,0.267,0.669,0.802c0,0.626-0.469,1.004-1.406,1.139
			c-0.937,0.134-2.121,0.246-3.548,0.334c-1.161,0.09-2.189,0.314-3.079,0.67c-0.893,0.357-1.965,0.802-3.213,1.339
			c-3.393,1.964-6.628,3.883-9.708,5.758s-6.048,4.374-8.903,7.497c-0.626,0.715-1.251,1.563-1.875,2.544
			c-0.626,0.983-1.295,2.054-2.008,3.213c-0.448,0.448-0.894,1.429-1.339,2.946c-0.448,1.519-0.826,2.968-1.138,4.351
			c-0.314,1.385-0.469,2.209-0.469,2.478c-0.536,1.697-1.117,2.946-1.741,3.748c-1.071,1.429-1.964,2.142-2.678,2.142
			C1489.926,1900.516,1488.855,1899.803,1487.429,1898.373z"/>
	</g>
</g>
</svg>
