<?xml version="1.0" encoding="UTF-8"?>
<svg id="_レイヤー_2" data-name="レイヤー 2" xmlns="http://www.w3.org/2000/svg" viewBox="0 0 2580 1104.26">
  <defs>
    <style>
      .cls-1 {
        stroke: #191919;
        stroke-miterlimit: 10;
      }

      .cls-1, .cls-2 {
        fill: #c18440;
      }

      .cls-3 {
        fill: #0b3811;
      }

      .cls-3, .cls-4, .cls-2 {
        stroke-width: 0px;
      }

      .cls-4 {
        fill: #191919;
      }
    </style>
  </defs>
  <g id="Layer_1" data-name="Layer 1">
    <g>
      <g>
        <g>
          <path class="cls-2" d="M1177.97,382.12l1399.04.62s-4.83,24.55-20.71,29.42c-15.88,4.87-1.92-.04-1.92-.04l-1355.32-2.48s-20.62-10.62-21.1-27.51Z"/>
          <g>
            <path class="cls-2" d="M2556.3,412.16l-1355.21-.6c-12.76,0-23.13-13.21-23.12-29.44v-3.49c0-9.21,3.29-17.71,9.01-23.32,4.17-4.09,9.16-6.17,14.45-6.1,166.58,3.16,1233.77,4,1354.91,4.08,12.74.01,23.11,13.22,23.1,29.44,0,16.23-10.39,29.43-23.15,29.42ZM1201.09,351.65c-4.51,0-8.79,1.86-12.4,5.4-5.26,5.16-8.28,13.02-8.28,21.58v3.49c0,14.88,9.27,27,20.68,27l1355.21.6c11.41,0,20.7-12.1,20.71-26.98,0-14.88-9.26-26.99-20.66-27-121.14-.08-1188.35-.92-1354.95-4.08-.1,0-.2,0-.3,0Z"/>
            <path class="cls-4" d="M2556.31,412.71h0l-1355.21-.6c-6.34,0-12.3-3.15-16.78-8.85-4.45-5.66-6.9-13.17-6.89-21.15v-3.49c0-9.35,3.35-18,9.18-23.71,4.25-4.17,9.38-6.31,14.85-6.25,166.9,3.16,1233.8,4,1354.9,4.08,13.05.01,23.66,13.47,23.65,29.99,0,16.53-10.64,29.97-23.69,29.97ZM2556.3,411.6h0c12.45,0,22.58-12.95,22.59-28.87,0-15.92-10.11-28.88-22.55-28.89-121.1-.08-1188.01-.92-1354.92-4.08-5.16-.07-10.02,1.98-14.06,5.94-5.62,5.51-8.84,13.87-8.85,22.93v3.49c0,7.72,2.36,14.99,6.66,20.46,4.27,5.43,9.92,8.42,15.91,8.43l1355.21.6ZM2556.31,410.27h0l-1355.21-.6c-5.7,0-11.05-2.89-15.06-8.14-3.98-5.2-6.18-12.1-6.17-19.42v-3.49c0-8.7,3.08-16.71,8.45-21.97,3.71-3.64,8.13-5.56,12.78-5.56h.33c166.92,3.17,1233.83,4,1354.94,4.08,11.7.01,21.22,12.37,21.21,27.56,0,15.18-9.54,27.53-21.25,27.53ZM1201.08,352.2c-4.35,0-8.51,1.81-12,5.24-5.15,5.06-8.11,12.78-8.11,21.19v3.49c0,7.08,2.11,13.73,5.94,18.74,3.8,4.97,8.84,7.7,14.19,7.7l1355.21.6h0c11.1,0,20.14-11.85,20.15-26.43,0-14.57-9.01-26.44-20.11-26.45-121.11-.08-1188.04-.92-1354.96-4.08h-.29s0,0,0,0Z"/>
          </g>
        </g>
        <g>
          <path class="cls-1" d="M2436.03,216.2c-8.22-.78-16.51,1.65-22.17,6.48-4.2,3.61-6.68,8.33-6.96,13.29l-22.68,385.76-252.9,199.82,1.44,1.98,302.84-201.72.49-.34,22.89-383.49c.66-10.9-9.43-20.46-22.96-21.76ZM2433.73,620.1l-277.3,184.72,229.73-181.54.44-.34,22.72-386.83c.27-4.29,2.44-8.39,6.12-11.58,4.54-3.85,10.93-6.04,17.53-6.04.93,0,1.88.05,2.83.15,12.19,1.15,21.33,9.59,20.74,19.17l-22.82,382.3Z"/>
          <g>
            <path class="cls-2" d="M2456.55,237.81l-22.82,382.3-277.3,184.72,229.73-181.54.44-.34,22.72-386.83c.27-4.29,2.44-8.39,6.12-11.58,4.54-3.85,10.93-6.04,17.53-6.04.93,0,1.88.05,2.83.15,12.19,1.15,21.33,9.59,20.74,19.17Z"/>
            <path class="cls-4" d="M2156.74,805.28l-.65-.89,229.98-181.73,22.71-386.58c.28-4.43,2.52-8.68,6.31-11.96,4.62-3.93,11.14-6.17,17.88-6.17h.01c.95,0,1.92.05,2.89.15,12.51,1.18,21.84,9.86,21.24,19.76l-22.83,382.57-.23.15-277.3,184.72ZM2432.97,219.04c-6.48,0-12.74,2.15-17.16,5.91-3.56,3.09-5.67,7.07-5.93,11.19l-22.74,387.08-.64.49-219.05,173.11,265.75-177.02,22.8-382.02c.57-9.3-8.32-17.46-20.24-18.59-.93-.1-1.86-.15-2.78-.15,0,0-.01,0-.01,0Z"/>
          </g>
        </g>
        <g>
          <path class="cls-1" d="M2390.3,208.98c-9.39-2.3-19.29-.47-26.48,4.84-5.27,3.9-8.37,9.24-8.69,15.02l-22.38,386.66-201.78,206.45,1.63,1.81,252.03-202.38,24.92-390.42c.64-10.02-7.28-19.07-19.25-21.98ZM2407.11,230.81l-24.85,389.32-235.39,189.05,187.92-192.29.32-.34,22.46-387.59c.27-5.02,3.03-9.7,7.69-13.16,4.71-3.48,10.85-5.33,17.12-5.33,2.46,0,4.93.29,7.34.88,10.82,2.64,17.96,10.64,17.4,19.46Z"/>
          <g>
            <path class="cls-2" d="M2407.11,230.81l-24.85,389.32-235.39,189.05,187.92-192.29.32-.34,22.46-387.59c.27-5.02,3.03-9.7,7.69-13.16,4.71-3.48,10.85-5.33,17.12-5.33,2.46,0,4.93.29,7.34.88,10.82,2.64,17.96,10.64,17.4,19.46Z"/>
            <path class="cls-4" d="M2147.22,809.61l-.74-.82,187.92-192.29.17-.19,22.44-387.39c.28-5.17,3.09-9.99,7.91-13.57,4.74-3.51,10.93-5.44,17.43-5.44h.01c2.51,0,5.02.3,7.47.9,11.07,2.7,18.4,10.94,17.82,20.04l-24.86,389.56-.19.15-235.39,189.05ZM2382.36,211.02c-6.27,0-12.23,1.85-16.77,5.22-4.55,3.38-7.2,7.91-7.46,12.75l-22.47,387.79-.45.49-181.52,185.74,228.05-183.15,24.83-389.08c.55-8.55-6.44-16.32-16.98-18.89-2.36-.57-4.78-.86-7.21-.86,0,0,0,0-.01,0Z"/>
          </g>
        </g>
        <g>
          <path class="cls-1" d="M2368.69,8.55c-4.73-5.12-11.99-8.05-19.92-8.05-13.26,0-24.12,8.3-24.76,18.91l-42.51,583.32-150.41,219.08,1.88,1.54,202.09-206.77.32-.34,38.1-594.63c.37-4.66-1.34-9.32-4.8-13.05ZM2371.04,21.43l-38.05,593.75-191.9,196.36,142.63-207.69.17-.27,42.56-584.02c.54-9.31,10.34-16.62,22.32-16.62,7.14,0,13.92,2.71,18.11,7.27,3.05,3.27,4.48,7.17,4.16,11.22Z"/>
          <g>
            <path class="cls-2" d="M2371.04,21.43l-38.05,593.75-191.9,196.36,142.63-207.69.17-.27,42.56-584.02c.54-9.31,10.34-16.62,22.32-16.62,7.14,0,13.92,2.71,18.11,7.27,3.05,3.27,4.48,7.17,4.16,11.22Z"/>
            <path class="cls-4" d="M2141.49,811.93l-.85-.7,142.63-207.69.08-.13,42.55-583.89c.56-9.6,10.6-17.13,22.85-17.13h.01c7.31,0,14.23,2.79,18.52,7.45,3.15,3.38,4.64,7.4,4.31,11.63l-38.07,593.96-.14.15-191.9,196.36ZM2348.75,3.49c-11.68,0-21.23,7.07-21.75,16.1l-42.57,584.17-.25.39-139.02,202.44,187.28-191.64,38.04-593.56c.31-3.91-1.08-7.65-4.02-10.8-4.08-4.44-10.7-7.09-17.71-7.1,0,0,0,0-.01,0Z"/>
          </g>
        </g>
      </g>
      <g>
        <path class="cls-3" d="M205.29,456.65h200.88v54.37h-107.91v62.67h94.63v59.77h-94.63v116.63h-92.97v-293.44Z"/>
        <path class="cls-3" d="M657.27,750.08h-110.82l-13.7-62.46h-72.84l-13.07,62.46h-74.91l74.71-293.44h129.91l80.73,293.44ZM497.27,502.3l-28.43,136.76h59.35l-24.49-136.76h-6.43Z"/>
        <path class="cls-3" d="M694.63,456.65h131.98c20.89,0,39.29,2.73,55.2,8.2,15.91,5.47,29.16,12.66,39.74,21.58,10.58,8.92,18.57,19.03,23.97,30.3,5.4,11.28,8.09,22.66,8.09,34.14,0,8.99-.9,17.88-2.7,26.67-1.8,8.79-4.98,17.09-9.55,24.9-4.56,7.82-10.83,14.87-18.78,21.17-7.96,6.3-18.09,11.38-30.4,15.25,1.8,5.81,4.84,13.01,9.13,21.58,4.29,8.58,9.27,17.85,14.94,27.81,5.67,9.96,11.76,20.27,18.26,30.92,6.5,10.66,12.87,20.96,19.09,30.92h-106.25c-5.95-13.42-12.04-28.46-18.26-45.14-6.22-16.67-11.21-34.83-14.94-54.47h-26.56v99.61h-92.97v-293.44h0ZM803.37,603.99c10.51,0,19.4-1.38,26.67-4.15,7.26-2.77,13.18-6.36,17.74-10.79,4.56-4.43,7.85-9.41,9.86-14.94,2-5.53,3.01-11.07,3.01-16.6,0-10.93-1.52-19.85-4.57-26.77-3.04-6.92-7.19-12.35-12.45-16.29-5.26-3.94-11.34-6.6-18.26-7.99-6.92-1.38-14.32-2.07-22.21-2.07h-15.56v99.61h15.77Z"/>
        <path class="cls-3" d="M996.78,456.65h86.33l73.05,114.14,73.05-114.14h88.4v293.44h-95.05v-159.38l-68.48,116h-20.13l-70.77-116v159.38h-66.41v-293.44h0Z"/>
        <path class="cls-3" d="M1388.58,456.65h205.86v54.37h-112.89v62.05h99.61v53.12h-99.61v64.12h112.89v59.77h-205.86v-293.44Z"/>
        <path class="cls-3" d="M1662.1,456.65h131.98c20.89,0,39.29,2.73,55.2,8.2,15.91,5.47,29.16,12.66,39.74,21.58,10.58,8.92,18.57,19.03,23.97,30.3,5.4,11.28,8.09,22.66,8.09,34.14,0,8.99-.9,17.88-2.7,26.67-1.8,8.79-4.98,17.09-9.55,24.9-4.57,7.82-10.83,14.87-18.78,21.17-7.96,6.3-18.09,11.38-30.4,15.25,1.8,5.81,4.84,13.01,9.13,21.58,4.29,8.58,9.27,17.85,14.94,27.81,5.67,9.96,11.76,20.27,18.26,30.92,6.5,10.66,12.87,20.96,19.09,30.92h-106.25c-5.95-13.42-12.04-28.46-18.26-45.14-6.23-16.67-11.21-34.83-14.94-54.47h-26.56v99.61h-92.97v-293.44h0ZM1770.84,603.99c10.51,0,19.4-1.38,26.67-4.15,7.26-2.77,13.18-6.36,17.74-10.79,4.57-4.43,7.85-9.41,9.86-14.94,2-5.53,3.01-11.07,3.01-16.6,0-10.93-1.52-19.85-4.56-26.77-3.05-6.92-7.19-12.35-12.45-16.29-5.26-3.94-11.35-6.6-18.26-7.99-6.92-1.38-14.32-2.07-22.2-2.07h-15.56v99.61h15.77Z"/>
        <path class="cls-3" d="M2173.64,532.81c-5.68-2.49-12.28-5.01-19.82-7.57-7.54-2.56-15.43-4.88-23.66-6.95-8.23-2.07-16.57-3.77-25.01-5.08-8.44-1.31-16.39-1.97-23.86-1.97-13.01,0-23.17,1.66-30.5,4.98-7.33,3.32-11,8.92-11,16.81,0,3.74,1.28,7.02,3.84,9.86,2.56,2.84,6.19,5.47,10.9,7.89,4.7,2.42,10.34,4.77,16.91,7.06,6.57,2.28,13.87,4.67,21.89,7.16l15.15,4.77c12.73,3.87,24.14,8.54,34.24,14.01,10.1,5.47,18.64,11.9,25.63,19.3,6.98,7.4,12.35,15.88,16.08,25.42s5.6,20.41,5.6,32.58c0,14.25-2.25,27.22-6.75,38.91-4.5,11.69-11.52,21.69-21.06,29.99-9.55,8.3-21.76,14.73-36.63,19.3-14.87,4.57-32.76,6.85-53.65,6.85-18.54,0-36.98-1.52-55.3-4.56-18.33-3.04-36.83-8.37-55.51-15.98v-68.48c17.85,9.13,35.18,15.81,51.99,20.03,16.81,4.22,33.38,6.33,49.7,6.33,13.42,0,23.21-2.14,29.36-6.43,6.15-4.29,9.23-10.24,9.23-17.85,0-4.56-1.14-8.47-3.42-11.72-2.28-3.25-5.95-6.26-11-9.03-5.05-2.77-11.66-5.57-19.82-8.41-8.17-2.83-18.05-6.05-29.68-9.65-11.62-3.46-22.38-7.81-32.27-13.07-9.89-5.26-18.44-11.58-25.63-18.99-7.2-7.4-12.83-16.01-16.91-25.84-4.08-9.82-6.12-21.03-6.12-33.62s2.28-24.9,6.85-35.69c4.57-10.79,11.55-20.03,20.96-27.7,9.41-7.68,21.34-13.66,35.8-17.95,14.46-4.29,31.65-6.43,51.57-6.43,7.89,0,16.25.35,25.11,1.04,8.85.69,17.88,1.73,27.08,3.11,9.2,1.38,18.29,3.18,27.29,5.4,8.99,2.21,17.5,4.84,25.53,7.89l-3.11,64.33Z"/>
      </g>
      <g>
        <path class="cls-2" d="M205.31,403.02c-2.14-2.35-3.52-4.32-4.16-5.92s-.7-3.52-.16-5.76c.53-2.24,1.33-5.39,2.4-9.45,1.71-6.83,3.57-12.54,5.6-17.13,2.03-4.59,4.05-9.39,6.08-14.41,2.03-5.01,3.79-11.47,5.28-19.37,3.41-7.9,6.45-15.37,9.13-22.42,2.67-7.05,5.49-15.05,8.49-24.02.21-.85,1.17-3.09,2.88-6.72,1.71-3.63,3.89-8.06,6.57-13.29,2.67-5.23,5.17-10.51,7.53-15.85,3.63-10.25,6.56-19.05,8.81-26.42,2.24-7.36,4.53-14.04,6.89-20.02,2.35-5.97,5.44-11.85,9.29-17.61,2.56-4.48,5.55-7.36,8.97-8.65,3.41-1.28,6.67-1.23,9.77.16,3.09,1.39,5.28,4.22,6.56,8.49,1.07,2.14,1.97,4.7,2.72,7.69.75,2.99,1.44,7.31,2.08,12.97.64,5.66,1.07,13.61,1.28,23.86.43,12.17.53,24.18.32,36.03-.22,11.85-.16,22.79.16,32.82.32,10.04,1.44,18.57,3.36,25.62.64,3.84,1.55,8.49,2.72,13.93,1.17,5.44,2.45,10.84,3.84,16.17,1.39,5.34,2.77,9.82,4.16,13.45,1.39,3.63,2.51,5.44,3.36,5.44,1.07,0,2.51-1.39,4.32-4.16,1.81-2.77,4.16-7.79,7.04-15.05,2.88-7.26,6.35-17.56,10.41-30.9,4.05-13.34,8.65-30.47,13.77-51.4,1.07-3.63,2.51-9.5,4.32-17.61,1.81-8.11,3.15-16.33,4-24.66,1.49-5.33,2.99-11.21,4.48-17.61,1.49-6.4,2.83-12.06,4-16.97,1.17-4.91,1.76-7.69,1.76-8.33,0-1.49.05-2.77.16-3.84.1-1.07.05-2.13-.16-3.2,1.07,0,2.03-1.44,2.88-4.32.85-2.88,1.28-5.39,1.28-7.53,0-3.63.48-6.56,1.44-8.81.96-2.24,1.97-3.89,3.04-4.96.64-1.71,2.24-2.51,4.8-2.4,2.56.11,5.12.8,7.69,2.08,2.56,1.28,4.16,2.99,4.8,5.12.42,2.35-.16,7.64-1.76,15.85-1.6,8.22-4,19.27-7.21,33.14,0,2.35-.64,6.19-1.92,11.53-1.28,5.34-2.62,11-4,16.97-1.39,5.98-2.4,11.1-3.04,15.37-.85,5.55-1.82,10.73-2.88,15.53-1.07,4.8-2.14,7.1-3.2,6.89-5.55,24.13-11.37,44.67-17.45,61.65-6.08,16.97-11.48,30.8-16.17,41.47-5.12,11.74-10.73,18.84-16.81,21.3-6.08,2.45-12.54-.69-19.37-9.45-4.06-5.55-7.26-11.05-9.61-16.49-2.35-5.44-4.27-11.85-5.76-19.21-1.5-7.37-3.31-16.49-5.44-27.38-3.2-8.75-4.96-17.61-5.28-26.58s-.05-18.2.8-27.7c.85-9.5,1.49-19.37,1.92-29.62-.21-10.25-.64-17.08-1.28-20.49-.64-3.41-1.87-3.25-3.68.48-1.82,3.74-4.75,11.26-8.81,22.58-1.5,4.06-3.47,8.97-5.92,14.73-2.46,5.76-4.86,11.48-7.2,17.13-2.35,5.66-4.38,10.57-6.08,14.73-1.71,4.16-2.78,6.78-3.2,7.85-1.28,2.56-2.78,5.92-4.48,10.09-1.71,4.16-3.1,8.6-4.16,13.29-7.69,20.07-13.4,36.08-17.13,48.04-3.74,11.96-6.46,20.28-8.17,24.98-2.14,5.97-4.38,9.98-6.73,12.01-2.35,2.03-5.66.8-9.93-3.68Z"/>
        <path class="cls-2" d="M400.33,371.63c-.85-1.71-1.92-3.04-3.2-4-1.28-.96-1.92-1.87-1.92-2.72s-.05-1.76-.16-2.72c-.11-.96-.59-1.87-1.44-2.72-1.07-1.28-.96-4.21.32-8.81,1.28-4.59,3.41-10.25,6.41-16.97,2.99-6.72,6.51-13.82,10.57-21.3,1.71-1.71,3.41-3.95,5.12-6.72,1.71-2.77,2.99-4.59,3.84-5.44,0-.85.32-1.65.96-2.4.64-.74,1.39-1.12,2.24-1.12v-1.92c0-1.07,1.01-2.88,3.04-5.44,2.03-2.56,4.53-5.39,7.53-8.49,2.99-3.09,6.09-6.08,9.29-8.97,3.2-2.88,5.87-4.96,8.01-6.24,4.48-2.99,9.13-4.8,13.93-5.44,4.8-.64,8.91.43,12.33,3.2.64.64,1.71,1.71,3.2,3.2,1.49,1.5,3.25,3.15,5.28,4.96,2.03,1.82,4.11,3.68,6.24,5.6l11.85,10.57-5.76,16.01c-2.78,8.54-3.47,16.01-2.08,22.42,1.39,6.41,3.47,11.96,6.24,16.65,1.07,2.35,3.25,4.59,6.57,6.72,3.31,2.14,6.46,3.42,9.45,3.84,1.71.21,3.31.85,4.8,1.92,1.49,1.07,2.24,2.78,2.24,5.12,0,2.14-.43,3.84-1.28,5.12-.85,1.28-2.35,2.14-4.48,2.56-7.04.86-13.61-.85-19.69-5.12-6.08-4.27-11.69-11.31-16.81-21.14-.86-1.28-1.98-3.68-3.36-7.2-1.39-3.52-2.19-5.81-2.4-6.89-.85,1.07-2.46,3.04-4.8,5.92-2.35,2.88-4.16,4.96-5.44,6.24-15.16,15.37-28.24,25.67-39.23,30.9-11,5.24-20.13,5.5-27.38.8ZM418.74,353.54c4.59-1.6,9.55-4.53,14.89-8.81,7.26-6.19,14.57-13.02,21.94-20.49,7.36-7.47,13.29-14.41,17.77-20.82l7.04-11.53c-2.14-4.91-4.43-8.27-6.89-10.09-2.46-1.81-4.54-2.72-6.24-2.72-2.78,0-6.89,2.56-12.33,7.69s-11.26,11.96-17.45,20.49c-6.2,8.54-12.06,17.93-17.61,28.18-2.14,4.27-4.8,10.36-8.01,18.25,0,1.49,2.29,1.44,6.89-.16Z"/>
        <path class="cls-2" d="M563.33,380.92c-2.35-.43-4.75-1.65-7.21-3.68-2.46-2.03-4.59-4.37-6.4-7.05-1.82-2.67-3.04-5.07-3.68-7.2,0-.43-.54-1.28-1.6-2.56-.85-.64-1.34-3.47-1.44-8.49-.11-5.01.16-10.62.8-16.81.64-6.19,1.39-11.1,2.24-14.73,1.07-3.41,2.67-8.06,4.8-13.93,2.13-5.87,3.95-11.15,5.44-15.85l8.65-18.57-12.81-3.52c-1.5-.43-2.72-1.28-3.68-2.56-.96-1.28-1.44-2.35-1.44-3.2,0-1.71.96-3.79,2.88-6.24,1.92-2.45,3.31-3.68,4.16-3.68,1.07.21,3.04.32,5.92.32s5.71-.1,8.49-.32c2.77-.21,4.48-.43,5.12-.64.85-.43,1.71-1.01,2.56-1.76.85-.74,1.49-1.87,1.92-3.36,1.07-2.35,2.03-4.53,2.88-6.56.85-2.03,2.03-4.32,3.52-6.89,1.49-2.77,2.72-5.12,3.68-7.05s2.51-4.59,4.64-8.01c1.07-1.49,2.24-3.31,3.52-5.44,1.28-2.13,2.88-3.95,4.8-5.44,1.92-1.71,3.89-2.51,5.92-2.4,2.03.11,4.64,1.55,7.85,4.32,1.71,2.14,2.67,3.74,2.88,4.8.21,1.07-.64,3.1-2.56,6.08-1.71,3.63-3.68,7.26-5.92,10.89-2.24,3.63-4.32,7.26-6.24,10.89-3.42,4.7-4.06,7.37-1.92,8.01,2.13.64,8.11.21,17.93-1.28,6.19-1.07,10.67-.8,13.45.8,2.77,1.6,4.37,4.22,4.8,7.85.64,5.12.1,8.22-1.6,9.29-1.71,1.07-6.62,1.6-14.73,1.6-5.12.85-9.5,1.34-13.13,1.44-3.63.11-6.3.16-8.01.16-2.78.21-4.59.32-5.44.32s-2.14.21-3.84.64c-1.71.43-2.94,1.12-3.68,2.08-.75.96-1.55,2.3-2.4,4-.85.86-2.14,3.1-3.84,6.72-1.71,3.63-3.84,7.58-6.41,11.85-2.99,8.97-5.55,17.88-7.69,26.74-2.14,8.86-3.84,17.45-5.12,25.78-.86,5.34-.75,9.02.32,11.05,1.07,2.03,3.84,3.26,8.33,3.68,2.35.21,6.14.16,11.37-.16,5.23-.32,9.34-.91,12.33-1.76,2.35-1.07,4.8-2.19,7.36-3.36,2.56-1.17,4.91-2.4,7.05-3.68,1.92-1.07,4.8-2.77,8.65-5.12,1.07-1.71,2.24-2.24,3.52-1.6,1.28.64,2.35,2.24,3.2,4.8,0,2.56-.54,5.23-1.6,8.01-1.07,2.78-5.02,6.08-11.85,9.93-9.61,5.98-18.41,9.56-26.42,10.73-8.01,1.17-14.79,1.23-20.33.16Z"/>
        <path class="cls-2" d="M660.04,373.23c-3.2-.43-5.92-2.72-8.17-6.89-2.24-4.16-3.58-7.95-4-11.37.21-1.71.48-4.16.8-7.36.32-3.2.69-6.51,1.12-9.93.85-4.05,2.03-9.02,3.52-14.89,1.49-5.87,3.04-11.79,4.64-17.77,1.6-5.97,3.04-11.1,4.32-15.37,1.28-4.27,2.13-6.83,2.56-7.69,1.07-1.71,2.77-2.13,5.12-1.28,2.35.85,4.27,2.14,5.76,3.84,1.28,1.71,2.08,3.74,2.4,6.08.32,2.35,0,5.76-.96,10.25-.96,4.48-2.72,11.1-5.28,19.85-2.35,8.54-4.11,15.43-5.28,20.66-1.18,5.23-1.66,10.73-1.44,16.49-.85,7.26-1.5,11.69-1.92,13.29-.43,1.6-1.49,2.3-3.2,2.08ZM696.86,245.46c-.85.64-1.66.91-2.4.8-.75-.1-1.98-.69-3.68-1.76-1.5-.21-3.36-1.23-5.6-3.04-2.24-1.81-4.16-3.73-5.76-5.76-1.6-2.03-2.4-3.25-2.4-3.68-.22-2.13-.05-4.85.48-8.17.53-3.31,1.65-6.3,3.36-8.97,1.71-2.67,4.16-4.11,7.36-4.32.85,0,1.6.11,2.24.32.64.21,2.56.96,5.77,2.24,1.71,3.2,3.41,6.78,5.12,10.73,1.71,3.95,2.45,7.8,2.24,11.53-.22,3.74-2.46,7.1-6.73,10.09Z"/>
        <path class="cls-2" d="M736.25,381.24c-2.78.21-5.02-.05-6.72-.8-1.71-.75-3.84-1.87-6.4-3.36-4.7-3.63-8.17-7.31-10.41-11.05-2.24-3.73-3.26-7.42-3.04-11.05.42-1.92.32-4.37-.32-7.36-1.28-1.07-1.71-1.76-1.28-2.08.42-.32.74-.91.96-1.76,1.71-.43,1.92-1.6.64-3.52-.64-1.71-.27-5.6,1.12-11.69,1.39-6.08,3.25-11.79,5.6-17.13,1.07-2.35,2.61-5.44,4.64-9.29,2.03-3.84,4.32-7.73,6.89-11.69,2.56-3.95,4.91-7.09,7.05-9.45,4.69-5.33,8.91-9.34,12.65-12.01,3.73-2.67,7.95-4.85,12.65-6.56,4.27-1.71,7.36-2.67,9.29-2.88,1.92-.21,4.59,1.07,8.01,3.84,5.12,1.5,9.02,3.58,11.69,6.24,2.67,2.67,4.75,6.78,6.24,12.33,1.71,6.19,2.29,13.51,1.76,21.94-.54,8.44-4.22,19.27-11.05,32.5-4.06,8.33-8.06,14.63-12.01,18.89-3.95,4.27-8.7,8.76-14.25,13.45-4.06,3.42-7.8,6.08-11.21,8.01-3.42,1.92-7.58,3.41-12.49,4.48ZM761.87,343.13c4.27-6.41,7.63-12.33,10.09-17.77,2.45-5.44,4.43-12.33,5.92-20.66.42-2.35.53-5.28.32-8.81-.22-3.52-.7-6.78-1.44-9.77-.75-2.99-1.76-4.59-3.04-4.8-2.78-1.07-5.88-1.12-9.29-.16-3.42.96-7.16,3.58-11.21,7.85-3.63,4.27-6.89,9.08-9.77,14.41-2.88,5.34-5.5,11.21-7.85,17.61-2.35,6.4-4.59,13.24-6.72,20.49-2.14,8.12-1.98,14.31.48,18.57,2.45,4.27,6.57,5.28,12.33,3.04,5.77-2.24,12.49-8.91,20.18-20.01Z"/>
        <path class="cls-2" d="M916.22,379.32c-2.14,0-4.32-1.17-6.56-3.52-2.24-2.35-4.16-5.28-5.76-8.81-1.6-3.52-2.4-6.89-2.4-10.09s.8-9.18,2.4-17.93c1.6-8.75,3.57-17.61,5.92-26.58,1.71-5.55,2.24-8.75,1.6-9.61-.64-.85-3.52.32-8.65,3.52-2.99,1.5-5.66,3.04-8.01,4.64-2.35,1.6-4.38,3.36-6.08,5.28-1.07.85-2.67,2.24-4.8,4.16-2.14,1.92-4.38,3.74-6.72,5.44-2.78,2.14-6.3,5.12-10.57,8.97-4.27,3.84-8.49,7.69-12.65,11.53-4.16,3.84-7.32,6.83-9.45,8.97-.43.85-1.07,1.6-1.92,2.24-.85.64-1.82,1.02-2.88,1.12-1.07.11-2.24-.05-3.52-.48-2.35-.64-4.54-2.03-6.56-4.16-2.03-2.13-3.04-4.59-3.04-7.37,0-2.13.85-5.81,2.56-11.05,1.71-5.23,4-11.58,6.89-19.05,2.88-7.47,6.24-15.37,10.09-23.7.64-1.07,1.17-2.4,1.6-4,.43-1.6.8-3.36,1.12-5.28.32-1.92.48-3.73.48-5.44,0-1.07.16-2.19.48-3.36.32-1.17.74-2.35,1.28-3.52.53-1.17,1.01-1.97,1.44-2.4.85-1.71,2.35-2.19,4.48-1.44,2.13.75,3.95,2.3,5.44,4.64,3.2,2.99,4.85,6.72,4.96,11.21.1,4.48-1.02,10.04-3.36,16.65-.86,1.5-1.55,2.94-2.08,4.32-.54,1.39-1.02,2.56-1.44,3.52-.43.96-.85,1.98-1.28,3.04.85,0,2.77-.96,5.76-2.88,2.99-1.92,6.51-4.05,10.57-6.4,3.2-2.35,6.03-4.53,8.49-6.56,2.45-2.03,4.53-3.63,6.24-4.8,1.71-1.17,2.77-1.76,3.2-1.76.85,0,1.92-.32,3.2-.96,1.28-.64,2.35-1.39,3.2-2.24.85-.85,1.81-1.39,2.88-1.6,1.71-.21,2.99-.75,3.84-1.6,1.71-1.28,3.95-1.65,6.72-1.12,2.77.54,5.33,1.66,7.69,3.36,2.35,1.71,3.52,3.63,3.52,5.76,0,.86.53,1.82,1.6,2.88,1.71,0,2.83,2.67,3.36,8.01.53,5.34-.06,10.46-1.76,15.37,0,3.2-.59,7.05-1.76,11.53-1.18,4.48-2.19,8.76-3.04,12.81-1.71,5.34-2.88,10.04-3.52,14.09-.64,4.06-.75,7.47-.32,10.25.43,2.78,1.17,5.02,2.24,6.72.85,1.5.85,3.15,0,4.96-.86,1.82-2.57,2.72-5.13,2.72Z"/>
        <path class="cls-2" d="M963.29,371.63c-.85-1.71-1.92-3.04-3.2-4-1.28-.96-1.92-1.87-1.92-2.72s-.06-1.76-.16-2.72c-.11-.96-.59-1.87-1.44-2.72-1.07-1.28-.96-4.21.32-8.81,1.28-4.59,3.41-10.25,6.41-16.97,2.99-6.72,6.51-13.82,10.57-21.3,1.71-1.71,3.41-3.95,5.12-6.72,1.71-2.77,2.99-4.59,3.84-5.44,0-.85.32-1.65.96-2.4.64-.74,1.39-1.12,2.24-1.12v-1.92c0-1.07,1.01-2.88,3.04-5.44,2.03-2.56,4.53-5.39,7.53-8.49,2.99-3.09,6.08-6.08,9.29-8.97,3.2-2.88,5.87-4.96,8.01-6.24,4.48-2.99,9.13-4.8,13.93-5.44,4.8-.64,8.91.43,12.33,3.2.64.64,1.71,1.71,3.2,3.2,1.49,1.5,3.25,3.15,5.28,4.96,2.03,1.82,4.11,3.68,6.24,5.6l11.85,10.57-5.76,16.01c-2.78,8.54-3.47,16.01-2.08,22.42,1.39,6.41,3.47,11.96,6.24,16.65,1.07,2.35,3.25,4.59,6.56,6.72,3.31,2.14,6.45,3.42,9.45,3.84,1.71.21,3.31.85,4.8,1.92,1.49,1.07,2.24,2.78,2.24,5.12,0,2.14-.43,3.84-1.28,5.12-.85,1.28-2.35,2.14-4.48,2.56-7.05.86-13.61-.85-19.69-5.12-6.08-4.27-11.69-11.31-16.81-21.14-.86-1.28-1.98-3.68-3.36-7.2-1.39-3.52-2.19-5.81-2.4-6.89-.85,1.07-2.46,3.04-4.8,5.92-2.35,2.88-4.16,4.96-5.44,6.24-15.16,15.37-28.24,25.67-39.23,30.9-11,5.24-20.12,5.5-27.38.8ZM981.71,353.54c4.59-1.6,9.55-4.53,14.89-8.81,7.26-6.19,14.57-13.02,21.94-20.49,7.36-7.47,13.29-14.41,17.77-20.82l7.05-11.53c-2.14-4.91-4.43-8.27-6.89-10.09-2.46-1.81-4.54-2.72-6.24-2.72-2.78,0-6.89,2.56-12.33,7.69s-11.26,11.96-17.45,20.49c-6.19,8.54-12.06,17.93-17.61,28.18-2.14,4.27-4.8,10.36-8.01,18.25,0,1.49,2.29,1.44,6.89-.16Z"/>
        <path class="cls-2" d="M1101.31,386.04c-2.78-1.07-4.8-2.72-6.08-4.96-1.28-2.24-2.03-5.49-2.24-9.77,0-2.56.43-5.97,1.28-10.25.85-4.27,1.81-9.18,2.88-14.73,0-.43.05-.91.16-1.44.1-.53.16-.91.16-1.12.21-.85.48-2.13.8-3.84.32-1.71.59-3.04.8-4,.21-.96.32-.91.32.16l2.24-8.65c1.07-3.84,2.13-7.69,3.2-11.53,1.07-3.84,2.03-7.2,2.88-10.09.85-2.88,1.39-4.53,1.6-4.96,1.71-4.91,2.99-8.54,3.84-10.89,3.63-10.03,6.94-18.52,9.93-25.46,2.99-6.94,5.65-12.01,8.01-15.21.21-.64.53-1.44.96-2.4.43-.96.74-1.76.96-2.4.21-1.71.48-3.04.8-4,.32-.96.8-1.87,1.44-2.72.43-.85,1.07-1.97,1.92-3.36.85-1.39,1.81-3.15,2.88-5.28l1.28-3.52c1.28-2.77,2.88-5.87,4.8-9.29,1.92-3.41,3.31-5.87,4.16-7.36.85-1.92,2.13-4.21,3.84-6.89,1.71-2.67,2.99-4.43,3.84-5.28l-.32-.32c1.07-1.92,2.4-3.04,4-3.36,1.6-.32,3.36-.48,5.28-.48,2.99,0,4.69.43,5.12,1.28.43.85.64,2.78.64,5.76,0,3.2-.06,5.5-.16,6.89-.11,1.39-1.02,2.94-2.72,4.64h.32c.43-.43.32.06-.32,1.44-.64,1.39-1.18,2.4-1.6,3.04-.43,1.07-.91,2.24-1.44,3.52-.54,1.28-1.12,2.24-1.76,2.88-.64.86-2.19,3.68-4.64,8.49-2.46,4.8-5.23,10.41-8.33,16.81-3.1,6.41-6.03,12.6-8.81,18.57-2.78,5.98-4.8,10.57-6.08,13.77l-1.6,4.8c-.43.86-.64,1.5-.64,1.92-.64,1.5-1.28,2.99-1.92,4.48-.64,1.5-1.28,2.78-1.92,3.84l-5.44,18.57-1.6,6.72-2.88,7.05-1.92,6.08c-.43,1.28-.75,2.46-.96,3.52-.21,1.07-.64,1.92-1.28,2.56,0,.21-.06.48-.16.8-.11.32-.16.59-.16.8-.86,3.42-1.82,8.22-2.88,14.41-1.07,6.19-1.82,12.7-2.24,19.53,0,.21-.06.43-.16.64-.11.21-.16.43-.16.64-.64,4.48-1.71,7.47-3.2,8.97-1.5,1.49-3.74,1.81-6.73.96Z"/>
      </g>
      <g>
        <path class="cls-2" d="M1833.37,940.3c-3.21.51-6.17.8-8.88.89-2.71.08-6.68-.55-11.92-1.9-2.71-.85-4.61-1.86-5.71-3.04-1.1-1.19-2.92-3.39-5.45-6.59-1.86-2.71-3.17-5.2-3.93-7.48-.76-2.28-.89-4.06-.38-5.32.51-1.27,1.6-1.65,3.3-1.14.51.17,1.31.72,2.41,1.65,1.1.93,2.16,2.07,3.17,3.42,2.36,2.54,5.24,4.22,8.62,5.07,3.38.84,7.86.93,13.44.25,2.37-.51,5.24-1.23,8.62-2.16,3.38-.93,6.68-2.07,9.89-3.42,3.21-1.35,5.75-2.71,7.61-4.06,8.96-6.09,18.85-12.68,29.67-19.78.34-.67.97-1.22,1.9-1.65.93-.42,2.07-.89,3.43-1.4,1.01-1.02,2.66-2.62,4.95-4.82,2.28-2.2,4.48-4.4,6.59-6.59,2.11-2.19,3.42-3.46,3.93-3.8.34-1.52.67-2.75,1.01-3.68.34-.93.51-1.9.51-2.92,1.35-1.35,3.17-4.18,5.45-8.5,2.28-4.31,4.6-9.13,6.97-14.46,2.36-5.32,4.06-10.18,5.07-14.58,2.37-11.83,2.96-21.81,1.77-29.93-1.18-8.11-3.59-15.09-7.23-20.92-3.64-5.83-8.16-11.03-13.57-15.6-1.86-1.52-4.44-3.17-7.74-4.94-3.3-1.78-6.72-3.34-10.27-4.69-3.55-1.35-6.64-2.45-9.26-3.3-2.62-.84-4.18-1.18-4.69-1.02-.68.17-2.07,2.83-4.18,7.99-2.12,5.16-4.61,11.71-7.48,19.66-2.88,7.95-5.96,16.4-9.26,25.36-3.3,8.96-6.38,17.42-9.26,25.36-1.01,3.21-2.12,6.59-3.3,10.14-1.19,3.55-2.2,6.64-3.04,9.26-.85,2.62-1.27,4.35-1.27,5.2-1.86,2.88-3.34,6.68-4.44,11.41-1.1,4.74-2.33,12.6-3.68,23.59-1.52,5.75-2.62,10.1-3.3,13.06-.68,2.96-1.35,4.35-2.03,4.19-.17.17-.51.51-1.01,1.01,0,1.02-.68,1.52-2.03,1.52s-2.92-.38-4.69-1.14c-1.78-.76-3.17-1.65-4.19-2.66-.51-1.86-.8-3.63-.89-5.33-.09-1.69.55-4.98,1.9-9.89.84-3.21,1.9-7.14,3.17-11.79,1.27-4.65,2.66-9.47,4.18-14.46,1.52-4.98,2.96-9.59,4.31-13.82,1.35-4.22,2.36-7.44,3.04-9.64,1.18-2.87,2.87-8.28,5.07-16.23,1.35-4.39,2.75-8.79,4.18-13.19,1.44-4.39,2.83-8.32,4.19-11.79,1.35-3.46,2.28-5.71,2.79-6.72.84-2.19,2.11-5.92,3.8-11.16,1.69-5.24,3.89-11.07,6.59-17.5l1.77-8.37-2.79-1.27c-2.03.68-3.59.89-4.69.63-1.1-.25-1.82-.46-2.16-.63-1.01.34-2.45.09-4.31-.76-1.86-.84-3.51-1.94-4.94-3.3-1.44-1.35-2.33-2.54-2.66-3.55-.34-.67-.59-2.11-.76-4.31.17-1.02,1.44-1.99,3.8-2.92,2.36-.93,5.45-1.73,9.26-2.41,3.8-.67,7.95-1.14,12.43-1.4,4.48-.25,8.83-.21,13.06.13,4.4.34,8.53,1.27,12.43,2.79,3.89,1.52,8.12,3.13,12.68,4.82,5.41,2.03,11.11,5.54,17.12,10.53,6,4.99,11.5,10.86,16.49,17.63,4.99,6.76,8.33,13.87,10.02,21.3.51,2.03,1.01,4.91,1.52,8.62.51,3.72.8,7.31.89,10.78.08,3.47-.3,5.71-1.14,6.72-.34.68-.55,1.48-.63,2.41-.09.93.21,1.56.89,1.9-.17.51-.76,2.41-1.77,5.71-1.01,3.3-1.95,6.13-2.79,8.49-.34,4.4-1.35,8.96-3.04,13.69-1.69,4.73-3.55,9.17-5.58,13.31-2.03,4.15-3.89,7.65-5.58,10.53-.68,0-1.31.13-1.9.38-.59.25-.55.47.13.63,0,.85-.93,2.45-2.79,4.82-.68.51-1.74,1.73-3.17,3.68-1.44,1.95-2.58,3.26-3.42,3.93-.17,1.18-.68,2.16-1.52,2.92-.85.76-1.61,1.14-2.28,1.14-.51,0-.76.34-.76,1.01-1.36,2.03-3.47,4.44-6.34,7.23-2.88,2.79-6.13,5.67-9.76,8.62-3.64,2.96-7.35,5.71-11.16,8.24s-7.4,4.48-10.78,5.83c-1.69,1.18-3.47,2.16-5.33,2.92-1.86.76-3.64,1.56-5.32,2.41-.85.67-2.71,1.65-5.58,2.92-2.88,1.27-5.96,2.49-9.26,3.68-3.3,1.18-6.22,2.02-8.75,2.53Z"/>
        <path class="cls-2" d="M1950.03,907.08c-.68-1.35-1.52-2.41-2.54-3.17-1.01-.76-1.52-1.48-1.52-2.16s-.04-1.4-.13-2.16c-.09-.76-.47-1.48-1.14-2.16-.85-1.02-.76-3.34.25-6.97,1.01-3.63,2.7-8.11,5.07-13.44,2.37-5.32,5.16-10.94,8.37-16.86,1.35-1.35,2.7-3.13,4.06-5.32,1.35-2.19,2.37-3.63,3.04-4.31,0-.67.25-1.31.76-1.9.51-.59,1.1-.89,1.77-.89v-1.52c0-.84.8-2.28,2.41-4.31,1.6-2.03,3.59-4.27,5.96-6.72,2.37-2.45,4.82-4.82,7.35-7.1s4.65-3.93,6.34-4.94c3.55-2.36,7.23-3.8,11.03-4.31,3.8-.51,7.06.34,9.76,2.54.51.51,1.35,1.36,2.54,2.54,1.18,1.18,2.58,2.5,4.18,3.93,1.6,1.44,3.25,2.92,4.95,4.44l9.38,8.37-4.57,12.68c-2.2,6.76-2.75,12.68-1.65,17.75,1.1,5.07,2.75,9.47,4.95,13.19.84,1.86,2.58,3.64,5.2,5.33,2.62,1.69,5.11,2.71,7.48,3.04,1.35.17,2.62.68,3.8,1.52,1.18.85,1.77,2.2,1.77,4.06,0,1.69-.34,3.04-1.01,4.06-.68,1.02-1.86,1.69-3.55,2.03-5.58.68-10.78-.67-15.6-4.06-4.82-3.38-9.26-8.96-13.31-16.74-.68-1.02-1.57-2.92-2.66-5.71-1.1-2.79-1.74-4.6-1.9-5.45-.68.85-1.95,2.41-3.8,4.69-1.86,2.28-3.3,3.93-4.31,4.94-12.01,12.17-22.36,20.33-31.07,24.47-8.71,4.14-15.94,4.35-21.69.63ZM1964.61,892.75c3.63-1.27,7.56-3.59,11.79-6.97,5.75-4.9,11.54-10.31,17.37-16.23,5.83-5.92,10.52-11.41,14.08-16.48l5.58-9.13c-1.69-3.89-3.51-6.55-5.45-7.99-1.95-1.44-3.59-2.16-4.95-2.16-2.2,0-5.45,2.03-9.76,6.09-4.31,4.06-8.92,9.47-13.82,16.23-4.91,6.77-9.55,14.2-13.95,22.32-1.69,3.39-3.8,8.2-6.34,14.46,0,1.18,1.81,1.14,5.45-.13Z"/>
        <path class="cls-2" d="M2048.68,966.67c-4.06,1.18-8.5,1.4-13.31.63-4.82-.76-9.04-2.24-12.68-4.44-3.63-2.2-5.71-4.65-6.21-7.35-.17-1.01.13-2.11.89-3.3.76-1.19,1.69-1.99,2.79-2.41,1.1-.42,2.07-.13,2.92.89,1.36.84,3.8,1.9,7.35,3.17s7.52,1.48,11.92.63c3.89-.85,7.74-3.13,11.54-6.85,3.8-3.72,6.89-7.19,9.26-10.4,1.35-2.03,3.63-5.67,6.85-10.91,3.21-5.24,6.55-11.03,10.02-17.37,3.46-6.34,6.38-12.21,8.75-17.63.51-1.35,1.1-2.96,1.77-4.82.67-1.86,1.52-3.38,2.54-4.56,1.01-2.03,1.9-3.93,2.66-5.71.76-1.78,1.22-3,1.4-3.68.17-.84.93-2.54,2.28-5.07,1.35-2.54,2.62-5.07,3.8-7.61.84-2.54,2.11-6.25,3.8-11.16,1.69-4.9,3.38-8.88,5.07-11.92,2.03-3.89,3.68-7.06,4.95-9.51,1.27-2.45,2.66-3.93,4.19-4.44,1.52-1.18,2.58-1.78,3.17-1.78s1.81.51,3.68,1.52c2.03,2.03,3.3,4.02,3.8,5.96.51,1.95.29,4.31-.63,7.1-.93,2.79-2.66,6.55-5.2,11.29-1.36,4.06-2.83,7.73-4.44,11.03-1.61,3.3-2.83,5.45-3.68,6.47-.85,2.03-1.82,4.27-2.92,6.72-1.1,2.45-2.07,4.69-2.92,6.72-3.04,6.76-5.67,12.26-7.86,16.48-2.2,4.23-4.15,8.12-5.83,11.67-1.69,3.55-3.47,7.7-5.32,12.43-3.89,6.25-7.65,12.21-11.29,17.88-3.64,5.66-7.48,10.95-11.54,15.85-1.69,1.52-3.8,3.3-6.34,5.32-2.54,2.03-5.12,3.89-7.74,5.58-2.62,1.69-5.12,2.87-7.48,3.55ZM2082.92,905.81c-2.54-.34-5.03-1.86-7.48-4.56-2.45-2.7-4.35-5.58-5.71-8.62-1.35-3.04-1.86-5.24-1.52-6.59v-2.79c-1.01,0-1.9-1.27-2.66-3.8-.76-2.54-1.31-5.83-1.65-9.89-.34-4.06-.55-8.37-.63-12.93-.09-4.57.04-8.88.38-12.94.67-2.87,1.01-6.04,1.01-9.51s.08-6.21.25-8.24c-.17-2.7.08-4.52.76-5.45.67-.93,1.35-1.65,2.03-2.16,4.73-2.03,7.9-.8,9.51,3.68,1.6,4.48,1.99,12.81,1.14,24.98-.34,6.76-.34,13.53,0,20.29.34,6.76,1.31,12.68,2.92,17.75,1.6,5.07,3.84,8.54,6.72,10.4,1.18.68,1.77,1.61,1.77,2.79s-.34,2.41-1.01,3.68c-.68,1.27-1.57,2.28-2.66,3.04-1.1.76-2.16,1.06-3.17.89Z"/>
      </g>
      <g>
        <path class="cls-3" d="M38.82,740.35c5.51,4.18,11.05,9.09,16.53,13.85,5.48,4.77,10.86,9.43,15.77,13.41,4.92,3.96,9.2,7.4,12.36,9.77,1.56,1.2,2.81,2.17,3.67,2.84.87.66,1.35,1.01,1.35,1.01,0,0-.64,1.08-2,2.64-1.36,1.56-3.42,3.61-6.33,5.48-2.93,1.89-6.65,3.52-11.44,4.18-1.2.17-2.46.27-3.8.3-1.33.01-2.71-.08-4.17-.25-1.46-.17-2.99-.44-4.6-.81-1.6-.37-3.24-.92-4.97-1.56-3.48-1.25-6.98-3.13-10.54-5.31-1.74-1.15-3.49-2.38-5.23-3.68-1.75-1.29-3.41-2.77-5.09-4.24-6.67-5.98-12.65-13.29-17.27-20.48-4.65-7.18-7.99-14.18-10.02-19.32-1.07-2.56-1.78-4.67-2.28-6.13-.48-1.46-.75-2.26-.75-2.26,0,0,1.12-.61,3.12-1.12,2-.52,4.9-.92,8.42-.65,3.54.26,7.61,1.22,12.22,3.18,2.29.99,4.66,2.23,7.2,3.74,2.48,1.53,5.15,3.3,7.87,5.4Z"/>
        <path class="cls-3" d="M58.08,686.34c.11,7.22-.02,14.08-.02,20.55-.03,6.46,0,12.53.14,17.84.02,2.67.19,5.1.22,7.32.14,2.18.18,4.13.27,5.74.2,3.19.21,5.09.21,5.09,0,0-1.55-1.01-4.19-3.09-1.29-1.05-2.79-2.42-4.52-4.06-1.62-1.69-3.52-3.65-5.33-6.01-3.7-4.67-7.51-10.79-10.38-18.19-2.91-7.37-4.77-16.02-4.88-25.09-.09-9.08,1.59-17.62,4.16-24.94,2.55-7.35,5.96-13.51,9.28-18.33,3.33-4.84,6.6-8.36,8.99-10.64,2.41-2.29,3.95-3.35,3.95-3.35,0,0,.05,1.88.14,5.1.12,3.21.3,7.75.5,13.14.24,5.33.51,11.5.81,18.14.27,6.59.56,13.56.63,20.78Z"/>
        <path class="cls-3" d="M104.58,810.52c1.65.04,3.32.16,5,.32,1.69.14,3.41.31,5.13.54,3.42.49,6.92,1.03,10.36,1.7.86.18,1.71.35,2.57.53.86.17,1.72.33,2.57.5,1.7.35,3.38.72,5.03,1.11,3.3.76,6.52,1.47,9.51,2.27,3.01.73,5.83,1.44,8.36,2.14,2.52.7,4.8,1.25,6.67,1.8,3.74,1.09,6.01,1.75,6.01,1.75,0,0-.86,4.96-4.87,10.56-2.02,2.82-4.82,5.71-8.8,8.18-1.99,1.23-4.27,2.35-6.9,3.28-2.62.91-5.58,1.56-8.93,1.97-3.35.44-6.92.42-10.62.19-3.7-.18-7.51-.81-11.34-1.55-1.92-.35-3.83-.82-5.73-1.34-1.9-.51-3.79-1.05-5.65-1.62-3.72-1.23-7.34-2.56-10.73-3.98-6.79-2.89-12.68-6.05-16.84-8.54-2.08-1.27-3.73-2.32-4.86-3.06-1.14-.73-1.74-1.17-1.74-1.17,0,0,.54-1.15,1.8-2.79,1.26-1.65,3.25-3.74,6.11-5.76,5.72-4.08,14.78-7.45,27.92-7.04Z"/>
        <path class="cls-3" d="M189.48,845.78c12.33-3.39,27.58-3.49,39.86-3.05,6.15.19,11.53.65,15.35,1.06,3.83.41,6.15.78,6.15.78,0,0-.14,5.04-3.16,11.18-1.51,3.07-3.73,6.42-7.01,9.56-1.64,1.57-3.53,3.08-5.73,4.48-2.26,1.39-4.97,2.64-8.02,3.72-6.12,2.2-13.26,3.22-20.54,3.65-3.64.14-7.32.13-10.92,0-3.6-.12-7.12-.49-10.45-.84-3.33-.34-6.47-.85-9.3-1.35-2.83-.51-5.35-.96-7.46-1.46-4.22-.98-6.76-1.7-6.76-1.7,0,0,.68-5,4.62-10.68,1.96-2.84,4.72-5.86,8.53-8.55,3.81-2.7,8.67-5.18,14.82-6.8Z"/>
        <path class="cls-3" d="M276.1,864.22c2.9-1.09,6.02-1.99,9.26-2.64,3.22-.61,6.56-1.04,9.92-1.31,6.72-.54,13.52-.48,19.59-.16,6.07.34,11.43.86,15.24,1.44,3.81.59,6.1,1.07,6.1,1.07,0,0-.37,5.03-3.67,11.02-1.64,3-4.01,6.24-7.41,9.22-3.39,2.97-7.86,5.84-13.64,7.9-5.79,2.08-12.36,3.24-18.96,3.81-3.3.28-6.61.42-9.83.45-1.61.01-3.2,0-4.76-.03-1.57-.01-3.11-.03-4.6-.07-11.94-.31-21-1.74-21-1.74,0,0,.17-5.03,3.2-11.17,3.04-6.14,8.94-13.38,20.55-17.79Z"/>
        <path class="cls-3" d="M360.42,883.46c5.88-1.89,12.53-2.61,19.27-2.82,6.73-.17,13.53.19,19.56.91,11.99,1.63,21.05,4.07,21.05,4.07,0,0-.75,4.97-4.47,10.73-3.72,5.77-10.4,12.34-21.99,15.61-5.75,1.56-12.4,2.51-18.93,2.72-6.56.24-13.1-.12-18.91-.69-5.85-.5-11.05-1.12-14.73-1.7-3.69-.56-5.91-1.02-5.91-1.02,0,0,.42-5.01,3.73-11,3.32-5.99,9.54-12.95,21.33-16.79Z"/>
        <path class="cls-3" d="M70.18,726.08c-1.11,5.44-.68,11.69.97,17.78,1.64,6.09,4.43,12.03,7.57,17,3.15,4.95,6.47,9.08,9.06,11.83,1.29,1.38,2.33,2.5,3.1,3.22.77.71,1.19,1.11,1.19,1.11,0,0,.95-.82,2.27-2.42,1.32-1.59,2.99-3.97,4.49-7.02,1.49-3.03,2.89-6.8,3.72-11.04.21-1.06.38-2.15.51-3.27.15-1.13.28-2.29.35-3.48.08-1.18.11-2.39.09-3.61-.02-1.23-.01-2.51-.1-3.79-.21-2.54-.42-5.12-.86-7.56-.15-1.25-.34-2.47-.57-3.66-.24-1.18-.38-2.39-.62-3.53-.83-4.34-1.64-8.61-2.37-12.42-.67-3.6-1.24-6.61-1.58-8.79-.22-1.07-.34-1.94-.45-2.53-.12-.59-.19-.91-.19-.91,0,0-1.23.22-3.22.79-1.99.57-4.74,1.47-7.74,2.95-2.98,1.49-6.32,3.6-9.14,6.68-1.43,1.55-2.79,3.35-3.88,5.44-1.15,2.11-2.01,4.48-2.6,7.22Z"/>
        <path class="cls-3" d="M122.59,781.16c.61,1.33,1.31,2.66,2.08,3.99.79,1.3,1.68,2.57,2.62,3.85,1.86,2.57,4.05,4.97,6.38,7.29l1.77,1.72c.62.54,1.23,1.08,1.85,1.62,1.24,1.07,2.51,2.11,3.77,3.11,2.55,1.99,5.17,3.75,7.67,5.42,2.53,1.6,4.99,3,7.22,4.26,2.24,1.25,4.31,2.22,6.03,3.06,1.73.82,3.12,1.48,4.1,1.88.98.4,1.52.61,1.52.61,0,0,2.39-4.43,2.93-11.23.27-3.38.13-7.42-.89-11.76-.51-2.17-1.24-4.42-2.24-6.72-.99-2.31-2.2-4.72-3.75-7.11-6.19-9.62-15.66-18.15-22.71-24.7-3.55-3.27-6.62-5.97-8.78-7.88-1.06-.96-1.93-1.71-2.53-2.21-.61-.5-.93-.78-.93-.78,0,0-.86.91-2.08,2.58-1.21,1.67-2.82,4.11-4.18,7.19-2.69,6.13-4.72,15.1.14,25.82Z"/>
        <path class="cls-3" d="M198.66,812.57c8.06,9.02,21.38,15.91,32.68,20.18,5.65,2.11,10.78,3.7,14.52,4.76,3.72,1.06,6.01,1.6,6.01,1.6,0,0,1.73-4.73,1.14-11.57-.29-3.42-1.17-7.38-3.14-11.54-.99-2.08-2.25-4.21-3.85-6.35-1.54-2.13-3.27-4.25-5.42-6.33-4.29-4.11-9.46-7.88-14.88-11.06-2.67-1.66-5.4-3.18-8.09-4.56-2.7-1.38-5.27-2.73-7.77-3.89-2.51-1.14-4.82-2.24-6.92-3.17-2.1-.94-4.02-1.69-5.58-2.37-3.12-1.34-5.05-2.04-5.05-2.04,0,0-2.23,4.51-2.67,11.3-.21,3.4.03,7.37,1.32,11.67,1.3,4.29,3.69,8.79,7.69,13.37Z"/>
        <path class="cls-3" d="M282.97,830.46c2.29,2.12,4.86,4.08,7.61,5.97,2.74,1.92,5.65,3.71,8.64,5.38,5.97,3.32,12.21,6.12,17.88,8.38,5.67,2.27,10.79,3.93,14.47,5.16,3.67,1.24,5.93,1.89,5.93,1.89,0,0,1.95-4.64,1.68-11.51-.14-3.44-.83-7.43-2.63-11.69-1.8-4.27-4.71-8.63-9.25-13-4.54-4.35-10.3-8.21-16.39-11.56-3.04-1.68-6.16-3.22-9.25-4.64-1.55-.71-3.08-1.38-4.6-2.02-1.52-.61-3.01-1.18-4.47-1.72-11.67-4.3-21.04-6.47-21.04-6.47,0,0-1.76,4.72-1.19,11.56.57,6.84,3.45,15.81,12.61,24.27Z"/>
        <path class="cls-3" d="M369.05,850.11c4.37,4.48,9.85,8.71,15.65,12.32,5.78,3.65,11.88,6.72,17.41,9.35,11,5.46,19.87,8.55,19.87,8.55,0,0,2.29-4.49,2.52-11.34.21-6.85-1.66-16.06-10.29-25.56-1.08-1.19-2.24-2.35-3.46-3.49-1.22-1.14-2.52-2.17-3.86-3.22-2.68-2.08-5.57-4.05-8.55-5.89-5.96-3.69-12.29-6.88-18.08-9.49-5.78-2.53-11.02-4.35-14.8-5.64-3.79-1.27-6.12-1.94-6.12-1.94,0,0-1.99,4.63-1.74,11.49.25,6.86,2.72,15.96,11.47,24.86Z"/>
        <path class="cls-3" d="M58.6,741.25c2.73,4.85,5.73,9.56,9.08,14,3.38,4.42,6.94,8.71,10.83,12.69,7.7,8.04,16.38,15.1,25.51,21.45,9.14,6.35,18.87,11.83,28.85,16.74,10,4.89,20.27,9.21,30.75,12.96,10.47,3.77,21.11,7.05,31.85,9.99,10.74,2.92,21.6,5.38,32.49,7.66l32.81,6.32,16.41,3.16c5.47,1.05,10.95,2.07,16.38,3.31l32.67,7.09c2.73.56,5.43,1.23,8.14,1.89l8.12,1.98,16.24,3.95c21.62,5.44,43.11,11.4,64.39,18.1,5.36,1.55,10.6,3.47,15.88,5.25l7.91,2.71,3.96,1.35,1.98.68,1.95.75,15.63,6c1.3.51,2.62.97,3.9,1.53l3.84,1.66,7.69,3.32c5.17,2.11,10.15,4.67,15.19,7.09l3.77,1.83c1.26.6,2.46,1.33,3.7,1.98l7.36,4.04c1.24.64,2.41,1.43,3.6,2.16l3.57,2.22c1.18.76,2.4,1.45,3.55,2.26l3.44,2.45c1.13.84,2.32,1.58,3.41,2.49l3.28,2.69.82.67.78.73,1.55,1.47.78.74.73.81c.49.55.97,1.05,1.46,1.74l-2.67,1.79s-.15-.32-.83-1.07c-.33-.36-.68-.82-1.19-1.33-.52-.51-1.13-1.1-1.81-1.76-.66-.69-1.5-1.37-2.42-2.12-.91-.76-1.91-1.59-2.99-2.48-1.14-.82-2.37-1.71-3.68-2.66-1.32-.93-2.67-2-4.24-2.93-12.15-8.02-30.79-17.61-54.06-26.98-46.52-18.94-111.4-36.4-176.8-50.29-2.04-.44-4.08-.92-6.13-1.33l-6.15-1.21c-4.1-.81-8.19-1.61-12.28-2.42-8.17-1.61-16.31-3.21-24.38-4.8-8.07-1.6-16.13-3.1-24.01-4.9-7.89-1.75-15.64-3.68-23.22-5.74-30.33-8.18-57.71-19.32-79.33-32.11-10.78-6.43-20.11-13.22-27.8-19.88-7.71-6.64-13.7-13.22-18.23-18.89-4.55-5.66-7.54-10.51-9.49-13.79-.94-1.67-1.64-2.93-2.07-3.78-.41-.86-.58-1.29-.49-1.26Z"/>
      </g>
      <g>
        <path class="cls-3" d="M369.32,1074.77c2.39-.18,4.89-.31,7.38-.28.63,0,1.24.04,1.88.02.64-.02,1.28-.04,1.91-.06,1.27-.03,2.55-.03,3.81-.02,2.51.12,5.05-.1,7.47-.09,1.22-.02,2.4.02,3.57-.02,1.17-.06,2.31-.13,3.42-.19,1.1-.04,2.17-.07,3.19-.11.51-.01,1.01-.02,1.5-.03.49-.02.97-.08,1.43-.12,1.86-.16,3.51-.28,4.89-.36,1.38-.09,2.48-.09,3.24-.18.76-.08,1.18-.12,1.18-.12,0,0,.17.82.19,2.2.02,1.38-.1,3.32-.73,5.56-.64,2.27-1.81,4.71-3.99,7.14-1.09,1.21-2.44,2.42-4.1,3.57-.83.58-1.74,1.14-2.74,1.69-1,.54-2.1.96-3.3,1.4-9.45,3.86-23.8,3.26-35.2.01-2.88-.68-5.49-1.72-7.88-2.63-1.19-.47-2.31-.92-3.36-1.34-1.04-.44-1.96-.94-2.82-1.36-3.42-1.73-5.45-2.9-5.45-2.9,0,0,.27-.8,1.04-1.95.76-1.15,2.03-2.64,3.93-4.07,3.81-2.93,10.06-5.27,19.54-5.77Z"/>
        <path class="cls-3" d="M353.43,1038.42c3.38,3.73,6.63,7.3,9.74,10.74,1.58,1.61,2.97,3.38,4.47,4.81,1.47,1.48,2.77,3.07,4.12,4.3,1.32,1.29,2.52,2.54,3.59,3.67,1.12,1.02,2.09,1.95,2.89,2.73,1.6,1.57,2.51,2.55,2.51,2.55,0,0-1.27.15-3.58.22-1.16.03-2.59.04-4.25,0-1.62-.16-3.47-.4-5.54-.74-.52-.09-1.05-.18-1.58-.28-.54-.1-1.06-.27-1.61-.41-1.09-.3-2.22-.64-3.4-1.01-2.39-.67-4.72-1.83-7.23-3.02-1.27-.57-2.44-1.35-3.68-2.11-1.21-.78-2.49-1.55-3.67-2.47-1.17-.93-2.35-1.9-3.52-2.91l-.88-.77-.82-.83c-.54-.57-1.08-1.14-1.63-1.71-4.29-4.66-7.47-9.83-9.57-14.84-2.13-4.99-3.34-9.73-3.91-13.79-.57-4.06-.6-7.39-.46-9.69.14-2.31.41-3.58.41-3.58,0,0,.9.98,2.39,2.62,1.57,1.67,3.76,4,6.28,6.7,2.56,2.74,5.63,5.85,8.82,9.2,3.18,3.37,6.62,6.9,10.09,10.63Z"/>
        <path class="cls-3" d="M436.21,1080.43c1.75-1.47,3.68-2.86,5.7-4.16,1-.67,2.06-1.23,3.08-1.92,1.03-.67,2.07-1.33,3.12-1.96,2.1-1.26,4.24-2.43,6.34-3.51,2.09-1.12,4.08-2.3,6.01-3.29,1.92-1.01,3.74-1.91,5.4-2.7,1.66-.79,3.08-1.61,4.31-2.21,2.44-1.23,3.96-1.91,3.96-1.91,0,0,1.81,2.84,2.26,7.41.22,2.29.08,5.02-.87,8.07-.47,1.53-1.15,3.13-2.09,4.81-.95,1.65-2.23,3.28-3.81,4.99-3.2,3.37-7.29,6.74-12.1,9.31-2.36,1.34-4.81,2.59-7.26,3.75-2.5,1.08-5.05,1.97-7.46,2.82-1.21.42-2.39.81-3.53,1.17-.57.18-1.14.36-1.68.53-.56.16-1.12.28-1.67.41-2.18.51-4.14.93-5.79,1.26s-2.98.57-3.9.73c-.46.08-.82.14-1.06.18-.25.03-.38.04-.38.04,0,0-.26-.81-.36-2.19-.11-1.38-.04-3.29.5-5.58.54-2.29,1.58-4.92,3.38-7.65.9-1.36,1.99-2.76,3.31-4.14.66-.69,1.37-1.39,2.14-2.07.77-.69,1.57-1.47,2.45-2.19Z"/>
        <path class="cls-3" d="M496.91,1059.05c2.42-3.74,5.64-7.36,9.11-10.69,1.8-1.68,3.56-3.31,5.24-4.88,1.74-1.58,3.48-3.06,5.15-4.42,3.34-2.72,6.39-4.96,8.58-6.54,2.2-1.58,3.58-2.47,3.58-2.47,0,0,2.2,2.54,3.39,6.96.59,2.21.94,4.89.63,7.95-.15,1.53-.46,3.16-.99,4.87-.56,1.73-1.43,3.58-2.55,5.51-2.27,3.86-5.49,7.72-9.07,11.33-3.72,3.46-7.8,6.68-11.58,9.41-1.86,1.4-3.76,2.56-5.48,3.6-1.72,1.04-3.28,1.94-4.6,2.68-2.63,1.48-4.27,2.3-4.27,2.3,0,0-1.91-2.76-2.44-7.38-.55-4.61.26-11.06,5.29-18.24Z"/>
        <path class="cls-3" d="M550.73,1028.02c1.03-1.88,2.27-3.77,3.67-5.59,1.41-1.79,2.98-3.55,4.62-5.24,3.29-3.38,6.89-6.5,10.22-9.15,3.34-2.64,6.4-4.87,8.66-6.35,2.27-1.47,3.69-2.29,3.69-2.29,0,0,2.08,2.64,3.07,7.11.99,4.47.87,10.71-3.31,18.16-2.1,3.7-5.03,7.32-8.25,10.66-1.61,1.67-3.29,3.27-4.97,4.78-1.69,1.49-3.37,2.93-4.97,4.29-6.42,5.39-11.83,8.89-11.83,8.89,0,0-2.18-2.55-3.36-6.98-1.18-4.43-1.35-10.74,2.76-18.29Z"/>
        <path class="cls-3" d="M603.78,998.46c4.51-7.21,12.6-13.94,19.56-18.85,7.05-4.72,12.93-7.69,12.93-7.69,0,0,1.87,2.78,2.54,7.33.67,4.54.14,10.85-4.47,17.79-2.32,3.41-5.39,6.95-8.74,10.07-3.35,3.15-6.96,5.99-10.28,8.39-3.31,2.46-6.33,4.56-8.53,5.98-2.2,1.43-3.58,2.23-3.58,2.23,0,0-2.05-2.66-3.03-7.13-.97-4.48-.85-10.77,3.61-18.11Z"/>
        <path class="cls-3" d="M378.49,1053.71c1.03,1.61,2.37,3.11,3.87,4.62.38.36.76.77,1.17,1.1.43.32.85.65,1.28.97.87.64,1.78,1.26,2.71,1.87,1.84,1.3,3.9,2.12,5.91,3.04,1.02.43,2.03.89,3.04,1.23,1.03.31,2.04.6,3.04.87,1.01.26,1.98.51,2.91.76.47.11.94.23,1.39.34.46.09.91.14,1.34.21,1.75.24,3.33.43,4.65.57,1.32.13,2.39.27,3.13.26.74,0,1.14-.01,1.14-.01,0,0,.11-.84.05-2.21-.06-1.38-.3-3.3-.95-5.46-.65-2.13-1.69-4.65-3.25-7.16-.78-1.26-1.69-2.51-2.75-3.73-.53-.61-1.09-1.21-1.69-1.79-.6-.59-1.2-1.27-1.86-1.88-1.3-1.24-2.69-2.36-4.11-3.35-1.35-1.16-2.73-2.2-4.11-3.11-2.68-2-5.23-3.71-7.35-5.32-1.12-.68-2.03-1.54-2.91-2.17-.44-.32-.85-.61-1.25-.88-.39-.27-.71-.59-1.03-.83-1.24-1.01-2.05-1.51-2.05-1.51,0,0-.52.66-1.25,1.82-.73,1.17-1.68,2.84-2.47,4.92-1.54,4.12-2.64,10.17,1.4,16.84Z"/>
        <path class="cls-3" d="M432.05,1057.85c1.88.72,3.95,1.29,6.12,1.72,1.08.2,2.21.44,3.33.51,1.12.08,2.26.13,3.4.16,2.29.05,4.61,0,6.88-.14,2.26-.17,4.44-.57,6.51-.91,2.07-.36,4.02-.76,5.78-1.14,1.76-.39,3.27-.92,4.56-1.3,2.56-.81,4.1-1.37,4.1-1.37,0,0-.76-3.27-3.59-6.87-1.41-1.8-3.32-3.7-5.84-5.33-1.26-.82-2.68-1.57-4.26-2.22-1.58-.67-3.34-1.34-5.26-1.83-3.85-1.03-8.03-1.21-12.09-1.58-2.03-.12-4.03-.15-5.97-.1-1.92-.05-3.74-.13-5.46-.1-.86.01-1.68.03-2.48.07-.4.02-.78.04-1.16.06-.38.01-.73-.02-1.08-.02-1.4-.03-2.64-.02-3.67,0-1.03.03-1.85.07-2.42.11-.28.02-.5.04-.65.05h-.22s-.03.83.11,2.2c.14,1.36.44,3.31,1.18,5.42.74,2.12,1.9,4.45,3.81,6.69.96,1.12,2.1,2.21,3.48,3.24.69.51,1.44,1.01,2.25,1.49.81.47,1.69.82,2.63,1.2Z"/>
        <path class="cls-3" d="M486.66,1038.5c4.15.27,8.76-.25,13.34-1.19,1.15-.24,2.29-.49,3.42-.79,1.11-.33,2.22-.67,3.3-1.03,2.17-.72,4.28-1.49,6.25-2.27,3.95-1.55,7.38-3.11,9.81-4.33,2.44-1.2,3.88-2,3.88-2,0,0-1.23-3.13-4.62-6.23-1.7-1.55-3.94-3.09-6.85-4.22-1.46-.57-3.08-1.03-4.89-1.34-1.78-.34-3.65-.59-5.73-.64-4.14-.11-8.55.52-12.84,1.52-4.34.8-8.54,1.97-12.23,3.18-1.84.65-3.57,1.14-5.11,1.63-1.54.49-2.91.97-4.04,1.38-2.26.82-3.61,1.39-3.61,1.39,0,0,.88,3.25,3.74,6.77,2.88,3.51,7.76,7.29,16.17,8.17Z"/>
        <path class="cls-3" d="M539.08,1008.23c2.16-.02,4.4-.25,6.69-.59,2.31-.32,4.65-.79,6.97-1.35,4.64-1.13,9.18-2.64,13.19-4.16,4.01-1.51,7.45-3.06,9.93-4.16,2.49-1.08,3.97-1.81,3.97-1.81,0,0-1.08-3.18-4.33-6.43-3.26-3.25-8.73-6.61-17.41-6.65-4.35-.04-9.12.73-13.83,1.89-2.35.58-4.69,1.27-6.95,2-2.27.72-4.44,1.52-6.45,2.36-8.06,3.29-13.96,6.56-13.96,6.56,0,0,1.21,3.14,4.6,6.24,3.39,3.11,8.95,6.18,17.58,6.1Z"/>
        <path class="cls-3" d="M593.18,978.08c8.71.45,19.05-2.02,27.22-4.58,8.27-2.38,14.34-4.94,14.34-4.94,0,0-.84-3.26-3.84-6.72-3.01-3.46-8.18-7.12-17.04-7.83-4.47-.4-9.24.2-14.06,1.11-4.8.94-9.57,2.28-13.8,3.66-4.18,1.42-7.75,2.94-10.33,4.06-2.56,1.12-4.09,1.87-4.09,1.87,0,0,1.05,3.2,4.29,6.46,3.24,3.26,8.66,6.59,17.29,6.92Z"/>
        <path class="cls-3" d="M379.82,1066.5c.9.38,1.85.61,2.79.88l2.82.8c.94.25,1.87.56,2.83.77l2.88.55,2.88.55,1.44.27c.48.07.97.11,1.46.16l5.83.6c.97.14,1.95.12,2.92.15l2.93.06c1.95.02,3.91.15,5.85-.03l5.85-.35,1.46-.09c.49-.04.97-.12,1.45-.18l2.9-.39c15.5-2.03,30.57-6.62,45.03-12.48,7.29-2.82,14.29-6.3,21.33-9.68l10.34-5.5,2.59-1.38c.85-.47,1.69-.98,2.53-1.47l5.05-2.97c13.49-7.88,26.76-16.19,40.28-24.05l20.37-11.64c6.83-3.81,13.76-7.44,20.63-11.18,13.83-7.31,27.85-14.29,42.09-20.78,3.52-1.71,7.16-3.16,10.75-4.71,3.61-1.51,7.18-3.12,10.83-4.55l10.97-4.2c1.82-.73,3.68-1.35,5.53-1.97l5.57-1.88c3.69-1.33,7.48-2.33,11.25-3.43,3.74-1.17,7.61-1.92,11.42-2.86,1.91-.44,3.87-.71,5.8-1.08.97-.16,1.93-.37,2.91-.49l2.94-.34c.98-.09,1.96-.26,2.95-.3l2.97-.14c2.01-.04,3.94-.03,6.07.34l-.53,2.08s-.24-.09-.94-.17c-.34-.03-.74-.11-1.25-.14-.51-.02-1.1-.04-1.78-.07-1.34-.07-3.03.08-4.99.14-.98.11-2.04.22-3.17.34-1.13.14-2.33.21-3.59.46-10.11,1.52-24.34,5.27-40.88,11.31-33.17,11.96-75.21,33.32-115.85,56.78-2.57,1.42-5.09,2.93-7.6,4.44-2.52,1.5-5.03,3.01-7.54,4.51-5.02,3-10.02,5.98-14.97,8.94-4.99,2.93-9.95,5.83-14.84,8.69-2.42,1.48-4.97,2.71-7.43,4.03-2.48,1.3-4.94,2.6-7.38,3.88-19.64,10.02-39.19,16.98-56.47,20.43-1.08.22-2.15.43-3.2.65-1.05.22-2.1.44-3.15.54-2.09.27-4.13.53-6.12.79-.99.12-1.97.27-2.95.35-.97.05-1.94.1-2.89.15-1.9.1-3.73.19-5.52.28-1.78.07-3.51-.07-5.17-.09-1.66-.06-3.27-.06-4.81-.18-3.06-.37-5.88-.62-8.39-1.01-2.49-.51-4.72-.97-6.64-1.37-1.9-.49-3.48-1.03-4.77-1.41-1.28-.4-2.25-.7-2.87-.93-.61-.27-.9-.42-.84-.44Z"/>
      </g>
      <g>
        <path class="cls-3" d="M1691.07,842.47c-2.38-.21-4.88-.48-7.33-.92-.62-.1-1.22-.24-1.85-.32-.64-.08-1.27-.17-1.9-.25-1.26-.18-2.52-.38-3.76-.6-2.45-.52-5-.71-7.39-1.12-1.2-.17-2.37-.41-3.52-.56-1.17-.13-2.3-.25-3.4-.37-1.1-.14-2.16-.28-3.17-.41-.51-.07-1-.14-1.48-.21-.49-.06-.97-.07-1.43-.11-1.86-.14-3.51-.29-4.88-.43-1.38-.13-2.47-.31-3.23-.34-.76-.04-1.18-.07-1.18-.07,0,0-.04-.84.16-2.2.2-1.36.63-3.26,1.62-5.37.99-2.14,2.55-4.35,5.09-6.4,1.27-1.02,2.8-1.99,4.62-2.87.91-.44,1.9-.85,2.97-1.23,1.07-.38,2.23-.6,3.48-.85,9.95-2.29,24.01.62,34.74,5.66,2.73,1.13,5.14,2.59,7.35,3.86,1.1.66,2.13,1.28,3.1,1.86.96.6,1.79,1.24,2.57,1.8,3.09,2.26,4.91,3.73,4.91,3.73,0,0-.4.75-1.34,1.76-.94,1.01-2.42,2.28-4.53,3.38-4.23,2.27-10.77,3.58-20.21,2.55Z"/>
        <path class="cls-3" d="M1700.89,880.91c-2.74-4.22-5.37-8.28-7.89-12.17-1.3-1.85-2.39-3.81-3.64-5.47-1.21-1.69-2.23-3.48-3.37-4.91-1.09-1.49-2.07-2.91-2.95-4.2-.94-1.19-1.75-2.26-2.41-3.16-1.33-1.81-2.06-2.92-2.06-2.92,0,0,1.27.06,3.57.36,1.15.16,2.56.37,4.19.69,1.57.42,3.36.95,5.34,1.62.5.17,1.01.35,1.52.53.51.19,1,.44,1.52.67,1.03.47,2.09.99,3.19,1.54,2.25,1.05,4.36,2.57,6.65,4.14,1.17.77,2.19,1.73,3.29,2.67,1.07.97,2.21,1.93,3.22,3.03,1.01,1.1,2.02,2.25,3.01,3.44l.74.9.68.95c.44.65.88,1.3,1.33,1.95,3.48,5.29,5.79,10.91,7.05,16.19,1.29,5.27,1.73,10.15,1.63,14.24-.09,4.1-.6,7.39-1.11,9.64-.51,2.26-.98,3.46-.98,3.46,0,0-.73-1.12-1.94-2.97-1.28-1.9-3.06-4.56-5.12-7.62-2.09-3.12-4.61-6.68-7.22-10.5-2.6-3.84-5.42-7.88-8.24-12.12Z"/>
        <path class="cls-3" d="M1625.97,826.1c-1.97,1.17-4.09,2.23-6.29,3.18-1.1.5-2.23.88-3.35,1.4-1.12.5-2.26.97-3.4,1.43-2.28.91-4.58,1.72-6.82,2.44-2.24.77-4.4,1.61-6.46,2.27-2.06.69-4,1.28-5.77,1.79-1.76.51-3.3,1.09-4.61,1.48-2.61.82-4.21,1.25-4.21,1.25,0,0-1.33-3.09-1.03-7.68.16-2.3.73-4.97,2.16-7.83.71-1.43,1.64-2.91,2.84-4.41,1.21-1.47,2.73-2.88,4.56-4.31,3.7-2.81,8.28-5.47,13.44-7.23,2.55-.94,5.17-1.78,7.77-2.53,2.64-.66,5.31-1.14,7.82-1.58,1.26-.22,2.49-.41,3.68-.59.59-.08,1.18-.17,1.75-.25.57-.07,1.16-.09,1.71-.14,2.23-.15,4.24-.25,5.92-.31,1.68-.06,3.03-.08,3.97-.09.47,0,.83,0,1.07,0,.25.01.38.02.38.02,0,0,.12.84,0,2.22-.12,1.38-.49,3.25-1.39,5.43-.9,2.17-2.35,4.6-4.57,7-1.11,1.2-2.41,2.4-3.93,3.55-.76.58-1.57,1.15-2.45,1.7-.87.56-1.79,1.2-2.77,1.77Z"/>
        <path class="cls-3" d="M1562.61,837.42c-2.99,3.3-6.75,6.36-10.72,9.08-2.05,1.36-4.04,2.69-5.96,3.97-1.97,1.28-3.93,2.46-5.79,3.53-3.74,2.14-7.11,3.86-9.52,5.07-2.42,1.2-3.93,1.86-3.93,1.86,0,0-1.76-2.86-2.22-7.42-.23-2.28-.14-4.98.66-7.95.4-1.49.97-3.04,1.76-4.64.83-1.61,1.99-3.3,3.41-5.02,2.86-3.44,6.67-6.73,10.78-9.72,4.23-2.82,8.77-5.33,12.94-7.42,2.06-1.08,4.12-1.92,5.99-2.67,1.87-.75,3.55-1.39,4.97-1.9,2.83-1.03,4.58-1.59,4.58-1.59,0,0,1.44,3.04,1.22,7.67-.2,4.64-2.04,10.87-8.16,17.15Z"/>
        <path class="cls-3" d="M1504.5,859.37c-1.32,1.69-2.84,3.36-4.52,4.93-1.69,1.54-3.51,3.02-5.41,4.42-3.79,2.8-7.84,5.3-11.57,7.38-3.72,2.07-7.1,3.77-9.57,4.87-2.48,1.08-4.01,1.67-4.01,1.67,0,0-1.63-2.94-1.88-7.51-.25-4.57.87-10.71,6.19-17.39,2.67-3.32,6.15-6.41,9.86-9.19,1.86-1.39,3.77-2.7,5.68-3.91,1.91-1.2,3.8-2.34,5.59-3.43,7.2-4.28,13.1-6.87,13.1-6.87,0,0,1.74,2.87,2.19,7.43.45,4.56-.4,10.81-5.67,17.6Z"/>
        <path class="cls-3" d="M1447.38,879.99c-5.61,6.39-14.68,11.72-22.35,15.45-7.72,3.52-14,5.51-14,5.51,0,0-1.4-3.05-1.32-7.64.07-4.59,1.61-10.73,7.28-16.84,2.84-2.99,6.44-5.99,10.25-8.53,3.81-2.56,7.83-4.79,11.5-6.62,3.67-1.89,6.98-3.48,9.39-4.52,2.4-1.06,3.89-1.62,3.89-1.62,0,0,1.6,2.95,1.84,7.53.23,4.57-.9,10.77-6.48,17.3Z"/>
        <path class="cls-3" d="M1678.63,861.78c-.76-1.76-1.84-3.45-3.08-5.18-.32-.42-.62-.88-.98-1.27-.37-.39-.74-.78-1.1-1.16-.76-.77-1.55-1.53-2.37-2.28-1.6-1.58-3.5-2.72-5.35-3.95-.93-.59-1.85-1.2-2.81-1.71-.96-.47-1.92-.92-2.86-1.35-.95-.42-1.87-.83-2.75-1.21-.45-.19-.89-.38-1.32-.56-.44-.17-.87-.28-1.29-.42-1.69-.52-3.21-.96-4.5-1.31-1.29-.34-2.32-.65-3.05-.76-.73-.11-1.13-.18-1.13-.18,0,0-.25.81-.41,2.18-.16,1.37-.23,3.3.06,5.54.3,2.21.92,4.87,2.06,7.59.57,1.36,1.27,2.75,2.11,4.12.42.69.88,1.37,1.38,2.04.5.68.98,1.45,1.53,2.15,1.08,1.44,2.27,2.76,3.52,3.97,1.15,1.36,2.34,2.61,3.56,3.74,2.32,2.41,4.56,4.51,6.4,6.43,1,.86,1.76,1.85,2.53,2.61.38.39.74.74,1.09,1.06.34.33.6.7.88.98,1.06,1.19,1.78,1.82,1.78,1.82,0,0,.62-.57,1.53-1.6.91-1.04,2.12-2.53,3.23-4.46,2.17-3.82,4.24-9.61,1.32-16.85Z"/>
        <path class="cls-3" d="M1626.43,849.06c-1.74-1.02-3.69-1.91-5.76-2.68-1.04-.37-2.1-.79-3.2-1.04-1.09-.26-2.21-.49-3.33-.7-2.25-.42-4.55-.73-6.81-.97-2.26-.2-4.47-.15-6.57-.15-2.1.02-4.09.1-5.89.19s-3.38.38-4.71.55c-2.66.38-4.27.69-4.27.69,0,0,.22,3.35,2.43,7.36,1.1,2.01,2.68,4.19,4.91,6.21,1.11,1.01,2.39,1.98,3.84,2.88,1.45.92,3.08,1.86,4.9,2.65,3.63,1.64,7.73,2.48,11.68,3.51,1.98.45,3.96.8,5.87,1.06,1.89.36,3.68.73,5.38.98.85.13,1.67.24,2.46.33.39.05.78.09,1.16.13.37.05.72.14,1.06.2,1.38.26,2.6.45,3.62.59,1.02.14,1.84.22,2.41.28.28.02.5.04.65.06.14.02.22.04.22.04,0,0,.16-.81.24-2.19.08-1.37.1-3.34-.29-5.54-.39-2.21-1.15-4.7-2.68-7.21-.77-1.26-1.72-2.52-2.92-3.76-.6-.62-1.26-1.23-1.98-1.83-.73-.6-1.53-1.09-2.4-1.61Z"/>
        <path class="cls-3" d="M1569.42,859.35c-4.05-.94-8.68-1.17-13.36-.98-1.17.05-2.34.11-3.5.22-1.15.14-2.3.31-3.43.48-2.26.36-4.46.78-6.53,1.23-4.14.89-7.78,1.88-10.38,2.69-2.6.79-4.15,1.35-4.15,1.35,0,0,.71,3.28,3.56,6.89,1.43,1.8,3.39,3.69,6.08,5.27,1.35.79,2.87,1.52,4.61,2.11,1.7.62,3.51,1.18,5.55,1.56,4.07.77,8.53.87,12.92.57,4.41-.09,8.75-.56,12.58-1.17,1.92-.34,3.7-.55,5.31-.79,1.6-.24,3.03-.48,4.21-.71,2.37-.44,3.78-.79,3.78-.79,0,0-.35-3.35-2.6-7.28-2.27-3.93-6.48-8.44-14.65-10.67Z"/>
        <path class="cls-3" d="M1512.81,880.78c-2.14-.33-4.38-.46-6.7-.49-2.33-.05-4.72.03-7.09.21-4.76.36-9.49,1.12-13.68,1.97-4.2.84-7.84,1.82-10.48,2.5-2.64.67-4.21,1.15-4.21,1.15,0,0,.55,3.31,3.24,7.05,2.69,3.73,7.55,7.93,16.11,9.37,4.29.74,9.12.76,13.95.36,2.42-.2,4.83-.49,7.18-.85,2.36-.35,4.63-.79,6.74-1.29,8.49-1.95,14.83-4.23,14.83-4.23,0,0-.69-3.29-3.53-6.9-2.84-3.61-7.83-7.54-16.37-8.85Z"/>
        <path class="cls-3" d="M1454.55,901.81c-8.53-1.85-19.13-1.08-27.6.14-8.54,1.01-14.95,2.56-14.95,2.56,0,0,.3,3.35,2.71,7.26,2.41,3.9,6.93,8.35,15.56,10.47,4.34,1.12,9.15,1.29,14.06,1.17,4.89-.15,9.82-.71,14.2-1.39,4.36-.73,8.13-1.66,10.84-2.34,2.71-.69,4.34-1.19,4.34-1.19,0,0-.52-3.32-3.2-7.06-2.67-3.74-7.49-7.9-15.95-9.62Z"/>
        <path class="cls-3" d="M1679.37,848.94c-.83-.52-1.73-.91-2.61-1.32l-2.66-1.24c-.89-.4-1.76-.85-2.67-1.21l-2.75-1.01-2.75-1.01-1.38-.5c-.46-.15-.94-.26-1.41-.39l-5.66-1.53c-.93-.29-1.9-.43-2.86-.61l-2.88-.53c-1.92-.33-3.83-.78-5.78-.91l-5.83-.6-1.46-.15c-.49-.04-.98-.03-1.46-.05l-2.93-.08c-15.63-.49-31.23,1.61-46.45,5.06-7.65,1.6-15.12,3.92-22.61,6.11l-11.1,3.76-2.77.94c-.92.33-1.82.7-2.74,1.05l-5.46,2.12c-14.58,5.6-29.02,11.66-43.63,17.24l-21.98,8.2c-7.35,2.66-14.78,5.13-22.17,7.7-14.83,4.99-29.79,9.61-44.89,13.72-3.75,1.12-7.57,1.97-11.37,2.92-3.81.91-7.59,1.92-11.42,2.75l-11.51,2.38c-1.91.43-3.84.74-5.78,1.05l-5.8.96c-3.85.71-7.76,1.09-11.66,1.57-3.89.55-7.82.67-11.73.98-1.96.13-3.93.08-5.9.13-.98,0-1.97.05-2.95.01l-2.96-.14c-.98-.06-1.97-.06-2.96-.18l-2.95-.34c-1.99-.29-3.89-.61-5.94-1.32l.85-1.96s.22.13.9.32c.33.09.71.23,1.21.33.5.1,1.08.22,1.74.35,1.31.29,3,.41,4.94.67.99.05,2.05.11,3.18.17,1.13.05,2.33.17,3.61.12,10.22.13,24.88-1.28,42.17-4.57,34.66-6.46,79.6-20.76,123.49-37.36,2.76-.99,5.49-2.07,8.21-3.16,2.73-1.08,5.45-2.16,8.17-3.23,5.44-2.15,10.85-4.29,16.22-6.41,5.4-2.08,10.76-4.15,16.05-6.19,2.63-1.07,5.34-1.87,7.98-2.78,2.66-.89,5.29-1.77,7.9-2.64,20.99-6.72,41.42-10.44,59.02-11.06,1.1-.04,2.19-.08,3.27-.12,1.08-.05,2.14-.09,3.19-.03,2.1.07,4.16.14,6.17.21,1,.04,1.99.05,2.96.12.97.11,1.93.21,2.87.32,1.89.21,3.72.41,5.49.61,1.77.22,3.45.63,5.09.92,1.63.33,3.22.59,4.71.95,2.96.86,5.7,1.56,8.12,2.35,2.38.91,4.5,1.72,6.33,2.42,1.8.79,3.27,1.58,4.48,2.16,1.2.6,2.11,1.05,2.69,1.39.56.37.82.56.76.57Z"/>
      </g>
      <g>
        <path class="cls-3" d="M732.9,952.36c-.36-.18-.87-.51-1.54-1-.67-.49-1.34-1.07-2.01-1.74-.67-.67-1.14-1.27-1.41-1.81-.27-.44-.25-1.25.07-2.41.31-1.16.65-1.74,1-1.74.27.18.71-.13,1.34-.94.62-.8,1.25-1.67,1.88-2.61.62-.94.94-1.49.94-1.67.09-.36.34-.65.74-.87.4-.22.78-.47,1.14-.74.45-.71,1.05-1.45,1.81-2.21.76-.76,1.36-1.41,1.81-1.94.71-.89,2.01-2.23,3.88-4.02,1.87-1.78,3.7-3.61,5.49-5.49,1.87-2.05,3.53-3.86,4.95-5.42,1.43-1.56,2.19-2.65,2.28-3.28.62-.62,1.16-1.07,1.61-1.34.45-.27,1.05-.71,1.81-1.34.76-.62,1.41-1.21,1.94-1.74.18-.71.69-1.72,1.54-3.01.85-1.29,1.72-2.39,2.61-3.28.71-1.07,1.38-2.25,2.01-3.55.62-1.29,1.03-2.25,1.21-2.88.27-.98.27-1.58,0-1.81-.27-.22-1.39-.65-3.35-1.27-2.14-.71-4.48-1-7.03-.87s-5.38,1.32-8.5,3.55c-1.25.27-2.39.63-3.41,1.07-1.03.45-1.9.63-2.61.54-.36-.18-.76-.58-1.21-1.2-.45-.62-.94-1.2-1.47-1.74l-1.34-2.81,4.15-2.28c3.66-2.32,6.98-3.93,9.97-4.82,2.99-.89,5.73-.94,8.23-.14.98,0,2.28.22,3.88.67.71-.09,1.61.29,2.68,1.14,1.07.85,2.12,1.9,3.15,3.15,1.03,1.25,1.81,2.5,2.34,3.75,1.43,2.14,1.9,4.4,1.41,6.76-.49,2.36-1.85,5.2-4.08,8.5-.45.54-1.43,1.65-2.95,3.35-1.52,1.7-3.24,3.59-5.16,5.69-1.92,2.1-3.66,3.95-5.22,5.56-1.56,1.61-2.57,2.63-3.01,3.08-.63.27-1.67,1.18-3.15,2.74-1.47,1.56-3.04,3.26-4.69,5.09-1.65,1.83-3.04,3.44-4.15,4.82-1.12,1.39-1.59,2.08-1.41,2.08-.09.36.04.52.4.47.36-.04.94-.2,1.74-.47,1.34-.45,3.1-.89,5.29-1.34,2.19-.44,4.44-.82,6.76-1.14,2.32-.31,4.35-.51,6.09-.6,1.74-.09,2.74,0,3.01.27.18.45.4.54.67.27.18-.62,1.32-.8,3.41-.54,2.1.27,3.99.67,5.69,1.21.98.27,1.76.49,2.34.67.58.18.87.45.87.8.45.8.94,1.52,1.47,2.14,1.43,1.16,1.61,1.92.54,2.28-1.07.36-3.39.22-6.96-.4-2.32,0-4.24.13-5.76.4-.36.18-1.12.27-2.28.27s-2.28.05-3.35.13c-1.61-.18-3.21-.11-4.82.2-1.61.31-3.53.83-5.76,1.54-.8.27-2.05.67-3.75,1.2-1.7.54-3.53,1.07-5.49,1.61-1.97.54-3.73.94-5.29,1.21-1.56.27-2.57.36-3.01.27Z"/>
        <path class="cls-3" d="M804.39,953.3c-2.23,0-4.4-.24-6.49-.74-2.1-.49-3.77-1.16-5.02-2.01-1.25-.85-1.83-1.81-1.74-2.88.09-1.43.4-2.21.94-2.34.54-.13,1.78-.07,3.75.2,3.03.63,6.29.67,9.77.13,3.48-.54,6.74-1.47,9.77-2.81,3.03-1.34,5.4-2.85,7.1-4.55,2.41-2.32,3.5-4.64,3.28-6.96-.22-2.32-1.63-4.33-4.22-6.03-1.16-.8-2.77-1.56-4.82-2.28-2.05-.71-4.08-1.27-6.09-1.67s-3.64-.56-4.89-.47c-.8.09-1.45.09-1.94,0-.49-.09-1.32-.45-2.48-1.07-.54-.62-1.03-1.32-1.47-2.08-.45-.76-.76-1.32-.94-1.67-.09-.45.16-.89.74-1.34.58-.44,1.85-1.22,3.82-2.34,1.96-1.11,5-2.79,9.1-5.02,3.75-2.05,6.71-3.73,8.9-5.02,2.19-1.29,3.93-2.36,5.22-3.21,1.29-.85,2.34-1.63,3.15-2.34,1.61-2.14,2.41-3.53,2.41-4.15s-1.16-1.16-3.48-1.61c-2.23-.18-4.37-.31-6.43-.4-2.05-.09-3.08.05-3.08.4h-.54c-.45-.18-1.43-.13-2.95.13-1.52.27-2.97.58-4.35.94-1.39.36-2.12.67-2.21.94-.09.18-.6.47-1.54.87-.94.4-1.87.74-2.81,1-.94.27-1.54.4-1.81.4-.45-.18-.96-.65-1.54-1.41-.58-.76-1.05-1.56-1.41-2.41-.36-.85-.45-1.49-.27-1.94.18-.35.74-.82,1.67-1.41.94-.58,2.03-1.2,3.28-1.88,1.25-.67,2.36-1.22,3.35-1.67,1.25-.35,3.01-.62,5.29-.8s4.57-.29,6.9-.33c2.32-.04,4.02-.02,5.09.07,4.1.45,7.27,1.52,9.51,3.21,2.23,1.7,3.61,3.97,4.15,6.83.27,1.25.35,2.28.27,3.08-.09.8-.49,1.63-1.2,2.48-.72.85-1.96,2.07-3.75,3.68-2.23,1.43-4.06,2.63-5.49,3.61-1.43.98-3.57,2.23-6.43,3.75-.63.45-1.47,1.03-2.54,1.74-1.07.71-2.06,1.36-2.95,1.94-.89.58-1.34.96-1.34,1.14.71.45,1.34.85,1.88,1.2.54.36,1.03.76,1.47,1.2,2.59.89,4.95,2.32,7.1,4.28,2.14,1.96,3.66,3.57,4.55,4.82,1.25,2.77,1.76,5.45,1.54,8.03-.22,2.59-1.14,5.02-2.74,7.3-1.61,2.28-3.97,4.35-7.1,6.23-2.5,1.43-5.4,2.61-8.7,3.55-3.3.94-6.38,1.5-9.24,1.67Z"/>
        <path class="cls-3" d="M894.64,968.16c-1.7.27-3.26.42-4.69.47-1.43.04-3.53-.29-6.29-1-1.43-.45-2.43-.98-3.01-1.61-.58-.63-1.54-1.79-2.88-3.48-.98-1.43-1.67-2.74-2.07-3.95s-.47-2.14-.2-2.81c.27-.67.85-.87,1.74-.6.27.09.69.38,1.27.87.58.49,1.14,1.09,1.67,1.81,1.25,1.34,2.77,2.23,4.55,2.68,1.79.44,4.15.49,7.1.13,1.25-.27,2.77-.65,4.55-1.14,1.79-.49,3.53-1.09,5.22-1.81,1.69-.71,3.03-1.43,4.02-2.14,4.73-3.21,9.95-6.69,15.67-10.44.18-.36.51-.65,1-.87.49-.22,1.09-.47,1.81-.74.54-.54,1.41-1.38,2.61-2.54,1.2-1.16,2.36-2.32,3.48-3.48,1.11-1.16,1.81-1.83,2.07-2.01.18-.8.35-1.45.54-1.94.18-.49.27-1,.27-1.54.71-.71,1.67-2.21,2.88-4.49,1.2-2.28,2.43-4.82,3.68-7.63,1.25-2.81,2.14-5.38,2.68-7.7,1.25-6.25,1.56-11.52.94-15.8-.63-4.28-1.9-7.97-3.82-11.05-1.92-3.08-4.31-5.82-7.16-8.23-.98-.8-2.34-1.67-4.08-2.61s-3.55-1.76-5.42-2.48c-1.88-.71-3.5-1.29-4.89-1.74-1.39-.44-2.21-.62-2.48-.54-.36.09-1.09,1.49-2.21,4.22-1.12,2.72-2.43,6.18-3.95,10.38-1.52,4.2-3.15,8.66-4.89,13.39-1.74,4.73-3.37,9.19-4.89,13.39-.54,1.7-1.12,3.48-1.74,5.35-.63,1.88-1.16,3.5-1.61,4.89-.45,1.39-.67,2.3-.67,2.74-.98,1.52-1.76,3.53-2.34,6.03-.58,2.5-1.23,6.65-1.94,12.45-.8,3.04-1.39,5.33-1.74,6.9-.36,1.56-.72,2.3-1.07,2.21-.09.09-.27.27-.54.54,0,.54-.36.8-1.07.8s-1.54-.2-2.48-.6-1.67-.87-2.21-1.41c-.27-.98-.43-1.92-.47-2.81-.05-.89.29-2.63,1-5.22.45-1.69,1-3.77,1.67-6.23.67-2.45,1.41-5,2.21-7.63.8-2.63,1.56-5.06,2.28-7.3.71-2.23,1.25-3.93,1.61-5.09.62-1.52,1.52-4.37,2.68-8.57.71-2.32,1.45-4.64,2.21-6.96.76-2.32,1.49-4.4,2.21-6.23.71-1.83,1.2-3.01,1.47-3.55.44-1.16,1.11-3.12,2.01-5.89.89-2.77,2.05-5.84,3.48-9.24l.94-4.42-1.47-.67c-1.07.36-1.9.47-2.48.33-.58-.13-.96-.24-1.14-.33-.54.18-1.3.05-2.28-.4-.98-.44-1.85-1.03-2.61-1.74-.76-.71-1.23-1.34-1.41-1.88-.18-.36-.31-1.11-.4-2.28.09-.54.76-1.05,2.01-1.54,1.25-.49,2.88-.91,4.89-1.27,2.01-.36,4.19-.6,6.56-.74,2.36-.13,4.66-.11,6.9.07,2.32.18,4.51.67,6.56,1.47,2.05.8,4.29,1.65,6.69,2.54,2.86,1.07,5.87,2.93,9.04,5.56,3.17,2.63,6.07,5.74,8.7,9.31,2.63,3.57,4.4,7.32,5.29,11.25.27,1.07.54,2.59.8,4.55.27,1.96.42,3.86.47,5.69.04,1.83-.16,3.01-.6,3.55-.18.36-.29.78-.33,1.27-.05.49.11.83.47,1-.09.27-.4,1.27-.94,3.01-.54,1.74-1.03,3.24-1.47,4.49-.18,2.32-.71,4.73-1.61,7.23-.89,2.5-1.88,4.84-2.95,7.03-1.07,2.19-2.05,4.04-2.95,5.56-.36,0-.69.07-1,.2-.31.13-.29.25.07.33,0,.45-.49,1.3-1.47,2.55-.36.27-.92.92-1.67,1.94-.76,1.03-1.36,1.72-1.81,2.07-.09.63-.36,1.14-.8,1.54-.45.4-.85.6-1.2.6-.27,0-.4.18-.4.54-.72,1.07-1.83,2.34-3.35,3.82-1.52,1.47-3.24,2.99-5.16,4.55-1.92,1.56-3.88,3.01-5.89,4.35-2.01,1.34-3.91,2.36-5.69,3.08-.89.62-1.83,1.14-2.81,1.54-.98.4-1.92.82-2.81,1.27-.45.36-1.43.87-2.95,1.54-1.52.67-3.15,1.32-4.89,1.94-1.73.62-3.27,1.07-4.61,1.34Z"/>
        <path class="cls-3" d="M980.19,950.75c-1.88,1.61-4.04,2.54-6.49,2.81-2.46.27-4.84-.11-7.16-1.14-2.32-1.03-4.24-2.61-5.76-4.75-1.52-1.96-2.5-4.22-2.95-6.76-.45-2.54-.49-5.87-.13-9.97.27-3.48,1.38-6.98,3.35-10.51,1.96-3.53,4.35-6.67,7.16-9.44,2.81-2.77,5.6-4.69,8.37-5.76,1.34-.89,2.48-1.32,3.41-1.27.94.05,2.39.16,4.35.33,2.05.27,3.59.67,4.62,1.2,1.03.54,1.85,1.25,2.48,2.14,1.34,1.34,2.23,2.66,2.68,3.95.45,1.3.67,2.57.67,3.82-.36,1.96-1.67,4.35-3.95,7.16s-5.24,5.11-8.9,6.9c-1.96.63-4.11.89-6.43.8-2.32-.09-4.24-.67-5.76-1.74-1.7-.71-2.81-.6-3.35.33-.54.94-1.03,3.19-1.47,6.76-.36,3.39-.09,5.87.8,7.43.89,1.56,2.1,2.48,3.61,2.74,1.79.36,3.19.6,4.22.74,1.03.13,2.3-.24,3.82-1.14,1.43-.89,2.32-1.41,2.68-1.54.36-.13.65-.31.87-.54s.78-.78,1.67-1.67c.62-.62,1.11-1.09,1.47-1.41.36-.31.76-.47,1.2-.47s.85.2,1.2.6c.36.4.71.69,1.07.87.89,0,1.09.54.6,1.61-.49,1.07-1.45,2.34-2.88,3.82-1.43,1.47-3.12,2.83-5.09,4.08ZM980.06,922.37c.98-.44,2.01-1.09,3.08-1.94,1.07-.85,1.99-1.78,2.74-2.81.76-1.03,1.14-1.9,1.14-2.61,0-1.25-.58-2.3-1.74-3.15-1.16-.85-2.9-.96-5.22-.33-.98.27-2.1.92-3.35,1.94-1.25,1.03-2.43,2.17-3.55,3.42-1.12,1.25-2.01,2.36-2.68,3.35-.67.98-.92,1.56-.74,1.74.27.45,1.03.78,2.28,1,1.25.22,2.66.29,4.22.2,1.56-.09,2.83-.36,3.82-.8Z"/>
        <path class="cls-3" d="M1014.73,953.97c-2.59.45-4.95.29-7.1-.47-2.14-.76-3.86-2.05-5.16-3.88-1.3-1.83-1.94-4.17-1.94-7.03-.27-2.68.04-5.78.94-9.31.89-3.53,2.21-7.07,3.95-10.65,1.74-3.57,3.64-6.65,5.69-9.24,1.78-2.14,3.57-4.1,5.35-5.89,1.79-1.78,3.39-2.99,4.82-3.61,1.25-.54,2.43-.87,3.55-1,1.11-.13,2.03-.2,2.74-.2,1.43.36,2.97,1,4.62,1.94,1.65.94,2.48,1.94,2.48,3.01l.67.67c.54,0,1,.58,1.41,1.74.4,1.16.65,2.48.74,3.95.09,1.47-.13,2.7-.67,3.68-.36,1.7-.98,3.17-1.88,4.42-.89,1.25-1.7,1.88-2.41,1.88-.36,0-.69.02-1,.07-.31.05-.47.29-.47.74s-.25.63-.74.54c-.49-.09-1-.38-1.54-.87-.54-.49-.94-1.09-1.2-1.81,0-.44.18-1.2.54-2.28.36-1.07.71-2.45,1.07-4.15.54-2.5.49-4.13-.13-4.89-.63-.76-1.83-.78-3.61-.07-2.23,1.25-4.35,2.99-6.36,5.22-2.01,2.23-3.86,5.11-5.56,8.64-1.7,3.53-3.21,7.92-4.55,13.19-.54,2.06-.74,3.84-.6,5.35.13,1.52.33,2.32.6,2.41,1.25.36,2.95.42,5.09.2,2.14-.22,3.7-.6,4.69-1.14,1.43-.71,3.03-1.67,4.82-2.88,1.79-1.2,3.35-2.3,4.69-3.28.44-.27.98-.71,1.61-1.34.62-.62,1.29-1.11,2.01-1.47.71-1.07,1.34-1.69,1.88-1.88.54-.18,1.34-.27,2.41-.27.71.18,1.38.45,2.01.8.62.36,1.05.72,1.27,1.07.22.36.07.67-.47.94-.36,0-.58.22-.67.67.18.36-.2,1.09-1.14,2.21-.94,1.12-2.12,2.34-3.55,3.68-1.43,1.34-2.79,2.48-4.08,3.41-1.3.94-2.21,1.41-2.74,1.41-.89,0-1.34.27-1.34.8,0,.18-.65.62-1.94,1.34-1.3.71-2.77,1.43-4.42,2.14-1.66.71-3.11,1.2-4.35,1.47Z"/>
        <path class="cls-3" d="M1060.52,955.84c-3.93,0-7.14-1.49-9.64-4.48-2.5-2.99-3.7-6.71-3.61-11.18.18-3.21.82-6.67,1.94-10.38,1.11-3.7,2.61-7.27,4.48-10.71,1.87-3.44,3.93-6.45,6.16-9.04,2.23-2.59,4.55-4.42,6.96-5.49.89-.44,1.85-.8,2.88-1.07,1.03-.27,2.07-.4,3.15-.4.98,0,2.01.16,3.08.47,1.07.31,1.96.65,2.68,1,1.52.63,2.68,1.39,3.48,2.28.8.89,1.52,2.28,2.14,4.15.27,1.7.4,2.9.4,3.61s-.22,1.79-.67,3.21c-1.07,3.21-2.46,5.98-4.15,8.3-1.7,2.32-3.97,4.28-6.83,5.89-.72.45-1.54.78-2.48,1-.94.22-1.9.33-2.88.33-1.79,0-3.5-.33-5.16-1-1.65-.67-2.97-1.67-3.95-3.01l-.94-1.07-.4,1.07c-.89,2.41-1.59,4.64-2.08,6.69-.49,2.05-.74,3.93-.74,5.62,0,1.07.11,2.1.33,3.08.22.98.56,1.83,1,2.54.35.54.96.92,1.81,1.14.85.22,1.76.33,2.74.33.62,0,1.27-.02,1.94-.07.67-.04,1.32-.2,1.94-.47,1.52-.54,2.74-1.11,3.68-1.74.94-.62,1.9-1.29,2.88-2.01l.54-.27h-.13c1.07-.54,2.45-1.34,4.15-2.41.35,0,.71-.22,1.07-.67.71-.36,1.63-.22,2.74.4,1.11.63,1.67,1.43,1.67,2.41-.09.45-.49,1.14-1.2,2.07-.72.94-1.5,1.81-2.34,2.61-.85.8-1.54,1.25-2.07,1.34-.09.09-.4.25-.94.47-.54.22-.89.43-1.07.6h.13c-.8,1.07-1.61,1.61-2.41,1.61h-1.07c-.36.63-1.52,1.32-3.48,2.07-1.97.76-3.89,1.14-5.76,1.14ZM1066.55,926.39c1.61,0,3.01-.47,4.22-1.41,1.2-.94,2.25-1.99,3.15-3.15,1.79-2.41,2.83-4.75,3.15-7.03.31-2.28.02-3.86-.87-4.75-.54-.27-1-.42-1.41-.47-.4-.04-1.18.11-2.34.47-.8.18-1.92.85-3.35,2.01-1.43,1.16-2.83,2.46-4.22,3.88-1.39,1.43-2.43,2.63-3.15,3.61l-1.74,2.81c.71-.27,1.41-.42,2.07-.47.67-.04,1.05.02,1.14.2,0,.8.16,1.54.47,2.21.31.67.71,1.18,1.2,1.54.49.36,1.05.53,1.67.53Z"/>
        <path class="cls-3" d="M1094.93,950.49c-.27-.36-.51-.8-.74-1.34-.22-.54-.33-.98-.33-1.34,0-.18-.02-.4-.07-.67-.05-.27-.25-.4-.6-.4-.27-.27-.07-1.32.6-3.15.67-1.83,1.56-3.95,2.68-6.36,1.11-2.41,2.28-4.75,3.48-7.03,1.2-2.28,2.21-4.08,3.01-5.42.44-.27.74-.65.87-1.14.13-.49.11-.74-.07-.74.98-1.69,1.61-2.68,1.87-2.95.71-1.25,1.25-2.52,1.61-3.82.35-1.29.45-2.39.27-3.28-.36-.45-.98-.49-1.88-.14-.36.09-.87.25-1.54.47-.67.22-1.27.52-1.81.87-2.06,1.43-3.44,2.07-4.15,1.94-.72-.13-1.52-1.27-2.41-3.42-.36-.98-.49-1.69-.4-2.14.09-.44.44-.94,1.07-1.47.71-.62,1.38-1.05,2.01-1.27.62-.22,1.11-.47,1.47-.74.98-.62,1.81-1.07,2.48-1.34.67-.27,1.18-.44,1.54-.54,2.32-.71,4.29-.85,5.89-.4,1.61.45,2.81,1.61,3.61,3.48,1.25,1.52,1.88,3.24,1.88,5.16s-.63,4.13-1.88,6.63l-1.34,2.01c-.45.89-.52,1.34-.2,1.34s.69-.31,1.14-.94c.27-.36.8-.89,1.61-1.61.8-.71,1.34-1.07,1.61-1.07.44-.18.67-.58.67-1.2.27-.27.71-.67,1.34-1.2.35,0,1.05-.42,2.07-1.27,1.03-.85,2.25-1.85,3.68-3.01.98-.71,1.88-1.07,2.68-1.07,2.05-.62,3.73.05,5.02,2.01,1.29,1.96,1.94,4.51,1.94,7.63l-2.81,7.23,4.82-5.89c.54-.71,1.09-1.34,1.67-1.88.58-.54,1.09-.98,1.54-1.34.18-.62.62-1.03,1.34-1.2.36-.09.54-.27.54-.54.45-.36.94-.69,1.47-1,.54-.31.89-.65,1.07-1,1.52-.62,2.9-.74,4.15-.33,1.25.4,2.32,1.54,3.21,3.42.62,1.07.98,2.01,1.07,2.81.09.8.13,2.01.13,3.61-.18,1.34-.33,2.39-.47,3.15-.13.76-.25,1.54-.33,2.34-.09.8-.22,1.92-.4,3.35-.36.71-.56,1.47-.6,2.28-.05.8-.07,1.56-.07,2.28,0,1.16.04,1.94.13,2.34.09.4.44.6,1.07.6,1.25-.27,2.97-.91,5.16-1.94,2.19-1.03,3.82-2.03,4.89-3.01,1.34-1.25,2.52-1.9,3.55-1.94,1.03-.04,1.67.47,1.94,1.54.18.36-.11,1.16-.87,2.41-.76,1.25-1.61,2.46-2.54,3.61-.94,1.16-1.63,1.74-2.07,1.74-.27,0-.58.25-.94.74-.36.49-.76.87-1.2,1.14-.63.63-1.23,1.2-1.81,1.74-.58.54-1.23.8-1.94.8-.36,0-.78.11-1.27.33-.49.22-1.05.33-1.67.33-.89.27-2.26.13-4.08-.4-1.83-.54-3.01-1.78-3.55-3.75-.36-.98-.67-2.56-.94-4.75-.27-2.19-.22-4.4.13-6.63.35-1.61.58-3.08.67-4.42.09-1.34.27-2.28.54-2.81v-1.94c0-1.03-.13-1.54-.4-1.54-.36,0-1.18.65-2.48,1.94-1.3,1.29-2.81,2.92-4.55,4.89-1.74,1.96-3.46,4.02-5.16,6.16-1.7,2.14-3.08,4.06-4.15,5.76-.8.98-1.52,2.19-2.14,3.61-.63,1.43-1.07,2.23-1.34,2.41-.63.72-1.36.8-2.21.27-.85-.54-1.63-1.38-2.34-2.54-.27-.54-.45-1-.54-1.41-.09-.4-.07-.98.07-1.74.13-.76.45-1.9.94-3.41.49-1.52,1.18-3.66,2.07-6.43.98-3.03,2.23-7.01,3.75-11.92,0-.35-.67-.02-2.01,1-1.34,1.03-2.9,2.3-4.69,3.82-.8.98-2.14,2.46-4.02,4.42-1.88,1.96-3.93,4.2-6.16,6.69-2.23,2.5-4.38,5.13-6.43,7.9-2.59,3.66-4.4,5.89-5.42,6.69-1.03.8-2.03.58-3.01-.67Z"/>
        <path class="cls-3" d="M1179.82,948.61c0-.71-.09-1.38-.27-2.01-.18-.62-.09-1.11.27-1.47l1.07.27c-.36.09-.89.11-1.61.07-.72-.04-1.36-.18-1.94-.4-.58-.22-.92-.42-1-.6.09-1.52.2-2.68.33-3.48.13-.8.33-1.47.6-2.01,0-.8.27-1.83.8-3.08.54-1.25.98-2.54,1.34-3.88.36-1.52.82-3.79,1.41-6.83.58-3.03,1.45-5.94,2.61-8.7.71-2.32,1.61-5.24,2.68-8.77,1.07-3.53,2.1-6.45,3.08-8.77,1.07-4.1,2.07-7.43,3.01-9.97.94-2.54,1.92-4.86,2.95-6.96,1.03-2.1,2.16-4.49,3.41-7.16.36-.71.71-1.63,1.07-2.74.36-1.11.67-2.07.94-2.88.18-.71.87-1.22,2.07-1.54,1.2-.31,2.34.07,3.41,1.14.98.98,1.52,1.83,1.61,2.54.09.72-.2,1.9-.87,3.55-.67,1.65-1.76,4.35-3.28,8.1-.63.89-1.32,2.39-2.07,4.48-.76,2.1-1.45,3.95-2.07,5.56-1.34,3.13-2.41,5.8-3.21,8.03-.8,2.23-1.56,4.51-2.28,6.83-.63,2.5-1.36,5.31-2.21,8.44-.85,3.13-1.72,6.07-2.61,8.84l-2.14.67c.62-.8,1.41-1.74,2.34-2.81s1.83-2.05,2.68-2.95c.85-.89,1.41-1.47,1.67-1.74,2.41-2.05,5.09-3.95,8.03-5.69,2.95-1.74,5.73-3.06,8.37-3.95,2.63-.89,4.62-1.07,5.96-.54,1.07.36,2.41,1.3,4.02,2.81,1.61,1.52,2.54,2.95,2.81,4.28.71,1.43.85,3.1.4,5.02-.45,1.92-1.52,4.44-3.21,7.56-1.52,2.77-3.26,5.42-5.22,7.97-1.96,2.55-3.84,4.67-5.62,6.36-.63.36-1.41.96-2.34,1.81-.94.85-1.76,1.67-2.48,2.48-1.88,1.7-4.08,3.04-6.63,4.02-2.54.98-5.07,1.59-7.56,1.81-2.5.22-4.69.02-6.56-.6-1.87-.62-3.12-1.65-3.75-3.08ZM1181.83,945c.45.09.89.16,1.34.2.45.05.94.07,1.47.07,1.96-.27,3.64-.56,5.02-.87,1.38-.31,2.74-.76,4.08-1.34,1.34-.58,2.81-1.36,4.42-2.34,2.32-1.78,4.44-3.55,6.36-5.29,1.92-1.74,3.73-3.68,5.42-5.82,1.52-1.96,2.88-4.28,4.08-6.96,1.2-2.68,1.81-4.77,1.81-6.29,0-.8-.22-1.2-.67-1.2-.18,0-.98.25-2.41.74-1.43.49-2.88,1.07-4.35,1.74-1.47.67-2.43,1.23-2.88,1.67,0,.36-.54.76-1.61,1.2-2.77,2.06-4.95,3.82-6.56,5.29-1.61,1.47-2.95,2.88-4.02,4.22-.63.89-1.16,1.63-1.61,2.21-.45.58-.87,1.18-1.27,1.81-.4.63-.94,1.43-1.61,2.41-.67.98-1.54,2.32-2.61,4.02-.63,1.16-1.41,2.28-2.34,3.35s-1.63,1.7-2.07,1.88v-.67h0Z"/>
        <path class="cls-3" d="M1240.74,952.23c-3.48-1.43-5.74-3.42-6.76-5.96-1.03-2.54-1.23-6.49-.6-11.85.18-2.77.27-4.6.27-5.49s-.49-1.79-1.47-2.68c-.27-.36-.74-.85-1.41-1.47-.67-.62-.96-1.16-.87-1.61-.09-.62-.05-1.32.13-2.07.18-.76.44-1.14.8-1.14s.74-.09,1.14-.27c.4-.18.78-.18,1.14,0,.36,0,.76.05,1.2.14.44.09.67.31.67.67.35.63.94.69,1.74.2.8-.49,1.65-1.63,2.54-3.41.89-1.43,2.08-2.86,3.55-4.28,1.47-1.43,2.95-2.74,4.42-3.95,1.47-1.2,2.7-2.07,3.68-2.61.44-.18,1.11-.4,2.01-.67.89-.27,1.85-.49,2.88-.67,1.03-.18,1.9-.22,2.61-.13,1.61.09,2.97.54,4.08,1.34,1.11.8,2.16,1.74,3.15,2.81,1.16.8,1.9,1.88,2.21,3.21.31,1.34.38,2.77.2,4.28-.18,1.52-.58,2.9-1.2,4.15-.27.89-1.03,1.96-2.28,3.21s-2.68,2.46-4.29,3.61c-1.61,1.16-3.08,2.01-4.42,2.54-1.16.27-2.66.49-4.48.67-1.83.18-3.53.25-5.09.2-1.56-.04-2.61-.2-3.15-.47-.63-.36-1.12.13-1.47,1.47-.36,1.34-.62,3.26-.8,5.76-.18,1.96-.18,3.39,0,4.29.18.89.35,1.52.54,1.88.62.62,1.49,1.41,2.61,2.34,1.11.94,2.7,1.09,4.75.47,1.69-.45,3.37-1.61,5.02-3.48,1.65-1.88,3.19-3.39,4.62-4.55.35-.62.96-1,1.81-1.14.85-.13,1.76-.07,2.74.2.98.63,1.41,1.36,1.27,2.21-.13.85-.6,2.12-1.41,3.81-.27.63-.87,1.41-1.81,2.34s-1.96,1.88-3.08,2.81c-1.12.94-2.12,1.67-3.01,2.21-2.68,1.43-5.18,2.17-7.5,2.21-2.32.04-4.55-.34-6.69-1.14ZM1248.64,925.05c1.96-.44,3.53-.76,4.69-.94,1.16-.18,2.28-.69,3.35-1.54,1.07-.85,2.41-2.48,4.02-4.89.35-.98.47-1.96.33-2.95-.13-.98-.38-1.65-.74-2.01-.8-.89-1.76-1.18-2.88-.87-1.12.31-2.17.83-3.15,1.54-.63.27-1.54.92-2.74,1.94-1.2,1.03-2.39,2.19-3.55,3.48-1.16,1.29-2.1,2.48-2.81,3.55-.72,1.07-.89,1.7-.54,1.88-.18.36.33.58,1.54.67,1.21.09,2.03.13,2.48.13Z"/>
        <path class="cls-3" d="M1277.43,950.75c-.8-.62-1.36-1.25-1.67-1.88-.31-.62-.33-1.83-.07-3.61.27-2.5.62-4.71,1.07-6.63.45-1.92.98-4.13,1.61-6.63.18-1.07.69-2.9,1.54-5.49.85-2.59,1.9-5.4,3.15-8.44,1.25-3.03,2.5-5.91,3.75-8.64,1.25-2.72,2.32-4.75,3.21-6.09.71-.54,1.58-.76,2.61-.67,1.03.09,1.9.49,2.61,1.21.98.8,1.14,2.21.47,4.22s-2.03,5.16-4.08,9.44c-1.07,2.41-1.88,4.22-2.41,5.42-.54,1.2-.76,1.92-.67,2.14.09.22.49.11,1.2-.33.54-.98,1.52-2.12,2.95-3.41,1.43-1.29,2.95-2.56,4.55-3.82,1.61-1.25,3.12-2.36,4.55-3.35,1.43-.98,2.41-1.61,2.95-1.88.71-.44,1.54-.82,2.48-1.14.94-.31,1.58-.56,1.94-.74,2.05-.98,4.15-1.34,6.29-1.07,2.14.27,3.48,1.07,4.02,2.41.09.71.62,1.43,1.61,2.14.35,0,.58.27.67.8,0,.63-.47,1-1.41,1.14-.94.13-2.12.25-3.55.33-1.16.09-2.19.31-3.08.67-.89.36-1.96.8-3.21,1.34-3.39,1.96-6.63,3.88-9.71,5.76s-6.05,4.37-8.9,7.5c-.63.71-1.25,1.56-1.88,2.54-.63.98-1.3,2.05-2.01,3.21-.45.45-.89,1.43-1.34,2.95-.45,1.52-.83,2.97-1.14,4.35-.31,1.39-.47,2.21-.47,2.48-.54,1.7-1.12,2.95-1.74,3.75-1.07,1.43-1.96,2.14-2.68,2.14-.72,0-1.79-.71-3.22-2.14Z"/>
      </g>
    </g>
  </g>
</svg>